<?xml version="1.0" encoding="UTF-8" standalone="no"?>
<svg
   xmlns:dc="http://purl.org/dc/elements/1.1/"
   xmlns:cc="http://creativecommons.org/ns#"
   xmlns:rdf="http://www.w3.org/1999/02/22-rdf-syntax-ns#"
   xmlns:svg="http://www.w3.org/2000/svg"
   xmlns="http://www.w3.org/2000/svg"
   xmlns:sodipodi="http://sodipodi.sourceforge.net/DTD/sodipodi-0.dtd"
   xmlns:inkscape="http://www.inkscape.org/namespaces/inkscape"
   version="1.0"
   width="364.000000pt"
   height="327.000000pt"
   viewBox="0 0 364.000000 327.000000"
   preserveAspectRatio="xMidYMid meet"
   id="svg240"
   sodipodi:docname="K.svg"
   inkscape:version="0.92.3 (2405546, 2018-03-11)">
  <metadata
     id="metadata246">
    <rdf:RDF>
      <cc:Work
         rdf:about="">
        <dc:format>image/svg+xml</dc:format>
        <dc:type
           rdf:resource="http://purl.org/dc/dcmitype/StillImage" />
      </cc:Work>
    </rdf:RDF>
  </metadata>
  <defs
     id="defs244" />
  <sodipodi:namedview
     pagecolor="#ffffff"
     bordercolor="#666666"
     borderopacity="1"
     objecttolerance="10"
     gridtolerance="10"
     guidetolerance="10"
     inkscape:pageopacity="0"
     inkscape:pageshadow="2"
     inkscape:window-width="1366"
     inkscape:window-height="713"
     id="namedview242"
     showgrid="false"
     inkscape:zoom="2.990248"
     inkscape:cx="225.43322"
     inkscape:cy="364.50078"
     inkscape:window-x="0"
     inkscape:window-y="27"
     inkscape:window-maximized="1"
     inkscape:current-layer="g238" />
  <g
     transform="matrix(0.1,0,0,-0.1,0,327)"
     id="g238"
     style="fill:#ffffff;stroke:none">
    <path fill="#000000" stroke="none" d="M1390 3161 c-43 -6 -46 -8 -60 -51 -19
-57 -14 -53 -55 -52 -22 1 -35 -3 -35 -11 0 -7 -8 -20 -17 -29 -10 -9 -24 -24
-31 -33 -13 -15 -16 -15 -31 -1 -10 9 -35 16 -58 16 -24 0 -46 6 -53 15 -14
17 -60 21 -60 5 0 -5 -13 -10 -29 -10 -25 0 -30 -5 -36 -32 -4 -18 -20 -45
-36 -61 -17 -16 -29 -39 -29 -54 0 -38 -31 -83 -57 -83 -16 0 -23 -6 -23 -20
0 -11 -6 -20 -14 -20 -8 0 -16 -6 -19 -12 -3 -7 -12 3 -21 23 -15 36 -16 37
-66 34 -27 -1 -61 -10 -76 -20 -24 -15 -27 -15 -44 0 -12 11 -44 18 -95 22
-58 5 -78 10 -82 22 -14 39 -118 105 -157 99 -11 -2 -27 -16 -35 -32 -11 -25
-11 -35 3 -80 l17 -51 -32 -26 c-40 -33 -34 -54 18 -63 21 -4 53 -12 70 -19
25 -8 36 -8 45 1 7 7 20 12 30 12 15 0 18 -8 18 -47 0 -67 -9 -93 -31 -93 -11
0 -19 -7 -19 -15 0 -8 5 -15 10 -15 15 0 12 -54 -5 -86 -13 -26 -13 -30 2 -41
16 -13 16 -14 -7 -17 -6 0 -14 -6 -18 -12 -4 -6 -24 -14 -44 -18 -65 -12 -85
-49 -47 -85 l22 -20 -27 -56 c-29 -62 -31 -69 -15 -59 6 3 21 2 32 -4 51 -23
79 -32 101 -32 13 0 37 -7 54 -16 34 -16 88 -13 121 8 11 6 22 27 26 45 3 19
12 33 20 33 20 0 28 -18 10 -22 -11 -2 -8 -12 14 -48 28 -46 30 -70 6 -70 -7
0 -15 -4 -17 -8 -1 -5 -23 -15 -48 -23 -33 -10 -49 -22 -60 -44 -10 -21 -21
-29 -35 -28 -22 3 -57 -23 -68 -49 -3 -10 -15 -18 -26 -18 -11 0 -23 -4 -26
-10 -10 -16 -31 -11 -58 14 -15 14 -24 31 -21 39 3 8 1 18 -5 22 -6 3 -11 15
-11 26 0 11 -7 19 -16 19 -13 0 -15 11 -10 78 l5 77 -13 -75 c-13 -80 -12 -90
9 -90 8 0 16 -17 20 -42 7 -41 45 -88 71 -88 19 0 57 -42 69 -76 11 -32 46
-44 71 -23 12 9 20 9 39 -1 19 -10 30 -11 50 -2 26 12 75 16 75 7 0 -15 -34
-55 -46 -55 -8 0 -14 -10 -14 -25 0 -24 -8 -29 -41 -26 -9 1 -19 -7 -22 -18
-3 -12 -18 -26 -33 -32 -38 -14 -44 -27 -37 -74 9 -62 62 -115 114 -115 27 0
23 -28 -6 -42 -30 -14 -31 -17 -3 -64 20 -34 24 -36 61 -31 22 3 51 1 64 -4
16 -6 39 -5 66 2 37 10 43 9 58 -10 10 -12 20 -21 25 -21 4 0 12 -7 18 -15 9
-13 17 -14 44 -4 35 12 35 11 36 90 1 41 7 62 24 83 12 16 22 37 22 47 0 24
46 26 71 3 26 -23 144 -30 175 -9 40 26 47 20 40 -34 -8 -58 -3 -61 90 -61
l64 0 -6 -39 c-5 -33 -3 -41 15 -50 14 -8 21 -21 21 -41 0 -28 2 -30 39 -30
44 0 62 16 50 45 -4 11 -8 35 -8 52 -1 23 -8 37 -26 49 -14 9 -25 24 -25 33 0
9 -5 22 -11 28 -16 16 16 73 41 73 19 0 50 -25 50 -41 0 -5 6 -8 13 -7 8 2 12
-9 12 -31 0 -42 25 -62 56 -43 22 14 59 7 59 -11 0 -7 -4 -28 -10 -47 -11 -40
3 -97 29 -117 14 -11 14 -14 -5 -33 -19 -19 -25 -20 -45 -10 -21 12 -66 19
-139 21 -43 2 -50 -1 -50 -20 0 -11 -9 -23 -20 -26 -11 -3 -20 -13 -20 -21 0
-8 -10 -14 -25 -14 -20 0 -25 -5 -25 -25 0 -28 4 -29 48 -14 45 15 60 8 36
-18 -10 -11 -24 -28 -30 -39 -6 -10 -24 -26 -42 -34 -38 -18 -59 -58 -40 -75
7 -6 32 -17 55 -24 40 -11 43 -14 40 -44 -2 -31 -1 -32 35 -29 42 4 68 -14 68
-47 0 -16 -6 -21 -25 -21 -29 0 -33 -21 -9 -44 14 -15 13 -19 -10 -47 -25 -30
-25 -30 -31 -7 -5 19 -12 23 -47 23 -44 0 -57 14 -36 37 13 14 38 54 38 62 0
2 -9 6 -19 9 -11 2 -22 17 -25 34 -7 29 -74 103 -94 103 -5 0 -15 -7 -23 -16
-12 -14 -14 -14 -21 5 -9 25 -30 27 -48 6 -7 -8 -20 -15 -29 -15 -9 0 -22 -5
-28 -11 -6 -6 -34 -12 -62 -14 -31 -1 -59 -9 -70 -19 -18 -16 -20 -16 -35 6
-9 12 -16 37 -16 55 0 32 -1 33 -44 33 -25 0 -48 5 -52 11 -4 8 -26 9 -65 5
l-59 -7 6 39 c5 31 3 40 -11 45 -12 5 -14 13 -9 29 4 13 8 43 9 68 0 25 3 51
5 58 3 7 -8 20 -24 30 -22 13 -30 14 -33 5 -7 -19 -69 -16 -88 4 -14 14 -18
14 -26 2 -5 -8 -9 -19 -9 -26 0 -7 -21 -15 -49 -19 -44 -6 -50 -9 -55 -36 -9
-46 -8 -50 17 -48 56 5 67 1 67 -26 0 -17 6 -28 20 -31 11 -3 17 -9 14 -14 -3
-5 4 -9 15 -9 21 0 48 -36 36 -48 -4 -4 -26 -7 -48 -7 -38 0 -42 -3 -45 -26
-2 -19 5 -33 28 -53 17 -14 38 -26 46 -26 25 0 65 -42 58 -62 -6 -21 23 -53
76 -84 34 -21 38 -32 13 -41 -28 -9 -53 -45 -53 -75 0 -16 -4 -28 -9 -28 -14
0 -71 -63 -71 -78 0 -7 7 -15 15 -18 11 -5 14 -15 9 -39 -8 -47 19 -107 47
-103 15 2 23 12 26 28 6 41 16 41 62 -1 48 -44 64 -46 69 -6 4 32 13 33 53 10
23 -14 33 -15 48 -6 10 6 29 9 41 6 37 -10 57 51 25 77 -10 8 -13 21 -9 37 8
32 -13 71 -40 75 -18 3 -17 5 11 20 19 9 35 12 39 7 7 -12 74 -12 74 1 0 5 6
7 13 5 7 -3 19 10 29 32 l16 38 7 -30 c11 -50 14 -55 32 -62 10 -4 22 -12 26
-20 12 -20 44 -16 61 9 13 18 18 19 31 8 8 -7 15 -21 15 -31 0 -26 35 -24 54
2 15 21 16 21 42 4 19 -12 39 -16 71 -12 41 4 43 3 37 -17 -3 -11 -10 -25 -14
-30 -5 -5 -3 -15 5 -22 16 -16 45 -19 45 -4 0 6 9 10 20 10 17 0 19 -3 11 -18
-6 -11 -6 -24 0 -33 15 -24 11 -126 -6 -133 -9 -3 -15 -18 -15 -37 0 -31 1
-31 37 -24 50 9 55 13 48 36 -5 15 -1 19 14 19 12 0 21 -6 21 -14 0 -20 40
-32 51 -15 12 19 11 56 -2 81 -18 34 0 34 32 -1 l30 -33 34 27 c34 25 75 28
75 4 0 -16 42 -6 54 13 8 13 8 23 -1 37 -10 16 -8 20 13 30 37 17 62 13 69 -9
3 -11 15 -20 26 -20 12 0 19 -7 19 -20 0 -13 7 -20 19 -20 15 0 19 10 23 52 6
60 24 78 79 78 41 0 64 20 54 49 -5 15 0 21 25 26 16 4 30 10 30 15 0 5 9 12
20 15 15 5 20 15 20 41 0 20 -6 37 -14 40 -19 7 -27 41 -12 52 6 5 39 12 73
15 58 6 62 5 69 -16 7 -23 41 -57 57 -57 12 0 87 77 87 90 0 10 12 13 28 8 7
-3 4 -86 -4 -100 -2 -3 -18 -10 -35 -13 l-31 -7 7 -57 c7 -55 16 -71 44 -71
19 0 40 30 41 56 0 23 25 40 35 24 4 -6 26 -10 51 -10 42 0 44 1 44 30 0 30 0
30 25 14 14 -9 25 -22 25 -30 0 -8 15 -14 43 -16 l42 -3 -3 -40 c-2 -22 -8
-42 -13 -45 -5 -3 -1 -23 9 -43 16 -35 19 -37 52 -32 53 9 100 9 158 0 36 -5
57 -3 67 5 21 18 18 67 -6 101 -16 23 -17 29 -5 29 8 0 25 19 38 43 15 27 30
41 41 39 10 -2 22 9 32 28 11 21 23 30 40 30 16 0 25 6 25 15 0 8 6 15 14 15
8 0 22 8 32 17 13 13 19 14 22 5 2 -6 12 -12 22 -12 24 0 110 51 110 65 0 6
16 17 35 24 39 14 48 46 15 56 -22 7 -23 9 -24 82 -1 41 2 53 14 53 28 0 23
72 -6 103 -14 15 -29 27 -34 27 -14 0 -23 41 -11 53 20 20 13 55 -11 59 -20 3
-23 8 -20 38 2 19 10 48 18 64 8 16 14 37 14 47 0 16 -3 17 -25 7 -21 -9 -32
-8 -60 5 -24 12 -48 14 -84 10 -53 -6 -182 20 -211 43 -8 6 -19 13 -25 15 -20
8 -195 142 -195 150 0 5 -24 24 -52 42 -65 42 -194 164 -202 194 -4 11 -13 24
-21 27 -8 3 -15 13 -15 22 0 12 6 15 23 11 12 -4 41 -9 65 -13 l42 -7 0 36 c0
28 5 37 22 43 31 10 46 27 61 71 12 35 15 38 48 36 32 -2 35 1 47 37 13 44 16
111 5 108 -5 -2 -32 11 -60 27 -50 29 -52 31 -47 65 5 32 3 36 -26 49 l-32 13
31 32 c16 17 30 34 31 39 0 4 0 11 0 17 0 6 9 6 25 0 23 -9 45 3 31 17 -3 4 1
14 10 24 18 20 11 39 -16 39 -10 0 -21 7 -24 16 -8 21 -8 26 2 20 4 -2 18 20
31 50 16 36 30 54 41 54 10 0 23 6 29 14 20 24 -3 52 -54 65 -25 6 -45 15 -45
19 0 5 -14 19 -31 31 -23 17 -33 20 -39 11 -10 -15 -50 4 -50 24 0 8 -7 16
-15 20 -8 3 -15 16 -15 29 0 13 -5 28 -10 33 -14 14 -21 54 -10 54 8 0 30 53
30 75 0 13 -62 45 -90 45 -13 0 -20 -8 -22 -27 -2 -21 -9 -28 -25 -29 -13 -1
-23 2 -23 6 0 4 -14 10 -32 14 -29 6 -30 7 -15 24 10 10 17 35 17 55 0 36 -1
37 -40 37 -22 0 -40 -4 -40 -10 0 -34 -15 -56 -50 -73 -26 -14 -30 -14 -30 -1
0 11 -9 14 -31 12 -24 -2 -36 -11 -50 -38 -11 -19 -19 -29 -19 -22 0 6 -17 19
-37 27 -46 19 -73 43 -73 64 0 21 -46 64 -60 56 -6 -4 -10 4 -10 18 0 15 -9
28 -25 37 -14 7 -25 19 -25 27 0 24 -57 15 -79 -13 -11 -14 -28 -24 -37 -22
-12 2 -20 -7 -26 -30 l-9 -32 -32 24 c-18 13 -55 35 -84 50 -48 24 -55 25
-102 13 -37 -9 -51 -16 -51 -29 0 -24 -15 -23 -40 4 -11 12 -20 18 -20 14 0
-4 -12 2 -26 13 -15 12 -32 20 -38 19 -6 0 -31 -4 -56 -7z"><title>1</title></path>
    <path
       style="fill:#aabb44;stroke:none"
       d="m 1779.6637,2996.0269 c 0,5 -11.6637,-1.0269 -25.6637,-11.0269 -14,-9 -32,-14 -40,-11 -8,3 -14,2 -14,-2 0,-4 -13,-13 -30,-19 -18,-7 -30,-18 -30,-30 0,-27 45,-108 58,-105 14,3 15,0 2,-32 -8,-21 -6,-27 10,-36 11,-6 20,-17 20,-25 0,-19 -36,-20 -47,-1 -14,23 -50,36 -97,36 -60,0 -83,15 -78,49 3,22 -4,33 -32,55 -20,15 -36,32 -36,37 0,19 -54,70 -89,85 -18,8 -46,14 -61,14 -16,0 -30,7 -34,16 -10,26 -7,36 10,30 34,-13 59,4 74,52 l 16,46 51,3 c 42,3 56,0 73,-17 11,-11 20,-17 20,-14 0,3 10,-2 22,-10 30,-22 55,-20 63,3 9,28 89,40 114,17 10,-9 26,-16 35,-16 10,0 36,-14 58,-31 l 39,-32 -23,-25 -13.2466,-12.8924"
       id="path254">
      <title
         id="title137">Guntakal</title>
    </path>
    <path
       style="fill:#aabb44;stroke:none"
       d="M 1790.0448,2995.3184 1807,3009 c 24,12 53,59 53,86 0,9 9,15 23,15 12,1 31,12 42,25 22,27 55,33 55,10 0,-8 10,-20 23,-27 13,-8 22,-23 22,-38 0,-15 6,-25 15,-25 20,0 53,-31 56,-52 3,-19 42,-52 62,-53 15,0 15,-7 0,-23 -6,-7 -24,-11 -39,-9 -20,3 -30,-2 -39,-18 -9,-17 -14,-19 -25,-10 -10,8 -24,9 -42,3 -16,-5 -52,-8 -80,-7 -29,1 -53,-2 -53,-7 0,-5 -7,-9 -15,-9 -10,0 -15,-10 -15,-28 0,-33 -23,-57 -62,-66 -16,-3 -39,-9 -53,-12 -19,-5 -25,-2 -25,9 0,9 4,18 10,22 15,9 0,35 -21,35 -12,0 -19,7 -19,19 0,11 -4,21 -8,23 -5,2 -12,15 -16,31 -5,21 -3,29 11,33 20,6 56,21 91,37 12,6 23.6816,10.6278 23.6816,15.6278"
       id="path12">
      <title
         id="title139">Gooty</title>
    </path>
    <path
       d="m 2470,3021 c 0,-16 -7,-34 -15,-41 -8,-7 -15,-18 -15,-24 0,-15 98,-59 116,-52 12,5 19,33 15,59 -2,11 37,-1 66,-20 19,-12 20,-18 11,-44 -5,-16 -14,-29 -19,-29 -5,0 -9,-11 -9,-24 0,-13 -6,-29 -14,-35 -8,-7 -17,-23 -20,-36 -5,-18 -13,-25 -31,-25 -14,0 -25,-4 -25,-10 0,-16 -57,-12 -64,5 -3,8 -14,15 -24,15 -15,0 -21,-10 -26,-40 -7,-43 -25,-52 -52,-25 -24,23 -40,18 -63,-20 -11,-20 -29,-38 -38,-41 -42,-14 -62,-28 -67,-50 -6,-24 -6,-24 -26,-4 -11,11 -20,31 -20,45 0,22 4,25 33,25 37,0 69,27 86,72 10,28 4,38 -31,51 -20,7 -24,37 -8,53 14,14 -7,64 -27,64 -7,0 -13,10 -12,23 0,12 3,16 6,10 10,-26 42,-13 54,22 10,26 19,35 36,35 14,0 23,-6 23,-15 0,-17 25,-21 35,-5 3,5 11,7 18,4 14,-5 47,45 47,70 0,11 9,16 30,16 26,0 30,-3 30,-29 z"
       id="path16"
       
       style="fill:#aabb3f;stroke:none">
      <title
         id="title14">Yadiki</title>
    </path>
    <path
       d="m 1040,3005 c 8,-9 30,-15 60,-15 33,0 50,-5 54,-15 3,-8 17,-15 30,-15 19,0 27,7 32,25 3,14 12,25 20,25 20,0 19,-74 -1,-90 -20,-16 -19,-27 5,-57 22,-28 24,-41 11,-62 -8,-12 -15,-8 -36,17 -50,60 -125,34 -125,-44 0,-22 -9,-39 -31,-58 -27,-24 -30,-32 -24,-62 12,-66 -16,-94 -56,-58 -13,12 -22,13 -37,5 -11,-6 -22,-8 -25,-5 -3,3 -21,0 -40,-7 -31,-11 -37,-10 -65,11 -33,25 -40,48 -21,67 8,8 9,20 1,41 -11,33 0,62 26,62 21,0 46,39 61,97 7,26 19,44 30,48 13,4 22,19 26,44 6,34 9,37 31,33 16,-3 26,1 30,12 8,20 28,21 44,1 z"
       id="path20"
       
       style="fill:#aabb33;stroke:none">
      <title
         id="title18">Vidapanakal</title>
    </path>
    <path
       style="fill:#aabb11;stroke:none"
       d="m 1448,2528 c 6,5 11,19 11,33 -2,25 45,115 58,112 4,-1 7,13 5,31 -3,30 0,34 29,40 59,11 80,7 110,-25 25,-27 32,-30 56,-21 19,6 27,15 26,28 -2,19 35,44 66,44 8,0 26,11 40,24 26,24 26,24 50,5 24,-20 23,-21 -31,-33 -20,-5 -28,-13 -28,-27 0,-19 4,-20 48,-14 l 48,6 -1,-33 c 0,-26 -6,-36 -27,-46 -16,-7 -28,-19 -28,-27 0,-7 -9,-17 -20,-20 -11,-3 -20,-11 -20,-16 0,-5 -20,-9 -44,-9 -34,0 -49,-6 -67,-25 -16,-16 -35,-25 -55,-25 -17,0 -47,-6 -65,-14 -19,-7 -40,-11 -46,-9 -7,3 -16,-2 -19,-11 -4,-11 -19,-16 -49,-16 -38,0 -43,2 -38,20 3,12 0,20 -8,20"
       id="path258"
       >
      <title
         id="title143">Pamidi</title>
    </path>
    <path
       style="fill:#aabb11;stroke:none"
       d="m 1449,2520 c -7,0 -9,-3 -6,-6 14,-15 -15,-44 -43,-44 -17,0 -30,-5 -30,-11 0,-15 -42,-7 -51,11 -4,8 -10,26 -13,40 -4,17 -22,34 -57,53 -51,28 -51,29 -46,68 5,40 5,40 -50,71 l -55,31 6,41 c 4,22 12,46 18,53 10,13 68,15 68,2 0,-3 9,-16 19,-28 44,-50 79,5 46,69 -12,23 -14,35 -6,43 6,6 11,26 11,44 0,29 3,33 25,33 14,0 40,-6 58,-14 18,-7 46,-30 62,-51 17,-20 45,-52 64,-70 24,-24 32,-38 27,-51 -5,-13 0,-24 16,-36 13,-10 17,-18 11,-18 -7,0 -13,-12 -13,-28 0,-16 -9,-38 -20,-50 -11,-12 -20,-26 -20,-32 0,-6 -7,-22 -16,-35 -9,-14 -13,-33 -9,-45 5,-14 2,-20 -9,-20 -9,0 -16,-4 -16,-10 0,-12 10,-13 28,-2"
       id="path24"
       >
      <title
         id="title141">Vajrakarur</title>
    </path>
    <path
       d="m 2180,2907 c 0,-7 9,-21 21,-31 21,-17 22,-37 4,-78 -5,-13 0,-21 19,-29 37,-17 42,-44 14,-79 -19,-23 -31,-29 -64,-29 l -41,-1 8,-47 c 5,-26 14,-50 20,-54 12,-7 -9,-49 -24,-49 -12,0 -69,30 -87,45 -8,8 -34,15 -58,18 -23,2 -48,9 -54,15 -7,7 -20,12 -31,12 -25,0 -18,34 8,39 11,2 23,8 27,15 10,15 10,84 0,90 -4,2 -26,1 -50,-4 -35,-6 -40,-5 -31,6 6,8 24,14 39,14 16,0 30,7 34,16 7,19 -1,34 -18,34 -8,0 -19,7 -26,15 -7,8 -16,12 -21,9 -5,-3 -9,1 -9,9 0,19 75,38 123,32 20,-3 39,0 42,5 4,7 13,6 27,-1 16,-9 23,-7 35,11 12,17 21,20 44,15 18,-4 29,-3 29,4 0,6 5,11 10,11 6,0 10,-6 10,-13 z"
       id="path28"
       
       style="fill:#aabb55;stroke:none">
      <title
         id="title26">Peddavadugur</title>
    </path>
    <path
       d="m 327,2835 c 11,-11 23,-29 25,-40 3,-14 11,-19 26,-18 19,2 22,-2 22,-32 0,-29 4,-36 25,-41 14,-3 25,-12 25,-20 0,-7 9,-18 20,-24 11,-6 20,-20 20,-30 0,-11 4,-20 9,-20 5,0 11,-9 14,-20 3,-11 1,-20 -5,-20 -5,0 -24,-6 -41,-14 -18,-7 -51,-19 -74,-26 -24,-7 -43,-19 -43,-27 0,-17 82,-53 121,-53 24,0 29,-4 29,-24 0,-14 -4,-28 -10,-31 -20,-12 -10,-46 19,-63 23,-14 27,-21 20,-40 -9,-23 -24,-29 -34,-12 -9,15 -42,12 -49,-5 -7,-19 -23,-19 -60,0 -16,9 -36,13 -44,10 -7,-3 -22,0 -34,6 -18,10 -18,12 -4,28 19,21 20,38 4,44 -10,3 -10,7 -1,18 19,23 27,87 13,104 -10,12 -10,15 3,15 19,0 27,30 27,101 0,52 -2,57 -24,61 -14,3 -31,-1 -40,-10 -11,-11 -19,-12 -28,-5 -7,6 -31,14 -53,18 -67,11 -69,13 -35,42 28,23 31,30 25,62 -4,20 -10,40 -15,45 -10,10 5,67 21,77 14,8 96,-28 126,-56 z"
       id="path32"
       
       style="fill:#ccaa66;stroke:none">
      <title
         id="title30">D.Hirehal</title>
    </path>
    <path
       d="m 2648,2778 c 2,-14 19,-42 37,-63 27,-28 40,-36 57,-32 26,7 63,-16 54,-32 -4,-6 5,-13 21,-17 55,-12 84,-27 81,-42 -2,-9 -7,-15 -13,-15 -22,2 -44,-18 -50,-46 -3,-15 -15,-38 -26,-50 -26,-28 -19,-71 11,-71 23,0 24,-3 8,-33 -7,-12 -14,-24 -15,-26 -1,-2 -25,11 -53,28 -52,32 -75,38 -85,22 -8,-15 -76,-1 -108,20 -19,14 -32,17 -45,10 -25,-13 -52,5 -52,34 0,13 -6,25 -12,28 -10,3 -8,9 5,24 9,11 17,29 17,41 0,12 4,22 9,22 16,0 23,34 8,45 -8,6 -13,27 -13,51 1,35 4,40 20,36 11,-3 22,2 28,12 5,9 20,16 33,16 14,0 25,6 25,13 0,20 31,58 43,54 7,-2 13,-15 15,-29 z"
       id="path36"
       
       style="fill:#aabb00;stroke:none">
      <title
         id="title34">Tadipatri</title>
    </path>
    <path
       d="m 531,2754 c 21,-19 36,-18 63,4 16,12 36,16 68,14 38,-3 46,-8 55,-33 11,-27 43,-41 43,-18 0,5 5,7 11,4 6,-4 8,-26 4,-59 -7,-52 -7,-52 33,-79 33,-23 43,-26 66,-17 36,13 36,13 36,-10 0,-15 -12,-23 -52,-35 -66,-19 -75,-19 -103,3 -47,37 -122,-1 -109,-55 7,-28 -5,-29 -39,-3 -31,24 -45,25 -76,4 -20,-15 -30,-15 -80,-4 -31,7 -65,19 -76,26 -18,13 -17,14 13,14 23,0 31,4 26,12 -4,7 -3,8 4,4 6,-4 30,2 54,14 23,11 48,20 55,20 7,0 13,2 13,5 0,12 -24,55 -32,55 -4,0 -8,9 -8,20 0,11 -7,23 -15,26 -8,4 -15,15 -15,25 0,12 -7,19 -18,19 -25,0 -42,20 -42,48 0,24 2,24 52,18 29,-4 60,-14 69,-22 z"
       id="path40"
       
       style="fill:#ccaa33;stroke:none">
      <title
         id="title38">Bommanahal</title>
    </path>
    <path
       d="m 2467,2721 c 8,-15 11,-37 7,-59 -5,-27 -3,-38 10,-47 15,-11 15,-13 1,-19 -8,-3 -15,-16 -15,-29 0,-14 -7,-30 -15,-37 -18,-15 -20,-47 -3,-52 17,-6 0,-28 -21,-28 -12,0 -20,-10 -24,-28 -3,-16 -19,-42 -34,-59 -27,-29 -30,-30 -56,-17 -22,12 -27,22 -27,50 0,19 -9,53 -20,74 -16,32 -26,40 -48,40 -15,0 -33,-5 -39,-11 -6,-6 -16,-10 -22,-8 -6,2 7,28 29,58 22,29 40,57 40,62 0,5 11,9 24,9 17,0 34,12 52,35 25,33 54,47 54,25 0,-5 13,-10 29,-10 25,0 31,5 37,33 4,17 7,35 6,40 -5,17 23,0 35,-22 z"
       id="path44"
       
       style="fill:#aabb99;stroke:none">
      <title
         id="title42">Peddapappur</title>
    </path>
    <path
       d="m 1123,2704 c 54,-27 67,-43 60,-75 -4,-23 1,-34 28,-59 18,-16 39,-30 46,-30 6,0 19,-7 27,-16 18,-17 12,-64 -10,-77 -7,-4 -16,-21 -19,-38 -4,-17 -19,-53 -33,-80 -14,-28 -28,-67 -31,-87 -6,-36 -7,-37 -64,-46 -67,-11 -107,2 -107,34 0,19 -11,27 -65,45 l -20,7 20,10 c 11,5 28,25 38,45 l 18,36 -30,27 c -26,24 -29,33 -24,67 3,24 -1,53 -10,76 -17,40 -9,54 22,37 56,-29 89,-2 77,65 -5,27 -2,38 16,54 26,25 22,25 61,5 z"
       id="path48"
       
       style="fill:#aabb11;stroke:none">
      <title
         id="title46">Uravakonda</title>
    </path>
    <path
       d="m 1893,2567 c -3,-12 -9,-32 -15,-43 -15,-32 -6,-57 26,-73 l 30,-14 -28,-22 c -24,-19 -26,-25 -17,-44 10,-19 9,-21 -11,-18 -13,1 -26,6 -30,12 -4,5 -10,6 -14,2 -4,-3 -2,-13 5,-20 9,-12 5,-14 -26,-13 -30,1 -38,-3 -41,-19 -9,-61 -12,-65 -42,-65 -16,0 -32,-4 -35,-10 -3,-5 -22,-10 -41,-10 -24,0 -34,4 -34,16 0,17 -38,53 -56,54 -7,0 -14,8 -18,18 -5,17 -26,52 -36,62 -11,11 -40,69 -40,79 0,6 18,11 40,11 27,0 40,4 40,14 0,9 8,12 25,8 14,-2 31,0 38,5 6,6 32,13 56,17 28,4 53,16 67,31 17,18 34,25 61,25 21,0 46,7 56,15 25,18 46,9 40,-18 z"
       id="path52"
       
       style="fill:#aabb33;stroke:none">
      <title
         id="title50">Garladinne</title>
    </path>
    <path
       d="m 1934,2572 c 3,-5 23,-9 44,-10 37,-2 116,-38 155,-70 14,-12 26,-13 62,-5 45,10 65,3 65,-24 0,-7 5,-21 11,-32 14,-22 4,-84 -16,-101 -8,-7 -15,-25 -15,-41 0,-22 -5,-29 -19,-29 -11,0 -23,5 -26,10 -9,15 -25,12 -25,-5 0,-8 -7,-15 -15,-15 -8,0 -15,-5 -15,-10 0,-6 -15,-8 -37,-4 -21,3 -51,7 -68,9 -16,1 -33,3 -36,4 -4,0 -9,9 -11,19 -7,24 -46,25 -61,1 -14,-23 -27,-25 -27,-3 0,8 -4,13 -8,10 -4,-2 -13,11 -19,31 -10,33 -10,34 13,29 27,-7 39,7 25,31 -7,14 -5,23 10,39 23,25 17,47 -17,62 -27,13 -31,34 -9,52 8,7 15,23 15,36 0,23 14,32 24,16 z"
       id="path56"
       
       style="fill:#aabb88;stroke:none">
      <title
         id="title54">Singanamala</title>
    </path>
    <path
       d="m 943,2525 c 4,-8 3,-35 0,-61 -5,-43 -3,-50 22,-70 26,-21 26,-22 11,-51 -8,-17 -22,-33 -31,-36 -8,-4 -15,-15 -15,-26 0,-14 9,-21 36,-25 37,-7 54,-30 36,-48 -6,-6 -32,-9 -59,-8 -26,1 -60,3 -75,4 -16,0 -28,4 -28,9 0,7 -60,47 -71,47 -4,0 -19,-10 -34,-22 -20,-15 -39,-21 -62,-19 -19,1 -40,-2 -47,-8 -8,-7 -30,-9 -53,-5 -36,5 -38,8 -35,37 8,91 8,91 -23,106 -16,8 -24,16 -17,19 6,2 12,17 12,33 0,18 10,39 25,54 24,25 45,32 45,16 0,-13 57,-34 75,-28 10,5 13,15 9,36 -5,23 -2,32 14,40 31,16 53,13 78,-10 20,-19 27,-20 74,-10 29,6 61,18 73,26 27,19 33,19 40,0 z"
       id="path60"
       
       style="fill:#ccaa11;stroke:none">
      <title
         id="title58">Kanekal</title>
    </path>
    <path
       d="m 1460,2449 c 0,-11 11,-35 25,-53 14,-18 25,-40 25,-48 0,-9 7,-18 15,-22 8,-3 15,-11 15,-18 0,-7 15,-20 33,-28 20,-9 33,-24 35,-37 3,-19 10,-23 38,-23 35,0 35,-1 29,-32 -10,-46 -12,-48 -44,-42 -16,4 -32,1 -35,-5 -4,-6 -26,-11 -49,-11 -49,0 -62,-7 -71,-38 -4,-12 -12,-20 -17,-16 -5,3 -7,9 -4,14 2,4 -9,13 -26,20 -23,10 -33,10 -42,1 -6,-6 -37,-11 -69,-11 -32,0 -67,-6 -78,-12 -17,-11 -22,-10 -30,2 -12,19 -13,154 -1,178 22,46 51,110 61,140 12,30 16,32 59,33 25,0 62,7 81,14 48,18 50,18 50,-6 z"
       id="path64"
       
       style="fill:#aabb33;stroke:none">
      <title
         id="title62">Kudair</title>
    </path>
    <path
       d="m 2462,2424 c 18,-9 40,-13 55,-9 16,4 32,1 42,-8 19,-17 109,-29 117,-16 9,16 38,10 68,-14 22,-18 27,-28 22,-45 -9,-28 -83,-85 -101,-78 -8,3 -18,0 -22,-7 -7,-12 -5,-90 3,-118 7,-25 -24,-31 -57,-12 -22,13 -31,15 -41,5 -7,-7 -22,-12 -34,-12 -40,0 -56,-58 -24,-90 l 20,-20 h -50 c -54,0 -56,2 -50,81 1,17 -6,32 -20,42 -22,15 -26,37 -15,73 4,14 1,27 -8,35 -11,10 -12,18 -3,31 8,13 8,23 -1,37 -10,16 -7,24 22,56 20,21 35,47 35,61 0,28 2,29 42,8 z"
       id="path68"
       
       style="fill:#aabb33;stroke:none">
      <title
         id="title66">Putlur</title>
    </path>
    <path
       d="m 2344,2303 c 13,-18 15,-28 7,-36 -16,-16 -14,-38 6,-52 13,-10 15,-16 6,-26 -17,-21 -11,-69 8,-69 20,0 33,-28 20,-44 -5,-6 -5,-20 0,-31 4,-11 8,-23 8,-27 1,-13 -27,-9 -31,3 -3,9 -10,9 -26,0 -18,-9 -22,-21 -22,-57 v -46 l -32,6 c -90,19 -96,18 -117,-3 -25,-25 -92,-31 -71,-6 20,24 4,45 -32,45 -30,0 -31,1 -16,17 10,9 34,18 55,20 20,2 39,5 41,7 1,2 6,21 9,42 3,22 11,46 17,54 15,19 19,71 7,88 -4,8 -24,18 -42,22 -32,7 -32,8 -7,9 15,1 33,9 39,19 8,13 20,17 45,14 32,-4 34,-3 34,28 0,21 8,38 22,50 25,20 41,14 72,-27 z"
       id="path72"
       
       style="fill:#aabb44;stroke:none">
      <title
         id="title70">Narpala</title>
    </path>
    <path
       d="m 1857,2307 c 7,-5 11,-13 8,-17 -3,-5 2,-15 10,-23 8,-9 15,-20 15,-26 0,-18 19,-12 32,9 7,11 23,20 36,20 13,0 21,-4 18,-9 -10,-16 18,-29 63,-29 31,-1 49,-7 63,-21 10,-12 29,-21 42,-21 30,0 39,-38 20,-76 -8,-14 -14,-34 -14,-44 0,-37 -12,-50 -46,-50 -18,0 -39,-6 -46,-13 -7,-8 -20,-12 -30,-9 -9,2 -27,-5 -39,-16 -31,-30 -59,-11 -59,40 0,36 -2,38 -38,44 l -38,6 3,56 c 3,52 1,57 -32,89 -19,18 -39,33 -44,33 -5,0 -4,17 1,40 10,36 13,39 37,34 14,-4 32,-11 38,-17 z"
       id="path76"
       
       style="fill:#aabb33;stroke:none">
      <title
         id="title74">Bukkarayasamudram</title>
    </path>
    <path
       d="m 306,2278 c 24,-14 39,-18 41,-11 3,8 12,7 31,-3 35,-18 57,-18 76,1 13,13 18,13 45,-2 25,-15 29,-22 24,-46 -5,-24 -3,-28 13,-26 10,2 29,-1 42,-5 15,-5 31,-2 47,8 13,9 35,14 47,12 13,-3 29,-5 37,-5 11,-1 10,-6 -3,-26 -20,-30 -20,-48 -2,-84 28,-54 -8,-91 -88,-91 -26,0 -35,7 -58,44 -17,28 -23,46 -16,48 16,6 2,37 -18,45 -20,7 -44,-21 -44,-52 0,-39 -77,-62 -124,-38 -16,9 -42,17 -56,18 -28,2 -63,12 -101,28 l -27,11 19,35 c 24,46 24,72 -1,94 -24,20 -17,43 18,56 41,15 58,13 98,-11 z"
       id="path80"
       
       style="fill:#ccaa3f;stroke:none">
      <title
         id="title78">Rayadurg</title>
    </path>
    <path
       d="m 2750,2225 c 22,-7 26,-35 9,-52 -15,-15 30,-57 84,-79 41,-18 45,-34 24,-94 -11,-31 -16,-35 -47,-35 -32,0 -35,-3 -50,-45 -12,-34 -24,-49 -50,-62 -30,-15 -34,-22 -32,-49 3,-28 2,-30 -20,-23 -21,6 -33,8 -75,13 -9,1 -10,8 -3,25 6,17 5,26 -3,29 -9,3 -9,12 0,41 12,39 8,66 -9,66 -6,0 -28,18 -50,41 -47,48 -51,92 -8,97 14,2 29,8 34,12 5,5 15,2 24,-6 8,-9 28,-14 46,-12 l 31,3 -1,73 c 0,69 1,72 23,72 13,0 23,5 23,11 0,6 7,4 15,-5 8,-8 24,-18 35,-21 z"
       id="path84"
       
       style="fill:#aabb00;stroke:none">
      <title
         id="title82">Yellanur</title>
    </path>
    <path
       d="m 814,2215 c 22,-24 32,-26 137,-31 63,-2 121,-5 129,-6 8,-1 36,2 63,7 l 47,7 v -50 c 0,-28 3,-57 6,-66 4,-11 0,-16 -13,-16 -32,0 -35,-12 -11,-38 16,-17 19,-26 11,-29 -16,-6 -17,-35 -2,-50 13,-13 5,-18 -37,-27 -34,-8 -46,5 -48,54 -1,21 -6,25 -38,28 -32,3 -38,0 -38,-17 0,-28 -16,-35 -42,-17 -12,9 -34,16 -48,16 -14,0 -30,4 -36,9 -14,14 -104,25 -104,13 0,-14 -58,-21 -63,-8 -2,6 -3,25 -1,41 1,17 -5,47 -13,67 -15,35 -14,38 6,64 11,15 21,34 21,44 0,38 41,41 74,5 z"
       id="path88"
       
       style="fill:#ccaa22;stroke:none">
      <title
         id="title86">Beluguppa</title>
    </path>
    <path
       d="m 1790,2219 c 0,-12 4,-17 11,-14 5,4 19,-1 29,-10 16,-15 19,-28 15,-75 l -4,-58 39,-6 c 37,-6 39,-8 42,-48 3,-37 7,-44 32,-53 24,-8 31,-6 45,12 17,20 18,20 29,2 8,-12 24,-19 42,-19 29,0 40,-13 20,-25 -5,-3 -10,-17 -10,-31 0,-17 -5,-24 -20,-24 -12,0 -25,-13 -36,-35 -14,-29 -21,-35 -45,-33 -16,1 -29,6 -29,10 0,4 0,10 0,13 1,3 -6,13 -15,21 -11,12 -25,14 -51,9 -34,-6 -35,-5 -29,17 4,13 11,27 16,33 5,5 9,26 9,47 0,44 -11,52 -79,53 -42,0 -45,-2 -53,-35 -13,-47 -23,-56 -44,-39 -13,11 -18,11 -21,2 -7,-20 -40,-15 -46,6 -2,10 0,26 6,36 14,26 -12,42 -81,51 l -55,7 24,18 c 13,10 29,19 35,19 6,0 18,15 27,34 13,29 21,34 47,33 28,-2 33,2 45,36 7,21 14,41 15,45 1,4 8,6 16,4 8,-2 22,2 32,7 27,16 42,13 42,-10 z"
       id="path92"
       
       style="fill:#aabb11;stroke:none">
      <title
         id="title90">Anantapur</title>
    </path>
    <path
       d="m 1574,2112 c 7,-11 -5,-25 -39,-44 -48,-27 -43,-44 14,-51 66,-8 96,-24 81,-42 -6,-8 -10,-24 -8,-37 4,-27 41,-37 64,-17 14,11 15,9 12,-16 -3,-33 -56,-71 -65,-47 -7,17 -62,15 -69,-3 -5,-12 -10,-13 -20,-4 -11,9 -22,7 -48,-5 -19,-9 -54,-17 -77,-18 -24,-1 -55,-7 -69,-15 -14,-7 -30,-13 -37,-13 -18,0 -27,65 -14,101 16,45 14,49 -17,49 -19,0 -36,9 -52,28 -12,15 -32,38 -44,51 -11,13 -15,21 -7,16 9,-5 18,-3 25,6 19,25 65,39 124,39 32,0 63,5 69,11 9,9 18,5 36,-15 30,-32 44,-33 53,-3 4,12 12,25 18,29 15,10 64,10 70,0 z"
       id="path96"
       
       style="fill:#aabb77;stroke:none">
      <title
         id="title94">Atmakur</title>
    </path>
    <path
       d="m 2429,1993 c 64,-4 121,-20 121,-34 0,-5 7,-9 15,-9 16,0 19,-20 9,-57 -5,-18 -11,-22 -28,-17 -27,6 -50,-17 -42,-43 4,-13 -3,-23 -25,-36 -28,-15 -31,-21 -26,-51 l 5,-34 -31,9 c -47,13 -87,11 -93,-6 -9,-23 -48,-18 -59,7 -6,14 -24,26 -47,31 -45,11 -54,31 -28,67 23,32 26,50 7,50 -7,0 -18,5 -25,12 -9,9 -8,16 5,30 18,20 48,24 58,8 3,-5 24,-10 46,-10 38,0 39,1 39,35 0,37 18,67 34,57 5,-3 35,-7 65,-9 z"
       id="path100"
       
       style="fill:#ddaa88;stroke:none">
      <title
         id="title98">Tadimarri</title>
    </path>
    <path
       d="m 717,1984 c 3,-9 1,-19 -4,-23 -15,-9 -13,-89 3,-102 17,-14 9,-27 -22,-39 -20,-8 -24,-16 -24,-54 0,-49 -13,-65 -36,-45 -11,9 -18,8 -32,-5 -12,-10 -36,-16 -71,-16 -29,0 -62,-5 -73,-11 -14,-8 -23,-8 -31,0 -14,14 -43,14 -67,-1 -16,-11 -22,-9 -34,7 -9,11 -16,26 -16,33 0,8 -10,22 -22,31 -23,19 -18,41 11,41 10,0 29,16 42,35 20,29 29,34 50,30 21,-5 27,-1 40,27 11,25 25,37 59,48 25,8 56,22 70,30 22,12 78,25 133,29 10,0 20,-6 24,-15 z"
       id="path104"
       
       style="fill:#ccaa55;stroke:none">
      <title
         id="title102">Brahmasamudram</title>
    </path>
    <path
       d="m 897,1973 c 12,-8 30,-13 41,-11 10,2 26,-3 35,-11 21,-17 69,-7 61,13 -3,8 -1,17 4,20 18,11 42,-5 42,-28 0,-11 8,-31 18,-43 16,-21 20,-22 56,-11 38,12 57,34 40,47 -15,10 -14,29 1,34 7,3 20,-5 29,-19 11,-16 26,-24 45,-24 29,0 29,-1 19,-36 -12,-46 -1,-111 23,-135 10,-10 19,-22 19,-25 0,-6 -56,1 -92,12 -14,4 -18,-1 -18,-25 v -31 l -20,20 c -12,12 -33,20 -53,20 -21,0 -41,-8 -52,-20 -12,-13 -31,-20 -56,-20 -30,0 -42,-6 -59,-30 -12,-16 -30,-30 -40,-30 -9,0 -20,-9 -23,-21 -5,-19 -7,-20 -30,-4 -23,15 -28,15 -56,1 -33,-18 -69,-20 -90,-7 -12,8 -11,16 6,53 11,23 23,67 26,96 6,48 4,55 -25,88 -51,58 -36,134 26,134 12,0 27,4 34,9 17,10 60,2 89,-16 z"
       id="path108"
       
       style="fill:#ccaa22;stroke:none">
      <title
         id="title106">Kalyandurg</title>
    </path>
    <path
       d="m 1845,1990 c 19,0 24,-59 9,-89 -8,-14 -14,-34 -14,-45 0,-16 5,-18 38,-12 35,5 40,3 50,-19 10,-21 9,-27 -3,-31 -20,-8 -20,-54 0,-54 8,0 15,-2 15,-4 0,-2 3,-11 6,-19 7,-18 -24,-31 -42,-16 -17,14 -48,-2 -70,-37 -11,-17 -22,-23 -35,-19 -10,3 -27,1 -39,-5 -12,-6 -20,-7 -20,-1 0,5 -15,11 -32,13 -24,2 -34,9 -36,23 -6,32 -19,38 -43,21 -13,-9 -29,-16 -35,-16 -22,0 -40,56 -34,111 6,63 25,80 65,59 23,-12 30,-12 53,1 15,8 28,24 30,36 2,11 11,23 22,26 11,3 21,18 25,38 10,48 14,52 47,45 17,-3 36,-6 43,-6 z"
       id="path112"
       
       style="fill:#ddaa44;stroke:none">
      <title
         id="title110">Raptadu</title>
    </path>
    <path
       d="m 2170,1875 c 7,-8 19,-15 27,-15 11,0 10,-7 -6,-29 -12,-16 -21,-36 -21,-44 0,-19 47,-57 71,-57 10,0 20,-9 24,-19 3,-10 18,-22 33,-26 21,-5 30,-2 41,14 15,24 36,26 74,9 31,-15 33,-25 10,-50 -14,-15 -15,-26 -7,-56 15,-59 8,-78 -37,-95 -39,-16 -40,-15 -49,8 -10,26 -38,45 -68,45 -23,0 -39,17 -44,45 -3,22 -47,57 -60,49 -20,-12 -48,-12 -48,0 0,22 -23,59 -58,94 -17,18 -32,37 -32,42 0,21 37,70 53,70 9,0 17,7 17,15 0,10 10,15 34,15 18,0 39,-7 46,-15 z"
       id="path116"
       
       style="fill:#ddaa77;stroke:none">
      <title
         id="title114">Bathalapalle</title>
    </path>
    <path
       style="fill:#ddaabb;stroke:none"
       d="m 2916.5302,1429.002 c 46.1862,-36.8874 87.5425,-71.0747 100.4698,-84.002 8,-8 20,-15 27,-15 8,0 19,-7 26,-15 7,-8 22,-15 34,-15 11,0 41,-7 66,-16 28,-10 69,-14 111,-13 45,3 72,-1 83,-10 10,-9 29,-12 51,-8 l 34,6 -13,-32 c -23,-55 -38,-108 -32,-114 13,-14 -33,-32 -79,-33 -68,0 -95,-9 -95,-30 0,-24 -33,-31 -92,-20 -58,11 -68,16 -68,35 0,11 -20,25 -36,25 -2,0 -14,-15 -25,-32 l -20,-33 6,43 7,42 h -41 c -34,0 -41,-3 -41,-19 0,-28 -13,-33 -39,-14 -19,13 -22,22 -17,52 9,58 -3,107 -30,120 -49,22 -16,112 55,151 12,6 21,15 21,20"
       id="path262"
       >
      <title
         id="title135">Talupula</title>
    </path>
    <path
       style="fill:#ddaabb;stroke:none"
       d="m 2910,1420 c 0,17 -58,-24 -75,-53 -15,-24 -65,-47 -79,-36 -3,2 -12,-5 -20,-16 -12,-17 -12,-23 2,-50 14,-26 43,-117 39,-122 -1,0 -13,-3 -27,-5 -22,-3 -25,1 -28,34 -2,29 -8,37 -25,40 -18,2 -22,10 -22,43 -1,43 -21,105 -35,105 -23,0 -43,-16 -60,-51 -19,-37 -50,-56 -70,-44 -14,9 -12,37 5,78 18,44 19,91 3,105 -7,5 -28,13 -46,17 -40,8 -61,-13 -62,-62 0,-40 -22,-36 -45,10 -26,51 -20,72 23,85 48,15 67,49 50,89 -15,36 -12,49 19,90 22,29 24,37 14,59 -13,30 -8,42 26,55 21,8 24,14 18,36 -4,16 -2,29 6,34 14,8 46,-9 53,-28 3,-7 1,-15 -4,-18 -13,-8 -13,-65 0,-65 5,0 16,-13 24,-28 21,-41 120,-140 192,-192 32.1791,-23.6315 83.8242,-63.6954 130.5302,-100.998"
       id="path120"
       >
      <title
         id="title131">Mudigubba</title>
    </path>
    <path
       d="m 1544,1818 c 2,-18 4,-50 3,-71 0,-21 4,-41 10,-45 6,-4 14,-18 18,-31 4,-13 10,-20 14,-15 5,9 56,34 66,34 3,0 5,-11 5,-24 0,-27 18,-37 49,-29 12,3 21,1 21,-6 0,-13 36,-15 44,-2 3,4 16,6 28,4 17,-3 29,4 46,26 12,17 30,31 40,31 13,0 14,-2 4,-9 -8,-4 -12,-14 -11,-22 1,-8 0,-21 -4,-29 -3,-8 -11,-36 -18,-62 -7,-27 -18,-48 -23,-48 -6,0 -6,-4 0,-10 6,-6 44,-16 85,-23 l 74,-13 -57,-18 c -56,-18 -58,-18 -90,1 -18,11 -53,26 -77,33 -40,13 -44,13 -58,-6 -8,-10 -19,-18 -25,-16 -6,2 -18,-3 -27,-11 -36,-29 -66,-36 -98,-20 -28,13 -30,18 -26,54 6,38 5,39 -25,39 -17,0 -38,-7 -47,-16 -12,-13 -27,-15 -65,-10 -31,4 -49,3 -52,-4 -2,-6 -22,-13 -46,-15 -23,-2 -46,-6 -52,-10 -15,-9 -12,70 4,109 8,19 24,37 35,41 12,3 21,11 21,16 0,6 5,7 10,4 6,-3 10,3 10,15 0,12 7,28 15,36 13,14 13,19 0,44 -8,16 -15,34 -15,40 0,11 48,35 64,31 15,-3 117,22 122,31 11,17 23,7 28,-24 z"
       id="path124"
       
       style="fill:#ddaa02;stroke:none">
      <title
         id="title122">Kanaganapalle</title>
    </path>
    <path
       d="m 761,1769 c -1,-28 -10,-69 -21,-92 -11,-22 -20,-51 -20,-64 0,-20 5,-23 42,-23 h 42 l -27,-28 c -19,-19 -27,-39 -27,-63 0,-37 -27,-69 -58,-69 -10,0 -29,11 -42,25 -31,33 -41,32 -88,-11 -45,-40 -58,-74 -40,-103 7,-11 10,-23 7,-26 -10,-9 -39,6 -39,21 0,8 -10,14 -25,14 -14,0 -25,5 -25,10 0,6 -8,10 -17,10 -26,1 -55,46 -61,96 -4,38 -2,44 14,44 26,1 54,24 54,43 0,11 5,14 15,11 20,-8 45,13 45,37 0,12 7,19 18,19 12,0 23,13 32,36 12,30 18,34 38,29 14,-3 21,-2 18,4 -8,13 24,23 38,12 22,-19 46,13 46,63 0,38 3,46 19,46 10,0 24,7 31,15 21,25 33,2 31,-56 z"
       id="path128"
       
       style="fill:#ccaa22;stroke:none">
      <title
         id="title126">Settur</title>
    </path>
    <path
       d="m 2037,1742 c 37,-35 53,-59 58,-85 8,-42 6,-41 38,-26 32,15 62,-2 72,-38 7,-31 32,-63 49,-63 6,0 4,5 -4,10 -17,11 -6,13 27,4 28,-8 60,-61 59,-97 -1,-15 2,-27 6,-27 5,0 14,-11 20,-25 6,-13 19,-27 30,-30 20,-7 22,-13 8,-35 -8,-12 -11,-12 -28,3 -24,22 -47,22 -71,-2 -17,-17 -21,-18 -32,-5 -6,8 -20,14 -29,14 -10,0 -28,12 -39,28 -11,15 -21,21 -21,15 0,-9 -19,-13 -62,-13 -40,0 -58,4 -49,9 15,10 11,19 -33,73 -19,23 -40,38 -53,38 -12,0 -44,5 -72,11 l -50,10 14,46 c 7,25 11,51 8,59 -3,8 0,14 7,14 7,0 10,8 7,20 -4,17 0,22 24,27 36,7 56,38 38,59 -6,8 -18,14 -25,14 -20,0 -17,28 4,33 38,10 50,5 99,-41 z"
       id="path132"
       
       style="fill:#ddaa33;stroke:none">
      <title
         id="title130">Dharmavaram</title>
    </path>
    <path
       d="m 1298,1730 c 41,-10 58,-30 26,-30 -11,0 -14,-6 -9,-20 5,-15 -2,-25 -29,-41 -37,-22 -50,-49 -62,-132 -5,-39 -3,-52 12,-68 18,-20 18,-21 1,-34 -27,-19 -18,-56 18,-75 63,-32 59,-50 -9,-50 -78,0 -82,3 -77,56 4,61 -8,72 -51,46 -43,-26 -122,-23 -172,6 -20,12 -43,19 -51,16 -25,-10 -18,30 10,54 43,38 29,72 -30,72 -14,0 -31,11 -43,28 -20,28 -20,28 0,44 20,16 23,16 50,0 29,-16 30,-16 48,6 10,12 22,22 27,22 5,0 19,14 31,30 18,24 30,30 59,30 24,0 45,8 59,21 28,26 83,18 91,-12 8,-29 28,-17 31,19 2,18 8,29 15,27 7,-2 31,-9 55,-15 z"
       id="path136"
       
       style="fill:#ccaa11;stroke:none">
      <title
         id="title134">Kambadur</title>
    </path>
    <path
       d="m 870,1520 c 15,0 33,-6 40,-14 9,-12 7,-19 -13,-36 -16,-14 -27,-37 -32,-65 -3,-24 -16,-56 -28,-72 -17,-21 -22,-42 -23,-88 -1,-53 -4,-62 -26,-74 -24,-14 -27,-12 -63,23 -33,34 -40,36 -64,27 -14,-6 -61,-9 -104,-8 -75,2 -78,4 -96,33 l -19,31 32,11 c 18,7 41,12 50,12 15,0 17,5 12,28 -13,50 -7,67 34,104 l 42,37 31,-29 c 32,-30 87,-39 87,-15 0,5 9,16 21,23 16,11 20,20 16,42 -5,20 0,36 15,55 l 21,28 20,-27 c 12,-17 28,-26 47,-26 z"
       id="path140"
       
       style="fill:#ccaa11;stroke:none">
      <title
         id="title138">Kundurpi</title>
    </path>
    <path
       d="m 1525,1481 c -6,-36 -4,-39 30,-60 33,-19 38,-20 58,-6 12,8 29,15 39,15 10,0 18,5 18,10 0,6 11,10 25,10 14,0 29,8 35,20 6,11 15,20 21,20 6,0 8,-4 5,-9 -3,-5 12,-11 34,-15 26,-4 40,-12 40,-21 0,-11 11,-15 38,-15 l 37,-1 -24,-20 c -14,-11 -30,-30 -36,-42 -8,-17 -21,-23 -58,-25 -34,-2 -50,-8 -54,-20 -4,-9 -15,-29 -25,-44 -16,-23 -24,-26 -56,-21 -20,2 -51,12 -68,20 -20,10 -38,13 -50,8 -39,-17 -44,-14 -44,22 0,46 -45,93 -89,93 -26,0 -34,-6 -48,-36 -14,-28 -15,-39 -5,-54 7,-11 12,-25 12,-31 0,-6 11,-20 25,-31 19,-15 23,-25 18,-48 -3,-19 -1,-30 6,-30 14,0 15,-37 0,-45 -5,-4 -21,-4 -35,-1 -19,5 -24,11 -19,26 4,13 -1,24 -19,35 -20,13 -24,22 -20,48 3,18 -2,48 -10,70 -13,29 -22,37 -41,37 -28,0 -34,26 -13,60 10,16 10,24 1,39 -11,17 -9,21 10,27 12,4 34,7 49,5 14,-1 29,2 33,8 3,6 30,11 58,11 30,0 60,7 71,15 11,8 28,15 39,15 16,0 18,-5 12,-39 z"
       id="path144"
       
       style="fill:#ddaa00;stroke:none">
      <title
         id="title142">Ramagiri</title>
    </path>
    <path
       d="m 2053,1382 c -5,-21 -2,-22 65,-22 48,0 73,-4 82,-14 6,-8 21,-16 32,-18 30,-4 59,-48 52,-75 -7,-26 -32,-31 -40,-8 -4,9 -19,15 -35,15 -16,0 -38,6 -49,13 -14,8 -23,9 -28,2 -16,-23 -60,-43 -84,-38 -17,3 -40,-4 -68,-22 -34,-22 -61,-29 -143,-36 -103,-10 -127,-19 -127,-48 0,-47 -67,-56 -99,-15 -21,27 -26,68 -15,112 6,22 10,23 54,17 45,-6 48,-5 73,29 15,19 27,40 27,47 0,8 14,10 44,7 40,-5 45,-3 58,21 19,38 68,82 112,101 l 40,16 27,-31 c 19,-22 26,-38 22,-53 z"
       id="path148"
       
       style="fill:#ddaa00;stroke:none">
      <title
         id="title146">ChenneKothaPalle - C.K.Palle</title>
    </path>
    <path
       d="m 2510,1434 c 12,-12 12,-20 1,-56 -23,-75 -25,-117 -7,-124 32,-12 65,6 86,46 11,22 27,40 35,40 19,0 38,-45 36,-83 -1,-15 3,-36 8,-46 14,-26 -5,-41 -52,-41 -29,0 -48,-8 -74,-30 -18,-16 -40,-30 -47,-30 -8,0 -28,-17 -44,-37 l -30,-38 -46,33 c -54,37 -75,40 -99,12 -17,-20 -17,-20 -57,1 -44,23 -60,41 -42,47 7,2 12,12 12,23 0,24 28,25 46,2 11,-15 16,-16 31,-5 10,6 28,16 41,22 29,12 28,24 -3,38 -22,10 -24,15 -15,32 6,12 8,30 5,40 -5,16 -3,19 12,13 16,-6 16,-5 4,10 -12,15 -10,18 10,26 18,6 31,4 52,-11 23,-17 30,-18 43,-7 12,10 15,24 10,61 -8,61 8,91 44,83 14,-4 32,-13 40,-21 z"
       id="path152"
       
       style="fill:#aa33ff;stroke:none">
      <title
         id="title150">Bukkapatnam</title>
    </path>
    <path
       d="m 2800,1286 c 0,-34 24,-71 40,-61 12,8 21,-74 10,-95 -14,-25 7,-70 32,-70 11,0 16,-4 13,-10 -3,-5 -2,-10 2,-10 15,0 33,23 33,42 0,20 4,21 37,12 13,-4 20,-10 17,-15 -11,-18 -14,-88 -4,-94 5,-3 10,-17 10,-31 0,-17 8,-27 25,-34 38,-15 30,-20 -19,-14 -42,6 -44,5 -39,-15 5,-20 3,-21 -41,-15 l -46,7 v -32 c 0,-19 -6,-34 -15,-37 -8,-4 -15,-12 -15,-20 0,-26 -16,-14 -25,19 -7,22 -17,33 -32,35 -14,2 -20,8 -16,18 3,10 0,12 -10,9 -12,-5 -13,0 -4,34 9,34 8,43 -6,59 -23,25 -12,54 17,47 34,-8 52,9 39,37 -6,13 -14,53 -17,91 -3,37 -12,82 -20,100 -21,49 -27,69 -17,62 5,-3 12,-1 16,5 15,24 35,9 35,-24 z"
       id="path156"
       
       style="fill:#9999ff;stroke:none">
      <title
         id="title154">Kadiri</title>
    </path>
    <path
       d="m 2235,1230 c 11,-10 30,-21 43,-25 27,-8 28,-16 3,-37 -17,-14 -22,-14 -38,-3 -45,35 -87,5 -81,-58 2,-26 -1,-33 -17,-35 -11,-1 -28,-16 -37,-32 -9,-17 -24,-30 -33,-30 -11,0 -15,-10 -15,-38 0,-21 -6,-47 -14,-57 -14,-19 -15,-19 -35,-1 -12,11 -31,24 -44,31 -26,13 -26,52 0,96 20,33 10,79 -17,86 -26,7 -25,25 3,49 34,31 76,48 107,46 15,-1 38,6 51,17 29,24 92,19 124,-9 z"
       id="path160"
       
       style="fill:#ffff60;stroke:none">
      <title
         id="title158">Kothacheruvu</title>
    </path>
    <path
       d="m 2745,1125 c 27,0 30,-4 37,-44 9,-54 6,-59 -32,-53 -27,4 -30,2 -30,-24 0,-15 7,-35 16,-45 13,-15 14,-23 4,-53 -6,-20 -9,-40 -6,-45 13,-20 -16,-22 -37,-3 -33,30 -64,36 -92,18 -23,-15 -24,-15 -45,22 -20,35 -24,37 -63,34 -40,-3 -43,-1 -59,36 -10,21 -18,42 -18,45 0,13 35,47 48,47 7,0 11,4 8,9 -3,4 11,17 31,27 20,10 46,29 59,42 17,16 35,22 66,22 34,0 46,5 58,23 14,22 15,21 20,-18 5,-37 8,-40 35,-40 z"
       id="path164"
       
       style="fill:#aa55ff;stroke:none">
      <title
         id="title162">Nallamada</title>
    </path>
    <path
       d="m 1920,1139 c 0,-24 4,-30 15,-25 10,4 19,-3 26,-18 9,-18 7,-30 -10,-57 -12,-19 -21,-47 -21,-62 0,-30 24,-62 39,-53 5,3 14,0 20,-8 9,-10 8,-15 -4,-20 -8,-3 -15,-15 -15,-26 0,-27 -27,-80 -41,-80 -6,0 -8,3 -6,8 3,4 -18,8 -47,8 -48,2 -53,0 -69,-28 l -17,-30 -26,21 c -38,30 -78,28 -92,-4 -16,-35 -34,-40 -76,-20 -52,25 -47,66 9,79 87,20 141,55 105,68 -5,2 -3,22 7,49 16,43 16,48 0,81 -21,44 -22,78 -3,78 9,0 12,7 9,18 -9,35 20,45 140,50 l 57,2 z"
       id="path168"
       
       style="fill:#ffff90;stroke:none">
      <title
         id="title166">Penkonda</title>
    </path>
    <path
       d="m 565,1080 h 60 l -2,-60 c -1,-33 -4,-69 -8,-79 -3,-10 0,-25 8,-32 7,-8 13,-30 12,-49 v -35 h 60 60 l -2,-33 c -2,-46 -27,-63 -85,-59 -50,4 -58,-4 -58,-60 0,-25 -1,-26 -23,-17 -9,3 -13,13 -10,25 7,24 -32,69 -59,69 -10,0 -18,5 -18,10 0,6 -4,10 -10,10 -18,0 -48,33 -43,46 3,9 20,14 43,14 22,0 42,5 45,11 13,20 -6,58 -39,79 -23,14 -36,30 -38,48 -3,27 -5,28 -69,31 -22,1 -25,5 -22,25 3,13 10,23 16,23 38,-3 86,17 91,36 4,17 8,19 18,9 7,-7 38,-12 73,-12 z"
       id="path172"
       
       style="fill:#ff66ff;stroke:none">
      <title
         id="title170">Amarapuram</title>
    </path>
    <path
       d="m 3460,1087 c 0,-7 -5,-18 -11,-24 -16,-16 -7,-65 16,-77 35,-20 51,-47 47,-77 -2,-16 -9,-29 -16,-29 -7,0 -12,-27 -14,-74 -2,-73 -2,-74 25,-81 l 28,-7 -24,-19 c -13,-10 -29,-19 -37,-19 -8,0 -14,-5 -14,-11 0,-15 -20,-32 -62,-51 -35,-16 -38,-16 -47,0 -9,15 -11,15 -28,1 -24,-21 -53,-31 -53,-18 0,6 -12,9 -27,7 -28,-3 -28,-3 -29,62 -1,89 -1,87 -29,112 -14,12 -25,25 -25,30 0,4 11,8 25,8 16,0 25,6 25,15 0,8 5,15 10,15 6,0 10,-13 10,-30 0,-19 5,-30 14,-30 23,0 37,27 42,81 6,57 -9,105 -37,129 -16,13 -17,19 -6,40 11,22 19,25 73,26 40,0 68,6 84,17 29,20 60,22 60,4 z"
       id="path176"
       
       style="fill:#99ffff;stroke:none">
      <title
         id="title174">NambuliPuliKunta - N.P.Kunta</title>
    </path>
    <path
       d="m 2394,1039 c 8,-7 26,-50 42,-99 3,-9 -4,-26 -15,-39 -15,-17 -21,-38 -21,-73 v -49 l -30,16 c -16,8 -35,15 -43,15 -21,0 -46,32 -53,68 -8,38 -28,41 -50,7 -9,-13 -24,-27 -34,-30 -10,-3 -28,-14 -40,-25 -13,-11 -31,-20 -41,-20 -10,0 -21,-4 -24,-10 -3,-5 -16,-10 -29,-10 -12,0 -27,-5 -34,-12 -18,-18 -66,7 -57,30 4,9 13,31 19,47 12,33 26,46 38,39 5,-3 17,-2 28,1 16,5 20,15 20,55 0,43 3,49 22,52 13,2 29,15 36,31 7,15 21,27 31,27 9,0 22,5 29,12 8,8 15,8 27,-2 24,-20 62,-20 81,1 17,18 18,18 53,-3 20,-12 40,-25 45,-29 z"
       id="path180"
       
       style="fill:#ffff50;stroke:none">
      <title
         id="title178">Puttaparthi</title>
    </path>
    <path
       d="m 1690,1053 c 6,-16 14,-35 19,-43 10,-17 -6,-82 -23,-92 -8,-5 -8,-12 0,-25 9,-14 6,-20 -15,-32 -14,-8 -46,-17 -71,-20 -42,-6 -45,-8 -48,-39 -3,-27 -7,-32 -23,-27 -25,8 -25,-18 -1,-53 34,-49 35,-62 4,-62 -15,0 -37,-3 -49,-6 -15,-4 -23,-2 -23,6 0,23 -29,40 -69,40 -45,0 -45,-1 -32,33 9,22 6,25 -40,37 -28,8 -53,18 -55,22 -10,16 8,48 26,48 20,0 83,72 94,108 6,19 4,22 -18,22 -13,0 -36,-4 -50,-10 -21,-7 -26,-6 -26,5 0,9 10,15 25,15 15,0 25,6 25,14 0,7 9,16 20,19 12,3 20,14 20,27 0,20 4,22 48,16 49,-6 70,-9 137,-21 37,-6 42,-4 55,19 19,36 57,35 70,-1 z"
       id="path184"
       
       style="fill:#ffff11;stroke:none">
      <title
         id="title182">Roddam</title>
    </path>
    <path
       d="m 3063,1050 c 6,-23 14,-27 90,-35 31,-4 55,-11 52,-16 -12,-18 7,-30 20,-13 11,16 15,14 35,-25 16,-33 19,-49 12,-65 -5,-12 -7,-33 -5,-47 2,-15 -3,-32 -12,-39 -13,-11 -15,-8 -15,19 0,34 -19,41 -40,16 -7,-8 -21,-15 -31,-15 -29,0 -23,-31 11,-63 28,-27 40,-57 22,-57 -5,0 -8,-16 -7,-36 1,-33 -1,-35 -25,-30 -98,20 -100,21 -100,87 0,32 -6,52 -20,67 -26,27 -50,28 -50,2 0,-13 -7,-20 -19,-20 -14,0 -21,10 -26,37 -4,24 -3,39 4,41 6,2 11,13 11,24 0,18 4,19 40,13 36,-6 40,-5 40,14 0,14 -6,21 -19,21 -20,0 -37,32 -27,49 3,5 -1,12 -10,15 -12,5 -10,12 13,41 32,40 48,44 56,15 z"
       id="path188"
       
       style="fill:#bbffff;stroke:none">
      <title
         id="title186">Gandlapenta</title>
    </path>
    <path
       d="m 2554,878 c 22,-43 35,-47 54,-17 9,15 19,18 35,13 39,-12 57,-35 57,-75 0,-28 5,-39 19,-44 12,-4 21,-19 25,-44 8,-50 -1,-76 -20,-60 -8,6 -14,18 -14,25 0,14 -25,22 -68,22 -13,1 -37,-11 -54,-26 -16,-15 -38,-26 -47,-24 -11,2 -23,-8 -32,-25 -8,-15 -28,-43 -45,-60 l -31,-33 -22,23 c -17,19 -22,37 -23,95 0,41 4,77 11,85 6,8 12,33 14,56 1,22 6,41 10,41 5,0 6,9 2,20 -4,12 1,30 12,45 15,20 25,25 58,23 34,-3 42,-8 59,-40 z"
       id="path192"
       
       style="fill:#ff22ff;stroke:none">
      <title
         id="title190">O.D.Cheruvu</title>
    </path>
    <path
       style="fill:#ffff30;stroke:none"
       d="m 1943.8529,765.30123 c -1.306,0.97955 -2.257,-4.78752 -2.8529,-17.30123 0,-16 -5,-28 -11,-28 -5,0 -10,-9 -10,-21 0,-12 -8,-23 -20,-26 -22,-6 -26,-23 -8,-41 9,-9 8,-16 -5,-30 -9,-10 -17,-24 -17,-30 0,-16 -22,-15 -46,3 -32,24 -51,18 -70,-24 -14,-33 -20,-38 -35,-30 -10,5 -30,9 -45,9 -25,0 -26,2 -20,39 7,43 -9,64 -55,76 -20,5 -28,15 -33,38 -3,17 -16,41 -28,54 -28,30 -8,31 47,3 53,-27 70,-25 95,10 19,27 50,41 50,23 0,-9 48,-33 65,-33 7,0 17,11 23,25 11,24 16,25 60,21 18.5353,-1.37299 43.1972,-5.57361 64.2798,-10.33719"
       id="path268"
       >
      <title
         id="title121">Somandepalle</title>
    </path>
    <path
       style="fill:#ffff30;stroke:none"
       d="m 1942.2798,775.66281 c 9.628,-2.17543 18.5095,-4.46826 25.7202,-6.66281 33,-9 47,-10 65,-1 12,7 43,16 68,20 46,9 58,16 114,70 37,36 45,38 45,11 0,-37 20,-59 65,-70 52,-13 87,-45 65,-59 -9,-6 -14,-28 -13,-72 v -63 l -71,-3 c -39,-2 -75,-7 -80,-13 -6,-5 -25,-9 -42,-9 -18,0 -36,-5 -39,-11 -4,-6 -22,-8 -46,-4 -23,4 -39,3 -39,-3 0,-5 -11,-7 -25,-4 -34,6 -83,-15 -91,-40 -3,-10 -11,-17 -17,-14 -7,3 -20,9 -29,12 -23,8 -23,52 -1,83 13,19 14,28 4,42 -9,16 -8,19 4,19 19,0 48,64 42,94 -1.2123,6.86986 -2.2614,10.63693 -3.1471,11.30123"
       id="path196"
       >
      <title
         id="title133">Gorantla</title>
    </path>
    <path
       d="m 2931,861 c 4,-1 10,-21 13,-46 7,-42 9,-45 37,-45 23,0 29,4 29,22 0,22 0,22 23,-3 12,-13 22,-35 23,-49 3,-82 5,-90 36,-119 31,-29 32,-31 15,-48 -10,-10 -17,-13 -17,-5 0,13 -62,42 -91,42 -9,0 -24,-6 -32,-14 -15,-16 -30,-10 -40,16 -4,11 -12,15 -22,12 -11,-5 -15,1 -15,19 0,31 -6,35 -53,39 -40,2 -44,7 -25,26 10,10 10,17 1,31 -13,22 -8,31 19,31 10,0 18,6 18,14 0,8 7,16 15,20 9,3 15,18 15,36 0,26 3,29 23,26 12,-3 25,-5 28,-5 z"
       id="path200"
       
       style="fill:#ccaaff;stroke:none">
      <title
         id="title198">Nallacheruvu</title>
    </path>
    <path
       d="m 2791,830 c 6,0 8,-4 5,-9 -4,-5 -1,-11 5,-13 8,-3 8,-10 -2,-26 -11,-18 -11,-26 -2,-42 8,-12 9,-21 3,-25 -6,-3 -10,-16 -10,-29 0,-20 5,-23 42,-22 48,1 61,-19 32,-48 -16,-16 -16,-29 1,-98 7,-25 3,-29 -40,-49 l -47,-22 -25,31 c -33,43 -63,43 -63,1 0,-30 -1,-31 -37,-25 -82,14 -86,13 -95,-20 -9,-36 -29,-56 -44,-46 -6,4 -14,28 -17,54 l -7,47 40,11 40,11 v 63 c 0,71 19,98 78,109 29,6 34,3 45,-21 16,-36 26,-42 49,-29 16,10 19,20 15,57 -8,66 -10,74 -26,81 -23,9 -21,50 3,59 12,5 27,7 34,4 8,-2 18,-4 23,-4 z"
       id="path204"
       
       style="fill:#aa11ff;stroke:none">
      <title
         id="title202">Amadagur</title>
    </path>
    <path
       d="m 841,803 c 5,-54 30,-103 52,-103 7,0 22,7 33,15 10,8 41,15 67,15 33,0 49,5 53,15 10,26 21,16 16,-15 -4,-28 -37,-59 -49,-47 -9,10 -63,-15 -63,-29 0,-8 -7,-17 -15,-20 -20,-8 -19,-33 1,-56 15,-15 15,-23 3,-65 l -13,-48 -11,45 c -13,54 -34,61 -90,31 -43,-23 -59,-18 -95,29 -15,19 -32,30 -44,29 -12,-1 -33,3 -49,9 -22,10 -26,16 -22,37 3,14 7,36 10,50 5,22 10,25 53,25 52,0 92,25 92,59 0,10 3,21 7,24 9,9 63,9 64,0 z"
       id="path208"
       
       style="fill:#1144ff;stroke:none">
      <title
         id="title206">Gudibanda</title>
    </path>
    <path
       d="m 1133,770 c 6,-23 35,-27 43,-5 4,8 10,15 15,15 13,0 59,-46 59,-59 0,-6 4,-11 10,-11 5,0 13,-12 16,-27 4,-16 11,-34 17,-40 6,-9 4,-21 -7,-39 -10,-14 -16,-35 -14,-47 2,-18 11,-23 46,-25 24,-2 42,-8 42,-15 0,-7 18,-27 40,-46 28,-23 37,-38 30,-45 -11,-11 -90,-18 -90,-7 0,4 -11,13 -25,19 -22,10 -28,8 -50,-16 l -25,-27 -12,33 c -13,35 -51,45 -62,17 -14,-37 -93,9 -98,57 -4,41 -30,48 -46,13 -7,-14 -16,-24 -21,-20 -5,3 -12,-4 -16,-15 -3,-11 -13,-20 -21,-20 -17,0 -19,39 -2,76 11,23 10,28 -10,44 -12,10 -22,20 -22,23 0,14 61,67 77,67 44,0 63,12 63,39 0,24 36,80 51,81 4,0 9,-9 12,-20 z"
       id="path212"
       
       style="fill:#ff00ff;stroke:none">
      <title
         id="title210">Madakasira</title>
    </path>
    <path
       d="m 1597,634 c 40,-16 43,-19 43,-54 0,-20 -7,-50 -15,-66 -14,-30 -58,-74 -73,-74 -10,0 -52,-63 -52,-78 0,-7 -9,-12 -19,-12 -11,0 -23,-4 -26,-10 -4,-6 -11,-6 -19,2 -10,9 -9,20 2,56 15,43 14,44 -12,68 -31,30 -32,36 -6,59 24,22 25,42 3,67 -15,17 -15,18 10,18 15,0 27,4 27,9 0,11 46,29 75,30 10,1 39,-6 62,-15 z"
       id="path216"
       
       style="fill:#aaffaa;stroke:none">
      <title
         id="title214">Parigi</title>
    </path>
    <path
       d="m 3138,634 c 12,-8 31,-13 41,-9 13,4 20,0 24,-16 5,-17 11,-20 31,-15 22,5 26,3 26,-14 0,-15 -7,-20 -25,-20 -17,0 -29,-8 -37,-25 -6,-14 -19,-25 -28,-25 -20,0 -41,-23 -58,-62 -6,-16 -18,-28 -27,-28 -21,0 -19,-17 5,-47 47,-59 13,-100 -69,-85 -27,5 -75,5 -107,1 -32,-4 -59,-7 -59,-6 -1,1 -6,14 -12,28 -8,18 -8,40 -1,73 7,33 7,51 -1,60 -9,11 -5,16 19,24 33,12 35,20 16,73 -8,23 -10,43 -4,53 11,20 48,21 48,2 0,-22 38,-30 56,-12 8,9 17,16 18,16 8,0 72,-31 88,-42 14,-10 21,-8 39,11 l 23,24 -27,22 c -14,13 -23,26 -20,29 9,9 16,7 41,-10 z"
       id="path220"
       
       style="fill:#bb77ff;stroke:none">
      <title
         id="title218">Tanakal</title>
    </path>
    <path
       d="m 716,560 c 10,-16 31,-35 47,-41 26,-11 35,-9 73,12 47,25 57,22 68,-23 5,-24 2,-28 -29,-39 -37,-14 -50,-49 -17,-49 24,0 44,-35 36,-66 -4,-17 -1,-31 12,-45 26,-28 9,-51 -41,-54 -64,-5 -75,1 -75,45 0,30 -5,40 -20,45 -23,7 -25,18 -8,44 9,15 7,24 -11,50 -12,17 -26,31 -31,31 -5,0 -18,9 -28,20 -23,24 -42,19 -65,-18 l -16,-27 v 25 c 0,29 15,52 47,69 12,6 22,21 22,31 0,29 16,24 36,-10 z"
       id="path224"
       
       style="fill:#ccccff;stroke:none">
      <title
         id="title222">Rolla</title>
    </path>
    <path
       style="fill:#bbffaa;stroke:none"
       d="m 1917,494 c 25,-5 32,-2 37,12 7,23 57,47 80,38 9,-3 24,-3 34,1 9,5 33,9 52,11 19,1 46,4 59,6 15,2 27,-4 35,-17 6,-11 18,-25 26,-31 23,-19 -2,-61 -50,-81 -32,-14 -40,-23 -40,-44 0,-24 -5,-27 -46,-34 -73,-11 -84,-21 -84,-82 0,-52 -16,-74 -22,-31 -2,15 -9,22 -20,22 -10,-1 -20,7 -23,17 -4,13 -16,19 -36,19 -16,0 -29,4 -29,9 0,5 -14,23 -30,40 l -31,30 31,16 c 32,17 36,26 20,56"
       id="path125"
       >
      <title
         id="title129">Chilamathur</title>
    </path>
    <path
       style="fill:#bbffaa;stroke:none"
       d="m 1880,451 c -13,22 -41,24 -139,7 -68,-11 -69,-12 -80,-49 -6,-20 -18,-40 -26,-43 -19,-7 -20,-35 -1,-42 11,-4 11,-13 -1,-56 -12,-41 -13,-55 -3,-73 16,-30 6,-77 -15,-69 -8,3 -13,11 -12,17 1,7 -13,13 -32,15 -32,3 -33,2 -27,-22 4,-18 2,-26 -6,-26 -7,0 -23,-3 -35,-6 -27,-8 -32,16 -8,40 13,12 15,36 13,114 -3,91 -1,102 22,135 14,20 30,37 36,37 14,0 74,66 74,81 0,12 62,8 93,-5 11,-6 17,-4 17,6 0,37 49,73 65,48 3,-5 17,-10 30,-10 16,0 23,-4 19,-13 -6,-18 15,-35 53,-43"
       id="path228"
       >
      <title
         id="title127">Hindupur</title>
    </path>
    <path
       d="m 687,478 c 55,-45 75,-70 64,-81 -17,-17 -13,-46 9,-59 28,-18 26,-61 -2,-73 -13,-6 -23,-15 -23,-22 0,-27 -17,-24 -50,11 -41,44 -66,44 -79,-2 -17,-61 -51,-25 -49,54 1,30 -3,54 -8,54 -17,0 -9,25 16,53 14,15 34,27 44,27 10,0 24,11 31,25 15,28 24,31 47,13 z"
       id="path232"
       
       style="fill:#bb00ff;stroke:none">
      <title
         id="title230">Agali</title>
    </path>
    <path
       d="m 1870,440 c 9,-16 6,-22 -20,-35 -38,-19 -38,-31 0,-67 35,-33 38,-48 10,-55 -22,-6 -27,-29 -7,-36 9,-3 9,-9 1,-23 -14,-24 -34,-30 -34,-10 0,24 -55,20 -90,-6 l -29,-21 -31,33 c -27,29 -30,37 -21,57 16,36 14,63 -6,63 -17,1 -17,1 0,11 10,6 25,27 33,48 14,35 20,39 67,48 86,17 115,15 127,-7 z"
       id="path236"
       
       style="fill:#44ff88;stroke:none">
      <title
         id="title234">Lepakshi</title>
    </path>
  </g>
</svg>
