<svg viewBox="60 150 70 70" width="500" height="500" preserveAspectRatio="xMidYMid"><g>
<path d="M87.84856678319647,171.1521643790204L89.34020926077801,170.42829453640263L92.53163037560307,171.48117350071448L92.87852397504048,170.62572037583186L96.45152804924737,172.9615398605323L97.80441308705349,174.60605690197985L98.22068540637838,177.1050511057748L97.14531524812219,179.4389089525905L98.70633644559166,180.29338569265872L97.35345140778509,180.78631037221362L98.18599604643487,182.98766035290464L100.05922148339732,185.38544129280206L101.27334908142893,185.4182825197786L100.96114484193504,186.86316075517084L96.48621740919089,187.29000586094787L92.84383461509651,188.04513676636964L92.84383461509651,189.22693586806383L91.38688149745894,191.09775704699166L87.50167318375861,189.62082966463413L84.7265243882589,189.0956335793818L82.54109471180163,189.5880059300997L81.0494522342201,185.74668724191645L85.45500094707677,184.99133585952904L89.58303478038442,185.9108844587587L89.75648158010245,184.63005516745693L85.24686478741432,175.98717997252493L86.28754558572746,175.0006887294628Z" class="c149 year2019 S01 tdp" data-state="ANDHRA PRADESH" data-stateNo="S01" data-election="assembly" data-constNo="149" data-constName="Uravakonda" stroke="#666" stroke-width="0.5" stroke-opacity="1" fill-opacity="1" fill="white"></path>

<path d="M113.96965482084306,169.83598642922016L114.00434418078657,171.7772696311455L117.7507950547124,172.17204668332988L117.0916972157811,173.88251270795672L118.44458225358721,176.25022301772594L122.05227568773762,178.09127391242828L121.21973104908784,178.68294737426504L119.83215665133775,182.92195739445515L118.58333969336218,181.96920243894658L115.4612972984246,181.4763525439945L112.54739106314946,183.15191533495897L109.98037842731173,179.9318877575722L108.6274933895047,180.32624830872714L105.26262547496117,179.1431066621193L104.88104251557934,176.08582216400293L103.66691491754773,173.9154025557284L107.27460835169859,173.55360649682177L109.35596994832395,172.1391493717764L111.64546770461129,170.9547521209539L112.89428466258687,171.3166707063716Z" class="c151 year2019 S01 ysrcp" data-state="ANDHRA PRADESH" data-stateNo="S01" data-election="assembly" data-constNo="151" data-constName="Tadpatri" stroke="#666" stroke-width="0.5" stroke-opacity="1" fill-opacity="1" fill="white"></path>

<path d="M85.24686478741432,175.98717997252493L89.75648158010245,184.63005516745693L89.58303478038442,185.9108844587587L85.45500094707677,184.99133585952904L81.0494522342201,185.74668724191645L82.54109471180163,189.5880059300997L80.52911183506376,190.3100966761889L77.92740983928252,192.80408668632538L76.50514608158892,193.2306119474423L75.6032227230512,193.16499416222882L74.14626960541318,190.5726588214335L74.49316320485059,187.7496593659929L76.67859288130785,183.77605283356684L77.61520559978862,179.99761590400794L77.71927367962007,177.33518099303512L74.21564832530066,177.13792722282744L75.0481929639509,175.49395011382455L74.45847384490708,173.8496227196058L75.36039720344434,172.7641741769953L77.6845843196761,174.04696054121484L78.06616727905794,175.13222818294366L84.10211590927065,175.03357380319403Z" class="c148 year2019 S01 ysrcp" data-state="ANDHRA PRADESH" data-stateNo="S01" data-election="assembly" data-constNo="148" data-constName="Rayadurg" stroke="#666" stroke-width="0.5" stroke-opacity="1" fill-opacity="1" fill="white"></path>

<path d="M105.26262547496117,179.1431066621193L108.6274933895047,180.32624830872714L109.98037842731173,179.9318877575722L112.54739106314946,183.15191533495897L115.4612972984246,181.4763525439945L118.58333969336218,181.96920243894658L119.83215665133775,182.92195739445515L118.86085457291256,184.4329859608846L119.48526305189989,186.37061843318145L121.94820760790617,187.22433888758303L121.84413952807563,188.2749448776293L120.3524970504941,189.55518205950386L118.4098928936437,193.16499416222882L116.22446321718735,191.59000509885482L116.46728873679285,189.98188176710892L112.54739106314946,188.89867606007908L111.81891450433022,190.7039366350367L110.0150677872548,190.27727579678447L108.00308491051783,191.1633918830653L108.00308491051783,190.047525836217L105.19324675507323,189.45670963124917L104.36070211642345,188.1436267757466L103.73629363743612,185.9765623856141L102.52216603940406,184.6628995539687L101.27334908142893,185.4182825197786L100.05922148339732,185.38544129280206L98.18599604643487,182.98766035290464L97.35345140778509,180.78631037221362L98.70633644559166,180.29338569265872L100.82238740216007,180.09620708256398L103.14657451839184,178.7815552317769Z" class="c152 year2019 S01 ysrcp" data-state="ANDHRA PRADESH" data-stateNo="S01" data-election="assembly" data-constNo="152" data-constName="Singanamala " stroke="#666" stroke-width="0.5" stroke-opacity="1" fill-opacity="1" fill="white"></path>
	
<path d="M100.96114484193504,186.86316075517084L101.27334908142893,185.4182825197786L102.52216603940406,184.6628995539687L103.73629363743612,185.9765623856141L104.36070211642345,188.1436267757466L101.9671362803042,189.94905952863598L102.03651500019123,187.71682786091003Z" class="c153 year2019 S01 ysrcp" data-state="ANDHRA PRADESH" data-stateNo="S01" data-election="assembly" data-constNo="153" data-constName="Anantapur Urban" stroke="#666" stroke-width="0.5" stroke-opacity="1" fill-opacity="1" fill="white"></path>

<path d="M96.93717908845974,168.12461594089007L99.15729812486006,168.6841446990262L100.7530086822726,168.12461594089007L103.70160427749124,169.57272364303844L105.71358715422957,167.79546217737254L106.5461317928798,169.57272364303844L109.35596994832395,172.1391493717764L107.27460835169859,173.55360649682177L103.66691491754773,173.9154025557284L104.88104251557934,176.08582216400293L105.26262547496117,179.1431066621193L103.14657451839184,178.7815552317769L100.82238740216007,180.09620708256398L98.70633644559166,180.29338569265872L97.14531524812219,179.4389089525905L98.22068540637838,177.1050511057748L97.80441308705349,174.60605690197985L96.45152804924737,172.9615398605323L92.87852397504048,170.62572037583186L94.61299197222843,169.8030790771677L95.02926429155332,168.15753053474396Z" class="c150 year2019 S01 ysrcp" data-state="ANDHRA PRADESH" data-stateNo="S01" data-election="assembly" data-constNo="150" data-constName="Guntakal" stroke="#666" stroke-width="0.5" stroke-opacity="1" fill-opacity="1" fill="white"></path>

<path d="M82.54109471180163,189.5880059300997L84.7265243882589,189.0956335793818L87.50167318375861,189.62082966463413L91.38688149745894,191.09775704699166L92.84383461509651,189.22693586806383L94.75174941200339,190.44137883535143L94.61299197222843,192.57440977946396L95.79243021031562,194.47724733752892L94.37016645262156,196.24844746130225L93.91920477335316,198.01925638445783L94.19671965290354,200.96973925860317L94.99457493160935,202.34626270409376L92.25411549605315,202.1168583696429L91.00529853807802,200.8386295800159L87.08540086443372,200.15026888123788L86.18347750589601,202.64120160050527L84.37963078882058,203.49318711366004L80.25159695551383,203.46042009226107L78.9680906375952,200.67473949265803L78.37837151855138,198.01925638445783L80.52911183506376,197.39623850024725L81.46572455354544,194.80527694223707L77.75396303956404,195.19889470561628L76.50514608158892,193.2306119474423L77.92740983928252,192.80408668632538L80.52911183506376,190.3100966761889Z" class="c154 year2019 S01 ysrcp" data-state="ANDHRA PRADESH" data-stateNo="S01" data-election="assembly" data-constNo="154" data-constName="Kalyandurg" stroke="#666" stroke-width="0.5" stroke-opacity="1" fill-opacity="1" fill="white"></path>
</g></svg>