<svg viewBox="65 165 80 80" width="650" height="650" preserveAspectRatio="xMidYMid meet"><g>
<path d="M92.84383461509651,189.22693586806383L92.84383461509651,188.04513676636964L96.48621740919089,187.29000586094787L100.96114484193504,186.86316075517084L102.03651500019123,187.71682786091003L101.9671362803042,189.94905952863598L104.36070211642345,188.1436267757466L105.19324675507323,189.45670963124917L108.00308491051783,190.047525836217L108.00308491051783,191.1633918830653L106.68488923265477,192.93532765979114L105.01979995535476,193.55869277386637L104.15256595676055,197.85530899006932L106.92771475226118,198.74058524118146L107.48274451136103,200.4452877885651L110.08444650714227,200.4780670022377L111.64546770461129,201.39583104166059L110.84761242590503,202.47734798182296L105.40138291473568,203.75531853037478L102.55685539934802,204.14849981500697L100.40611508283564,205.65551892017697L99.08791940497213,201.75635272706415L96.69435356885333,200.15026888123788L94.99457493160935,202.34626270409376L94.19671965290354,200.96973925860317L93.91920477335316,198.01925638445783L94.37016645262156,196.24844746130225L95.79243021031562,194.47724733752892L94.61299197222843,192.57440977946396L94.75174941200339,190.44137883535143Z" class="c155 year2019 S01 ysrcp" data-state="ANDHRA PRADESH" data-stateNo="S01" data-election="assembly" data-constNo="155" data-constName="Raptadu" stroke="#666" stroke-width="0.5" stroke-opacity="1" fill-opacity="1" fill="white"></path>

<path d="M108.00308491051783,191.1633918830653L110.0150677872548,190.27727579678447L111.81891450433022,190.7039366350367L112.54739106314946,188.89867606007908L116.46728873679285,189.98188176710892L116.22446321718735,191.59000509885482L117.29983337544354,194.67406671570552L120.97690552948143,198.11762321720477L124.96618192301321,200.5436250307431L122.60730544683838,200.5436250307431L121.3584884888628,204.01744149805893L120.07498217094371,204.7382361328585L117.57734825499392,202.83782157602792L115.35722921859315,199.6913291585082L112.82490594269893,199.78967558130302L111.64546770461129,201.39583104166059L110.08444650714227,200.4780670022377L107.48274451136103,200.4452877885651L106.92771475226118,198.74058524118146L104.15256595676055,197.85530899006932L105.01979995535476,193.55869277386637L106.68488923265477,192.93532765979114Z" class="c160 year2019 S01 ysrcp" data-state="ANDHRA PRADESH" data-stateNo="S01" data-election="assembly" data-constNo="160" data-constName="Dharmavaram" stroke="#666" stroke-width="0.5" stroke-opacity="1" fill-opacity="1" fill="white"></path>

<path d="M110.74354434607403,214.92087611601386L111.57608898472381,216.94935703646973L109.63348482787387,218.81381569895456L105.08917867524224,220.0565574556157L100.995834201879,222.83570934941207L98.5675790058167,222.67225520338638L98.11661732654738,219.14087086689597L100.82238740216007,216.06604705134134L101.23865972148496,214.85543301331523L103.66691491754773,214.29914582124724L105.19324675507323,215.77158957807518L107.34398707158562,214.69182300127443Z" class="c157 year2019 S01 tdp" data-state="ANDHRA PRADESH" data-stateNo="S01" data-election="assembly" data-constNo="157" data-constName="Hindupur" stroke="#666" stroke-width="0.5" stroke-opacity="1" fill-opacity="1" fill="white"></path>

<path d="M113.31055698191176,214.4627635698953L110.74354434607403,214.92087611601386L107.34398707158562,214.69182300127443L105.19324675507323,215.77158957807518L103.66691491754773,214.29914582124724L101.23865972148496,214.85543301331523L100.82238740216007,216.06604705134134L98.11661732654738,219.14087086689597L97.42283012767211,217.9961218705547L96.79842164868478,215.96789571728328L97.21469396801012,212.76098116016414L93.95389413329713,211.1897944198288L96.34745996941592,208.01377326755278L96.10463444980951,205.98309492468695L99.95515340356678,206.6382075283248L100.40611508283564,205.65551892017697L102.55685539934802,204.14849981500697L105.40138291473568,203.75531853037478L106.26861691332942,206.14687799952327L105.36669355479171,207.7190286286356L106.7542679525427,208.96343395346446L106.71957859259874,211.09158532158466L109.98037842731173,210.0112080064336L113.90027610095558,211.02611193977998Z" class="c158 year2019 S01 ysrcp" data-state="ANDHRA PRADESH" data-stateNo="S01" data-election="assembly" data-constNo="158" data-constName="Penukonda" stroke="#666" stroke-width="0.5" stroke-opacity="1" fill-opacity="1" fill="white"></path>

<path d="M96.79842164868478,215.96789571728328L97.42283012767211,217.9961218705547L94.1273409330156,218.29050085549812L93.19072821453392,217.21106054725766L88.85455822156518,216.72035973041204L87.88325614313953,219.238984927638L88.40359654229633,220.84135217326087L83.8592903896647,220.25276300928954L82.29826919219568,221.0702368287494L81.53510327343338,218.84652179044775L82.99205639107049,216.88392987623774L83.82460102972072,214.69182300127443L82.33295855213919,212.63006033826923L79.9740820759639,211.1897944198288L81.39634583365842,210.1749106474561L79.55780975663902,206.34341335534873L82.54109471180163,205.65551892017697L83.44301807033935,210.24039079245932L86.80788598488334,210.6005222846L87.29353702409617,212.13908879824913L91.94191125655925,211.84449187572716L93.05197077475896,211.12432181758504L94.95988557166584,212.59732980908097L94.75174941200339,215.70615316959584Z" class="c156 year2019 S01 ysrcp" data-state="ANDHRA PRADESH" data-stateNo="S01" data-election="assembly" data-constNo="156" data-constName="Madakasira " stroke="#666" stroke-width="0.5" stroke-opacity="1" fill-opacity="1" fill="white"></path>

<path d="M113.31055698191176,214.4627635698953L113.90027610095558,211.02611193977998L109.98037842731173,210.0112080064336L106.71957859259874,211.09158532158466L106.7542679525427,208.96343395346446L105.36669355479171,207.7190286286356L106.26861691332942,206.14687799952327L105.40138291473568,203.75531853037478L110.84761242590503,202.47734798182296L111.64546770461129,201.39583104166059L112.82490594269893,199.78967558130302L115.35722921859315,199.6913291585082L117.57734825499392,202.83782157602792L120.07498217094371,204.7382361328585L120.31780769055013,206.6382075283248L119.76277793144982,209.84750210946066L120.63001193004402,211.87722538586632L121.74007144824418,212.49913744445143L121.70538208830021,215.60799759217406L121.08097360931288,217.21106054725766L116.98762913594965,216.98207042417295L116.81418233623117,213.8737245762677L114.73282073960581,215.6734347724245Z" class="c159 year2019 S01 ysrcp" data-state="ANDHRA PRADESH" data-stateNo="S01" data-election="assembly" data-constNo="159" data-constName="Puttaparthi" stroke="#666" stroke-width="0.5" stroke-opacity="1" fill-opacity="1" fill="white"></path>

<path d="M124.96618192301321,200.5436250307431L127.2209903193575,201.75635272706415L129.71862423530774,201.72357869150483L132.0428113515395,202.4118056077554L131.41840287255172,205.0330882824153L132.94473471007677,207.58802760863028L132.63253047058288,211.6153536721299L133.5344538291206,212.46640639718885L130.79399439356393,214.4627635698953L128.36573919750117,215.1172023320987L126.45782440059475,217.1456354389336L125.52121168211352,220.22006240207617L121.63600336841273,219.95845295909066L121.08097360931288,217.21106054725766L121.70538208830021,215.60799759217406L121.74007144824418,212.49913744445143L120.63001193004402,211.87722538586632L119.76277793144982,209.84750210946066L120.31780769055013,206.6382075283248L120.07498217094371,204.7382361328585L121.3584884888628,204.01744149805893L122.60730544683838,200.5436250307431Z" class="c161 year2019 S01 ysrcp" data-state="ANDHRA PRADESH" data-stateNo="S01" data-election="assembly" data-constNo="161" data-constName="Kadiri" stroke="#666" stroke-width="0.5" stroke-opacity="1" fill-opacity="1" fill="white"></path>

</g></svg>