<?xml version="1.0" encoding="UTF-8" standalone="no"?>
<svg xmlns:svg="http://www.w3.org/2000/svg"
xmlns="http://www.w3.org/2000/svg" version="1.1"
width="360" height="185">
<!-- Created with the Wikimedia parliament diagram creator (http://tools.wmflabs.org/parliamentdiagram/parliamentinputform.html) -->
<g>
<text x="175" y="175" style="font-size:36px;font-weight:bold;text-align:center;text-anchor:middle;font-family:sans-serif">654</text>
  <g style="fill:yellow; stroke:yellow" id="TDP">
    <circle cx="8.87" cy="176.92" r="3.08"/>
    <circle cx="16.57" cy="176.92" r="3.08"/>
    <circle cx="24.26" cy="176.92" r="3.08"/>
    <circle cx="31.96" cy="176.92" r="3.08"/>
    <circle cx="39.65" cy="176.92" r="3.08"/>
    <circle cx="47.34" cy="176.92" r="3.08"/>
    <circle cx="55.04" cy="176.92" r="3.08"/>
    <circle cx="62.73" cy="176.92" r="3.08"/>
    <circle cx="70.43" cy="176.92" r="3.08"/>
    <circle cx="78.12" cy="176.92" r="3.08"/>
    <circle cx="85.82" cy="176.92" r="3.08"/>
    <circle cx="93.52" cy="176.92" r="3.08"/>
    <circle cx="101.21" cy="176.92" r="3.08"/>
    <circle cx="9.20" cy="169.00" r="3.08"/>
    <circle cx="16.90" cy="169.13" r="3.08"/>
    <circle cx="24.61" cy="169.14" r="3.08"/>
    <circle cx="32.32" cy="169.15" r="3.08"/>
    <circle cx="40.03" cy="169.17" r="3.08"/>
    <circle cx="47.76" cy="169.04" r="3.08"/>
    <circle cx="55.48" cy="169.05" r="3.08"/>
    <circle cx="63.20" cy="169.06" r="3.08"/>
    <circle cx="70.93" cy="169.08" r="3.08"/>
    <circle cx="78.66" cy="169.09" r="3.08"/>
    <circle cx="9.89" cy="161.09" r="3.08"/>
    <circle cx="17.61" cy="161.35" r="3.08"/>
    <circle cx="86.40" cy="169.11" r="3.08"/>
    <circle cx="25.35" cy="161.38" r="3.08"/>
    <circle cx="94.15" cy="169.14" r="3.08"/>
    <circle cx="33.09" cy="161.41" r="3.08"/>
    <circle cx="40.85" cy="161.45" r="3.08"/>
    <circle cx="101.90" cy="169.17" r="3.08"/>
    <circle cx="48.65" cy="161.19" r="3.08"/>
    <circle cx="56.42" cy="161.22" r="3.08"/>
    <circle cx="10.95" cy="153.23" r="3.08"/>
    <circle cx="64.20" cy="161.25" r="3.08"/>
    <circle cx="18.68" cy="153.62" r="3.08"/>
    <circle cx="26.47" cy="153.67" r="3.08"/>
    <circle cx="71.99" cy="161.28" r="3.08"/>
    <circle cx="34.27" cy="153.72" r="3.08"/>
    <circle cx="79.80" cy="161.33" r="3.08"/>
    <circle cx="42.09" cy="153.78" r="3.08"/>
    <circle cx="87.63" cy="161.38" r="3.08"/>
    <circle cx="50.00" cy="153.41" r="3.08"/>
    <circle cx="12.37" cy="145.43" r="3.08"/>
    <circle cx="20.12" cy="145.95" r="3.08"/>
    <circle cx="57.85" cy="153.46" r="3.08"/>
    <circle cx="95.48" cy="161.44" r="3.08"/>
    <circle cx="27.98" cy="146.02" r="3.08"/>
    <circle cx="65.72" cy="153.52" r="3.08"/>
    <circle cx="35.85" cy="146.10" r="3.08"/>
    <circle cx="103.35" cy="161.51" r="3.08"/>
    <circle cx="43.75" cy="146.20" r="3.08"/>
    <circle cx="73.61" cy="153.59" r="3.08"/>
    <circle cx="14.16" cy="137.70" r="3.08"/>
    <circle cx="21.93" cy="138.36" r="3.08"/>
    <circle cx="81.54" cy="153.67" r="3.08"/>
    <circle cx="51.81" cy="145.72" r="3.08"/>
    <circle cx="29.87" cy="138.46" r="3.08"/>
    <circle cx="59.77" cy="145.81" r="3.08"/>
    <circle cx="89.49" cy="153.77" r="3.08"/>
    <circle cx="37.83" cy="138.58" r="3.08"/>
    <circle cx="67.75" cy="145.91" r="3.08"/>
    <circle cx="16.29" cy="130.06" r="3.08"/>
    <circle cx="45.82" cy="138.71" r="3.08"/>
    <circle cx="24.10" cy="130.86" r="3.08"/>
    <circle cx="97.49" cy="153.89" r="3.08"/>
    <circle cx="75.78" cy="146.03" r="3.08"/>
    <circle cx="32.14" cy="131.01" r="3.08"/>
    <circle cx="54.08" cy="138.16" r="3.08"/>
    <circle cx="105.55" cy="154.04" r="3.08"/>
    <circle cx="40.21" cy="131.17" r="3.08"/>
    <circle cx="83.85" cy="146.17" r="3.08"/>
    <circle cx="62.16" cy="138.30" r="3.08"/>
    <circle cx="18.78" cy="122.53" r="3.08"/>
    <circle cx="26.62" cy="123.47" r="3.08"/>
    <circle cx="48.31" cy="131.36" r="3.08"/>
    <circle cx="70.30" cy="138.46" r="3.08"/>
    <circle cx="91.98" cy="146.35" r="3.08"/>
    <circle cx="34.77" cy="123.67" r="3.08"/>
    <circle cx="56.79" cy="130.74" r="3.08"/>
    <circle cx="78.48" cy="138.65" r="3.08"/>
    <circle cx="42.96" cy="123.90" r="3.08"/>
    <circle cx="21.62" cy="115.12" r="3.08"/>
    <circle cx="100.18" cy="146.56" r="3.08"/>
    <circle cx="29.50" cy="116.22" r="3.08"/>
    <circle cx="65.03" cy="130.95" r="3.08"/>
    <circle cx="51.20" cy="124.15" r="3.08"/>
    <circle cx="86.74" cy="138.87" r="3.08"/>
    <circle cx="37.77" cy="116.48" r="3.08"/>
    <circle cx="73.33" cy="131.19" r="3.08"/>
    <circle cx="108.47" cy="146.82" r="3.08"/>
    <circle cx="24.80" cy="107.85" r="3.08"/>
    <circle cx="59.94" cy="123.50" r="3.08"/>
    <circle cx="46.10" cy="116.78" r="3.08"/>
    <circle cx="95.08" cy="139.15" r="3.08"/>
    <circle cx="32.71" cy="109.11" r="3.08"/>
    <circle cx="81.71" cy="131.47" r="3.08"/>
    <circle cx="54.49" cy="117.12" r="3.08"/>
    <circle cx="68.35" cy="123.79" r="3.08"/>
    <circle cx="41.12" cy="109.45" r="3.08"/>
    <circle cx="28.31" cy="100.74" r="3.08"/>
    <circle cx="103.53" cy="139.49" r="3.08"/>
    <circle cx="90.18" cy="131.82" r="3.08"/>
    <circle cx="49.60" cy="109.83" r="3.08"/>
    <circle cx="76.85" cy="124.14" r="3.08"/>
    <circle cx="36.26" cy="102.16" r="3.08"/>
    <circle cx="63.51" cy="116.46" r="3.08"/>
    <circle cx="58.16" cy="110.27" r="3.08"/>
    <circle cx="44.83" cy="102.59" r="3.08"/>
    <circle cx="32.14" cy="93.79" r="3.08"/>
    <circle cx="72.12" cy="116.86" r="3.08"/>
    <circle cx="85.44" cy="124.55" r="3.08"/>
    <circle cx="98.77" cy="132.24" r="3.08"/>
    <circle cx="112.10" cy="139.93" r="3.08"/>
    <circle cx="40.14" cy="95.38" r="3.08"/>
    <circle cx="53.47" cy="103.08" r="3.08"/>
    <circle cx="67.50" cy="109.64" r="3.08"/>
    <circle cx="80.83" cy="117.34" r="3.08"/>
    <circle cx="94.16" cy="125.05" r="3.08"/>
    <circle cx="48.87" cy="95.93" r="3.08"/>
    <circle cx="36.30" cy="87.03" r="3.08"/>
    <circle cx="62.20" cy="103.64" r="3.08"/>
    <circle cx="107.49" cy="132.76" r="3.08"/>
    <circle cx="44.34" cy="88.80" r="3.08"/>
    <circle cx="76.31" cy="110.19" r="3.08"/>
    <circle cx="57.68" cy="96.54" r="3.08"/>
    <circle cx="89.66" cy="117.92" r="3.08"/>
    <circle cx="103.02" cy="125.66" r="3.08"/>
    <circle cx="71.88" cy="103.07" r="3.08"/>
    <circle cx="53.24" cy="89.47" r="3.08"/>
    <circle cx="40.76" cy="80.48" r="3.08"/>
    <circle cx="66.60" cy="97.25" r="3.08"/>
    <circle cx="85.26" cy="110.83" r="3.08"/>
    <circle cx="116.38" cy="133.42" r="3.08"/>
    <circle cx="48.85" cy="82.43" r="3.08"/>
    <circle cx="98.64" cy="118.61" r="3.08"/>
    <circle cx="62.23" cy="90.23" r="3.08"/>
    <circle cx="80.92" cy="103.78" r="3.08"/>
    <circle cx="45.52" cy="74.13" r="3.08"/>
    <circle cx="112.05" cy="126.42" r="3.08"/>
    <circle cx="57.92" cy="83.25" r="3.08"/>
    <circle cx="94.34" cy="111.60" r="3.08"/>
    <circle cx="76.65" cy="96.78" r="3.08"/>
    <circle cx="71.35" cy="91.10" r="3.08"/>
    <circle cx="53.66" cy="76.28" r="3.08"/>
    <circle cx="90.11" cy="104.63" r="3.08"/>
    <circle cx="107.79" cy="119.45" r="3.08"/>
    <circle cx="67.11" cy="84.17" r="3.08"/>
    <circle cx="50.57" cy="68.01" r="3.08"/>
    <circle cx="85.93" cy="97.69" r="3.08"/>
    <circle cx="62.91" cy="77.26" r="3.08"/>
    <circle cx="103.61" cy="112.53" r="3.08"/>
    <circle cx="121.29" cy="127.37" r="3.08"/>
    <circle cx="58.75" cy="70.37" r="3.08"/>
    <circle cx="81.78" cy="90.78" r="3.08"/>
    <circle cx="76.43" cy="85.23" r="3.08"/>
    <circle cx="99.47" cy="105.63" r="3.08"/>
    <circle cx="72.30" cy="78.38" r="3.08"/>
    <circle cx="117.16" cy="120.51" r="3.08"/>
    <circle cx="55.90" cy="62.14" r="3.08"/>
    <circle cx="95.37" cy="98.77" r="3.08"/>
    <circle cx="68.20" cy="71.53" r="3.08"/>
    <circle cx="113.07" cy="113.67" r="3.08"/>
    <circle cx="91.31" cy="91.92" r="3.08"/>
    <circle cx="64.12" cy="64.71" r="3.08"/>
    <circle cx="81.83" cy="79.65" r="3.08"/>
    <circle cx="87.27" cy="85.09" r="3.08"/>
    <circle cx="109.03" cy="106.85" r="3.08"/>
    <circle cx="61.49" cy="56.51" r="3.08"/>
    <circle cx="77.79" cy="72.86" r="3.08"/>
    <circle cx="105.01" cy="100.05" r="3.08"/>
    <circle cx="73.76" cy="66.08" r="3.08"/>
    <circle cx="126.77" cy="121.84" r="3.08"/>
    <circle cx="69.76" cy="59.31" r="3.08"/>
    <circle cx="101.01" cy="93.27" r="3.08"/>
    <circle cx="97.04" cy="86.50" r="3.08"/>
    <circle cx="122.78" cy="115.08" r="3.08"/>
    <circle cx="87.53" cy="74.38" r="3.08"/>
    <circle cx="67.34" cy="51.15" r="3.08"/>
    <circle cx="93.08" cy="79.74" r="3.08"/>
    <circle cx="83.55" cy="67.64" r="3.08"/>
    <circle cx="118.81" cy="108.34" r="3.08"/>
    <circle cx="79.59" cy="60.91" r="3.08"/>
    <circle cx="114.87" cy="101.61" r="3.08"/>
    <circle cx="75.65" cy="54.18" r="3.08"/>
    <circle cx="110.93" cy="94.88" r="3.08"/>
    <circle cx="73.43" cy="46.07" r="3.08"/>
    <circle cx="107.01" cy="88.16" r="3.08"/>
    <circle cx="93.51" cy="69.43" r="3.08"/>
    <circle cx="103.10" cy="81.45" r="3.08"/>
    <circle cx="89.59" cy="62.73" r="3.08"/>
    <circle cx="99.19" cy="74.75" r="3.08"/>
    <circle cx="85.68" cy="56.04" r="3.08"/>
    <circle cx="81.77" cy="49.35" r="3.08"/>
    <circle cx="132.76" cy="116.87" r="3.08"/>
    <circle cx="128.87" cy="110.18" r="3.08"/>
    <circle cx="79.75" cy="41.28" r="3.08"/>
    <circle cx="124.97" cy="103.50" r="3.08"/>
    <circle cx="121.09" cy="96.83" r="3.08"/>
    <circle cx="117.21" cy="90.15" r="3.08"/>
    <circle cx="99.75" cy="64.81" r="3.08"/>
    <circle cx="113.34" cy="83.47" r="3.08"/>
    <circle cx="95.87" cy="58.14" r="3.08"/>
    <circle cx="91.99" cy="51.47" r="3.08"/>
    <circle cx="109.47" cy="76.80" r="3.08"/>
    <circle cx="88.12" cy="44.81" r="3.08"/>
    <circle cx="105.60" cy="70.13" r="3.08"/>
    <circle cx="86.29" cy="36.78" r="3.08"/>
    <circle cx="106.24" cy="60.55" r="3.08"/>
    <circle cx="102.39" cy="53.89" r="3.08"/>
    <circle cx="98.53" cy="47.23" r="3.08"/>
    <circle cx="94.68" cy="40.57" r="3.08"/>
    <circle cx="139.22" cy="112.52" r="3.08"/>
    <circle cx="135.37" cy="105.86" r="3.08"/>
    <circle cx="131.52" cy="99.20" r="3.08"/>
    <circle cx="127.67" cy="92.54" r="3.08"/>
    <circle cx="123.82" cy="85.88" r="3.08"/>
    <circle cx="119.97" cy="79.22" r="3.08"/>
    <circle cx="116.12" cy="72.56" r="3.08"/>
    <circle cx="112.27" cy="65.90" r="3.08"/>
    <circle cx="93.02" cy="32.59" r="3.08"/>
    <circle cx="101.43" cy="36.66" r="3.08"/>
    <circle cx="105.27" cy="43.32" r="3.08"/>
    <circle cx="109.12" cy="49.99" r="3.08"/>
    <circle cx="112.96" cy="56.66" r="3.08"/>
    <circle cx="99.95" cy="28.72" r="3.08"/>
    <circle cx="119.17" cy="62.07" r="3.08"/>
    <circle cx="123.02" cy="68.74" r="3.08"/>
    <circle cx="126.86" cy="75.42" r="3.08"/>
    <circle cx="130.71" cy="82.09" r="3.08"/>
    <circle cx="134.55" cy="88.77" r="3.08"/>
    <circle cx="138.40" cy="95.45" r="3.08"/>
    <circle cx="108.36" cy="33.07" r="3.08"/>
    <circle cx="142.24" cy="102.13" r="3.08"/>
    <circle cx="112.20" cy="39.76" r="3.08"/>
    <circle cx="116.04" cy="46.45" r="3.08"/>
    <circle cx="146.08" cy="108.82" r="3.08"/>
    <circle cx="119.88" cy="53.14" r="3.08"/>
    <circle cx="107.04" cy="25.17" r="3.08"/>
    <circle cx="126.30" cy="58.66" r="3.08"/>
    <circle cx="130.15" cy="65.37" r="3.08"/>
    <circle cx="115.46" cy="29.82" r="3.08"/>
    <circle cx="134.00" cy="72.09" r="3.08"/>
    <circle cx="119.30" cy="36.54" r="3.08"/>
    <circle cx="137.85" cy="78.81" r="3.08"/>
    <circle cx="123.15" cy="43.27" r="3.08"/>
    <circle cx="114.30" cy="21.96" r="3.08"/>
    <circle cx="126.99" cy="50.01" r="3.08"/>
    <circle cx="141.71" cy="85.54" r="3.08"/>
    <circle cx="145.56" cy="92.29" r="3.08"/>
    <circle cx="149.41" cy="99.05" r="3.08"/>
    <circle cx="122.70" cy="26.91" r="3.08"/>
    <circle cx="133.61" cy="55.68" r="3.08"/>
    <circle cx="126.55" cy="33.69" r="3.08"/>
    <circle cx="121.69" cy="19.09" r="3.08"/>
    <circle cx="137.48" cy="62.45" r="3.08"/>
    <circle cx="153.27" cy="105.82" r="3.08"/>
    <circle cx="130.40" cy="40.48" r="3.08"/>
    <circle cx="141.35" cy="69.24" r="3.08"/>
    <circle cx="134.26" cy="47.28" r="3.08"/>
    <circle cx="145.22" cy="76.05" r="3.08"/>
    <circle cx="130.07" cy="24.35" r="3.08"/>
    <circle cx="149.09" cy="82.88" r="3.08"/>
    <circle cx="129.21" cy="16.56" r="3.08"/>
    <circle cx="133.94" cy="31.20" r="3.08"/>
    <circle cx="141.09" cy="53.14" r="3.08"/>
    <circle cx="152.96" cy="89.73" r="3.08"/>
    <circle cx="137.80" cy="38.06" r="3.08"/>
    <circle cx="144.98" cy="60.01" r="3.08"/>
    <circle cx="141.66" cy="44.95" r="3.08"/>
    <circle cx="156.84" cy="96.62" r="3.08"/>
    <circle cx="148.87" cy="66.90" r="3.08"/>
    <circle cx="137.56" cy="22.14" r="3.08"/>
    <circle cx="136.84" cy="14.38" r="3.08"/>
    <circle cx="152.76" cy="73.82" r="3.08"/>
    <circle cx="141.44" cy="29.08" r="3.08"/>
    <circle cx="160.72" cy="103.55" r="3.08"/>
    <circle cx="148.70" cy="51.05" r="3.08"/>
    <circle cx="145.31" cy="36.04" r="3.08"/>
    <circle cx="156.66" cy="80.79" r="3.08"/>
    <circle cx="149.19" cy="43.04" r="3.08"/>
    <circle cx="152.61" cy="58.04" r="3.08"/>
    <circle cx="145.14" cy="20.30" r="3.08"/>
    <circle cx="144.56" cy="12.56" r="3.08"/>
    <circle cx="160.55" cy="87.80" r="3.08"/>
    <circle cx="156.53" cy="65.06" r="3.08"/>
    <circle cx="149.03" cy="27.34" r="3.08"/>
    <circle cx="152.92" cy="34.42" r="3.08"/>
    <circle cx="164.45" cy="94.87" r="3.08"/>
    <circle cx="160.44" cy="72.14" r="3.08"/>
    <circle cx="156.43" cy="49.42" r="3.08"/>
    <circle cx="152.81" cy="18.82" r="3.08"/>
    <circle cx="156.81" cy="41.54" r="3.08"/>
    <circle cx="152.35" cy="11.09" r="3.08"/>
    <circle cx="160.36" cy="56.55" r="3.08"/>
    <circle cx="164.36" cy="79.28" r="3.08"/>
    <circle cx="156.71" cy="25.98" r="3.08"/>
    <circle cx="168.35" cy="102.02" r="3.08"/>
    <circle cx="164.29" cy="63.75" r="3.08"/>
    <circle cx="160.60" cy="33.20" r="3.08"/>
    <circle cx="168.28" cy="86.50" r="3.08"/>
    <circle cx="160.53" cy="17.70" r="3.08"/>
    <circle cx="164.24" cy="48.25" r="3.08"/>
    <circle cx="160.21" cy="9.99" r="3.08"/>
    <circle cx="164.50" cy="40.47" r="3.08"/>
    <circle cx="168.22" cy="71.02" r="3.08"/>
    <circle cx="164.44" cy="25.01" r="3.08"/>
    <circle cx="168.18" cy="55.56" r="3.08"/>
    <circle cx="172.20" cy="93.81" r="3.08"/>
    <circle cx="168.34" cy="32.38" r="3.08"/>
    <circle cx="172.16" cy="78.38" r="3.08"/>
  </g>
  <g style="fill:green; stroke:green" id="INC">
    <circle cx="168.30" cy="16.96" r="3.08"/>
    <circle cx="168.11" cy="9.26" r="3.08"/>
    <circle cx="172.13" cy="62.96" r="3.08"/>
    <circle cx="172.11" cy="47.54" r="3.08"/>
    <circle cx="172.24" cy="39.83" r="3.08"/>
    <circle cx="172.21" cy="24.43" r="3.08"/>
    <circle cx="176.11" cy="101.25" r="3.08"/>
    <circle cx="176.08" cy="85.85" r="3.08"/>
    <circle cx="176.07" cy="70.46" r="3.08"/>
    <circle cx="176.06" cy="55.06" r="3.08"/>
    <circle cx="176.11" cy="31.97" r="3.08"/>
    <circle cx="176.10" cy="16.59" r="3.08"/>
    <circle cx="176.03" cy="8.89" r="3.08"/>
    <circle cx="180.00" cy="47.31" r="3.08"/>
    <circle cx="180.00" cy="24.23" r="3.08"/>
    <circle cx="180.00" cy="39.62" r="3.08"/>
    <circle cx="180.00" cy="62.69" r="3.08"/>
    <circle cx="180.00" cy="78.08" r="3.08"/>
    <circle cx="180.00" cy="93.46" r="3.08"/>
    <circle cx="183.97" cy="8.89" r="3.08"/>
    <circle cx="183.90" cy="16.59" r="3.08"/>
    <circle cx="183.89" cy="31.97" r="3.08"/>
    <circle cx="183.94" cy="55.06" r="3.08"/>
    <circle cx="183.93" cy="70.46" r="3.08"/>
    <circle cx="183.92" cy="85.85" r="3.08"/>
    <circle cx="183.89" cy="101.25" r="3.08"/>
    <circle cx="187.79" cy="24.43" r="3.08"/>
    <circle cx="187.76" cy="39.83" r="3.08"/>
    <circle cx="187.89" cy="47.54" r="3.08"/>
    <circle cx="187.87" cy="62.96" r="3.08"/>
    <circle cx="191.89" cy="9.26" r="3.08"/>
    <circle cx="191.70" cy="16.96" r="3.08"/>
    <circle cx="187.84" cy="78.38" r="3.08"/>
    <circle cx="191.66" cy="32.38" r="3.08"/>
    <circle cx="187.80" cy="93.81" r="3.08"/>
    <circle cx="191.82" cy="55.56" r="3.08"/>
    <circle cx="195.56" cy="25.01" r="3.08"/>
    <circle cx="191.78" cy="71.02" r="3.08"/>
    <circle cx="195.50" cy="40.47" r="3.08"/>
    <circle cx="199.79" cy="9.99" r="3.08"/>
    <circle cx="195.76" cy="48.25" r="3.08"/>
    <circle cx="199.47" cy="17.70" r="3.08"/>
    <circle cx="191.72" cy="86.50" r="3.08"/>
    <circle cx="199.40" cy="33.20" r="3.08"/>
    <circle cx="195.71" cy="63.75" r="3.08"/>
    <circle cx="191.65" cy="102.02" r="3.08"/>
    <circle cx="203.29" cy="25.98" r="3.08"/>
    <circle cx="195.64" cy="79.28" r="3.08"/>
    <circle cx="199.64" cy="56.55" r="3.08"/>
    <circle cx="207.65" cy="11.09" r="3.08"/>
    <circle cx="203.19" cy="41.54" r="3.08"/>
    <circle cx="207.19" cy="18.82" r="3.08"/>
    <circle cx="203.57" cy="49.42" r="3.08"/>
    <circle cx="199.56" cy="72.14" r="3.08"/>
    <circle cx="195.55" cy="94.87" r="3.08"/>
    <circle cx="207.08" cy="34.42" r="3.08"/>
    <circle cx="210.97" cy="27.34" r="3.08"/>
    <circle cx="203.47" cy="65.06" r="3.08"/>
    <circle cx="199.45" cy="87.80" r="3.08"/>
    <circle cx="215.44" cy="12.56" r="3.08"/>
    <circle cx="214.86" cy="20.30" r="3.08"/>
    <circle cx="207.39" cy="58.04" r="3.08"/>
    <circle cx="210.81" cy="43.04" r="3.08"/>
    <circle cx="203.34" cy="80.79" r="3.08"/>
    <circle cx="214.69" cy="36.04" r="3.08"/>
    <circle cx="211.30" cy="51.05" r="3.08"/>
    <circle cx="199.28" cy="103.55" r="3.08"/>
    <circle cx="218.56" cy="29.08" r="3.08"/>
    <circle cx="207.24" cy="73.82" r="3.08"/>
    <circle cx="223.16" cy="14.38" r="3.08"/>
    <circle cx="222.44" cy="22.14" r="3.08"/>
    <circle cx="211.13" cy="66.90" r="3.08"/>
    <circle cx="203.16" cy="96.62" r="3.08"/>
    <circle cx="218.34" cy="44.95" r="3.08"/>
    <circle cx="215.02" cy="60.01" r="3.08"/>
    <circle cx="222.20" cy="38.06" r="3.08"/>
    <circle cx="207.04" cy="89.73" r="3.08"/>
    <circle cx="218.91" cy="53.14" r="3.08"/>
    <circle cx="226.06" cy="31.20" r="3.08"/>
    <circle cx="230.79" cy="16.56" r="3.08"/>
    <circle cx="210.91" cy="82.88" r="3.08"/>
    <circle cx="229.93" cy="24.35" r="3.08"/>
    <circle cx="214.78" cy="76.05" r="3.08"/>
    <circle cx="225.74" cy="47.28" r="3.08"/>
    <circle cx="218.65" cy="69.24" r="3.08"/>
    <circle cx="229.60" cy="40.48" r="3.08"/>
    <circle cx="206.73" cy="105.82" r="3.08"/>
    <circle cx="222.52" cy="62.45" r="3.08"/>
    <circle cx="238.31" cy="19.09" r="3.08"/>
    <circle cx="233.45" cy="33.69" r="3.08"/>
    <circle cx="226.39" cy="55.68" r="3.08"/>
    <circle cx="237.30" cy="26.91" r="3.08"/>
    <circle cx="210.59" cy="99.05" r="3.08"/>
    <circle cx="214.44" cy="92.29" r="3.08"/>
    <circle cx="218.29" cy="85.54" r="3.08"/>
    <circle cx="233.01" cy="50.01" r="3.08"/>
    <circle cx="245.70" cy="21.96" r="3.08"/>
    <circle cx="236.85" cy="43.27" r="3.08"/>
    <circle cx="222.15" cy="78.81" r="3.08"/>
    <circle cx="240.70" cy="36.54" r="3.08"/>
    <circle cx="226.00" cy="72.09" r="3.08"/>
    <circle cx="244.54" cy="29.82" r="3.08"/>
    <circle cx="229.85" cy="65.37" r="3.08"/>
    <circle cx="233.70" cy="58.66" r="3.08"/>
    <circle cx="252.96" cy="25.17" r="3.08"/>
    <circle cx="240.12" cy="53.14" r="3.08"/>
    <circle cx="213.92" cy="108.82" r="3.08"/>
    <circle cx="243.96" cy="46.45" r="3.08"/>
    <circle cx="247.80" cy="39.76" r="3.08"/>
    <circle cx="217.76" cy="102.13" r="3.08"/>
    <circle cx="251.64" cy="33.07" r="3.08"/>
    <circle cx="221.60" cy="95.45" r="3.08"/>
    <circle cx="225.45" cy="88.77" r="3.08"/>
    <circle cx="229.29" cy="82.09" r="3.08"/>
    <circle cx="233.14" cy="75.42" r="3.08"/>
    <circle cx="236.98" cy="68.74" r="3.08"/>
    <circle cx="240.83" cy="62.07" r="3.08"/>
    <circle cx="260.05" cy="28.72" r="3.08"/>
    <circle cx="247.04" cy="56.66" r="3.08"/>
    <circle cx="250.88" cy="49.99" r="3.08"/>
    <circle cx="254.73" cy="43.32" r="3.08"/>
    <circle cx="258.57" cy="36.66" r="3.08"/>
    <circle cx="266.98" cy="32.59" r="3.08"/>
    <circle cx="247.73" cy="65.90" r="3.08"/>
    <circle cx="243.88" cy="72.56" r="3.08"/>
    <circle cx="240.03" cy="79.22" r="3.08"/>
    <circle cx="236.18" cy="85.88" r="3.08"/>
    <circle cx="232.33" cy="92.54" r="3.08"/>
    <circle cx="228.48" cy="99.20" r="3.08"/>
    <circle cx="224.63" cy="105.86" r="3.08"/>
    <circle cx="220.78" cy="112.52" r="3.08"/>
    <circle cx="265.32" cy="40.57" r="3.08"/>
    <circle cx="261.47" cy="47.23" r="3.08"/>
    <circle cx="257.61" cy="53.89" r="3.08"/>
    <circle cx="253.76" cy="60.55" r="3.08"/>
    <circle cx="273.71" cy="36.78" r="3.08"/>
    <circle cx="254.40" cy="70.13" r="3.08"/>
    <circle cx="271.88" cy="44.81" r="3.08"/>
    <circle cx="250.53" cy="76.80" r="3.08"/>
    <circle cx="268.01" cy="51.47" r="3.08"/>
    <circle cx="264.13" cy="58.14" r="3.08"/>
    <circle cx="246.66" cy="83.47" r="3.08"/>
    <circle cx="260.25" cy="64.81" r="3.08"/>
    <circle cx="242.79" cy="90.15" r="3.08"/>
    <circle cx="238.91" cy="96.83" r="3.08"/>
    <circle cx="235.03" cy="103.50" r="3.08"/>
    <circle cx="280.25" cy="41.28" r="3.08"/>
    <circle cx="231.13" cy="110.18" r="3.08"/>
    <circle cx="227.24" cy="116.87" r="3.08"/>
    <circle cx="278.23" cy="49.35" r="3.08"/>
    <circle cx="274.32" cy="56.04" r="3.08"/>
    <circle cx="260.81" cy="74.75" r="3.08"/>
    <circle cx="270.41" cy="62.73" r="3.08"/>
    <circle cx="256.90" cy="81.45" r="3.08"/>
    <circle cx="266.49" cy="69.43" r="3.08"/>
    <circle cx="252.99" cy="88.16" r="3.08"/>
    <circle cx="286.57" cy="46.07" r="3.08"/>
    <circle cx="249.07" cy="94.88" r="3.08"/>
    <circle cx="284.35" cy="54.18" r="3.08"/>
    <circle cx="245.13" cy="101.61" r="3.08"/>
    <circle cx="280.41" cy="60.91" r="3.08"/>
    <circle cx="241.19" cy="108.34" r="3.08"/>
    <circle cx="276.45" cy="67.64" r="3.08"/>
    <circle cx="266.92" cy="79.74" r="3.08"/>
    <circle cx="292.66" cy="51.15" r="3.08"/>
    <circle cx="272.47" cy="74.38" r="3.08"/>
    <circle cx="237.22" cy="115.08" r="3.08"/>
    <circle cx="262.96" cy="86.50" r="3.08"/>
    <circle cx="258.99" cy="93.27" r="3.08"/>
    <circle cx="290.24" cy="59.31" r="3.08"/>
    <circle cx="233.23" cy="121.84" r="3.08"/>
    <circle cx="286.24" cy="66.08" r="3.08"/>
    <circle cx="254.99" cy="100.05" r="3.08"/>
    <circle cx="282.21" cy="72.86" r="3.08"/>
    <circle cx="298.51" cy="56.51" r="3.08"/>
    <circle cx="250.97" cy="106.85" r="3.08"/>
    <circle cx="272.73" cy="85.09" r="3.08"/>
    <circle cx="278.17" cy="79.65" r="3.08"/>
    <circle cx="295.88" cy="64.71" r="3.08"/>
    <circle cx="268.69" cy="91.92" r="3.08"/>
    <circle cx="246.93" cy="113.67" r="3.08"/>
    <circle cx="291.80" cy="71.53" r="3.08"/>
    <circle cx="264.63" cy="98.77" r="3.08"/>
    <circle cx="304.10" cy="62.14" r="3.08"/>
    <circle cx="242.84" cy="120.51" r="3.08"/>
    <circle cx="287.70" cy="78.38" r="3.08"/>
    <circle cx="260.53" cy="105.63" r="3.08"/>
    <circle cx="283.57" cy="85.23" r="3.08"/>
    <circle cx="278.22" cy="90.78" r="3.08"/>
    <circle cx="301.25" cy="70.37" r="3.08"/>
    <circle cx="238.71" cy="127.37" r="3.08"/>
    <circle cx="256.39" cy="112.53" r="3.08"/>
    <circle cx="297.09" cy="77.26" r="3.08"/>
    <circle cx="274.07" cy="97.69" r="3.08"/>
    <circle cx="309.43" cy="68.01" r="3.08"/>
    <circle cx="292.89" cy="84.17" r="3.08"/>
    <circle cx="252.21" cy="119.45" r="3.08"/>
    <circle cx="269.89" cy="104.63" r="3.08"/>
    <circle cx="306.34" cy="76.28" r="3.08"/>
    <circle cx="288.65" cy="91.10" r="3.08"/>
    <circle cx="283.35" cy="96.78" r="3.08"/>
    <circle cx="265.66" cy="111.60" r="3.08"/>
    <circle cx="302.08" cy="83.25" r="3.08"/>
    <circle cx="247.95" cy="126.42" r="3.08"/>
    <circle cx="314.48" cy="74.13" r="3.08"/>
    <circle cx="279.08" cy="103.78" r="3.08"/>
    <circle cx="297.77" cy="90.23" r="3.08"/>
    <circle cx="261.36" cy="118.61" r="3.08"/>
    <circle cx="311.15" cy="82.43" r="3.08"/>
    <circle cx="243.62" cy="133.42" r="3.08"/>
    <circle cx="274.74" cy="110.83" r="3.08"/>
    <circle cx="293.40" cy="97.25" r="3.08"/>
    <circle cx="319.24" cy="80.48" r="3.08"/>
    <circle cx="306.76" cy="89.47" r="3.08"/>
    <circle cx="288.12" cy="103.07" r="3.08"/>
    <circle cx="256.98" cy="125.66" r="3.08"/>
    <circle cx="270.34" cy="117.92" r="3.08"/>
    <circle cx="302.32" cy="96.54" r="3.08"/>
    <circle cx="283.69" cy="110.19" r="3.08"/>
    <circle cx="315.66" cy="88.80" r="3.08"/>
    <circle cx="252.51" cy="132.76" r="3.08"/>
    <circle cx="297.80" cy="103.64" r="3.08"/>
    <circle cx="323.70" cy="87.03" r="3.08"/>
    <circle cx="311.13" cy="95.93" r="3.08"/>
    <circle cx="265.84" cy="125.05" r="3.08"/>
    <circle cx="279.17" cy="117.34" r="3.08"/>
    <circle cx="292.50" cy="109.64" r="3.08"/>
    <circle cx="306.53" cy="103.08" r="3.08"/>
    <circle cx="319.86" cy="95.38" r="3.08"/>
    <circle cx="247.90" cy="139.93" r="3.08"/>
    <circle cx="261.23" cy="132.24" r="3.08"/>
    <circle cx="274.56" cy="124.55" r="3.08"/>
    <circle cx="287.88" cy="116.86" r="3.08"/>
    <circle cx="327.86" cy="93.79" r="3.08"/>
    <circle cx="315.17" cy="102.59" r="3.08"/>
    <circle cx="301.84" cy="110.27" r="3.08"/>
    <circle cx="296.49" cy="116.46" r="3.08"/>
    <circle cx="323.74" cy="102.16" r="3.08"/>
    <circle cx="283.15" cy="124.14" r="3.08"/>
    <circle cx="310.40" cy="109.83" r="3.08"/>
    <circle cx="269.82" cy="131.82" r="3.08"/>
    <circle cx="256.47" cy="139.49" r="3.08"/>
    <circle cx="331.69" cy="100.74" r="3.08"/>
    <circle cx="318.88" cy="109.45" r="3.08"/>
    <circle cx="291.65" cy="123.79" r="3.08"/>
    <circle cx="305.51" cy="117.12" r="3.08"/>
    <circle cx="278.29" cy="131.47" r="3.08"/>
    <circle cx="327.29" cy="109.11" r="3.08"/>
    <circle cx="264.92" cy="139.15" r="3.08"/>
    <circle cx="313.90" cy="116.78" r="3.08"/>
    <circle cx="300.06" cy="123.50" r="3.08"/>
    <circle cx="335.20" cy="107.85" r="3.08"/>
    <circle cx="251.53" cy="146.82" r="3.08"/>
    <circle cx="286.67" cy="131.19" r="3.08"/>
    <circle cx="322.23" cy="116.48" r="3.08"/>
    <circle cx="273.26" cy="138.87" r="3.08"/>
    <circle cx="308.80" cy="124.15" r="3.08"/>
    <circle cx="294.97" cy="130.95" r="3.08"/>
    <circle cx="330.50" cy="116.22" r="3.08"/>
    <circle cx="259.82" cy="146.56" r="3.08"/>
    <circle cx="338.38" cy="115.12" r="3.08"/>
    <circle cx="317.04" cy="123.90" r="3.08"/>
    <circle cx="281.52" cy="138.65" r="3.08"/>
    <circle cx="303.21" cy="130.74" r="3.08"/>
    <circle cx="325.23" cy="123.67" r="3.08"/>
    <circle cx="268.02" cy="146.35" r="3.08"/>
    <circle cx="289.70" cy="138.46" r="3.08"/>
    <circle cx="311.69" cy="131.36" r="3.08"/>
    <circle cx="333.38" cy="123.47" r="3.08"/>
    <circle cx="341.22" cy="122.53" r="3.08"/>
    <circle cx="297.84" cy="138.30" r="3.08"/>
    <circle cx="276.15" cy="146.17" r="3.08"/>
    <circle cx="319.79" cy="131.17" r="3.08"/>
    <circle cx="254.45" cy="154.04" r="3.08"/>
    <circle cx="305.92" cy="138.16" r="3.08"/>
    <circle cx="327.86" cy="131.01" r="3.08"/>
    <circle cx="284.22" cy="146.03" r="3.08"/>
    <circle cx="262.51" cy="153.89" r="3.08"/>
    <circle cx="335.90" cy="130.86" r="3.08"/>
    <circle cx="314.18" cy="138.71" r="3.08"/>
    <circle cx="343.71" cy="130.06" r="3.08"/>
    <circle cx="292.25" cy="145.91" r="3.08"/>
    <circle cx="322.17" cy="138.58" r="3.08"/>
    <circle cx="270.51" cy="153.77" r="3.08"/>
    <circle cx="300.23" cy="145.81" r="3.08"/>
    <circle cx="330.13" cy="138.46" r="3.08"/>
    <circle cx="308.19" cy="145.72" r="3.08"/>
    <circle cx="278.46" cy="153.67" r="3.08"/>
    <circle cx="338.07" cy="138.36" r="3.08"/>
    <circle cx="345.84" cy="137.70" r="3.08"/>
    <circle cx="286.39" cy="153.59" r="3.08"/>
    <circle cx="316.25" cy="146.20" r="3.08"/>
    <circle cx="256.65" cy="161.51" r="3.08"/>
    <circle cx="324.15" cy="146.10" r="3.08"/>
    <circle cx="294.28" cy="153.52" r="3.08"/>
    <circle cx="332.02" cy="146.02" r="3.08"/>
    <circle cx="264.52" cy="161.44" r="3.08"/>
    <circle cx="302.15" cy="153.46" r="3.08"/>
    <circle cx="339.88" cy="145.95" r="3.08"/>
    <circle cx="347.63" cy="145.43" r="3.08"/>
    <circle cx="310.00" cy="153.41" r="3.08"/>
    <circle cx="272.37" cy="161.38" r="3.08"/>
    <circle cx="317.91" cy="153.78" r="3.08"/>
    <circle cx="280.20" cy="161.33" r="3.08"/>
    <circle cx="325.73" cy="153.72" r="3.08"/>
  </g>
  <g style="fill:purple; stroke:purple" id="IND">
    <circle cx="288.01" cy="161.28" r="3.08"/>
    <circle cx="333.53" cy="153.67" r="3.08"/>
    <circle cx="341.32" cy="153.62" r="3.08"/>
    <circle cx="295.80" cy="161.25" r="3.08"/>
    <circle cx="349.05" cy="153.23" r="3.08"/>
    <circle cx="303.58" cy="161.22" r="3.08"/>
    <circle cx="311.35" cy="161.19" r="3.08"/>
    <circle cx="258.10" cy="169.17" r="3.08"/>
    <circle cx="319.15" cy="161.45" r="3.08"/>
    <circle cx="326.91" cy="161.41" r="3.08"/>
    <circle cx="265.85" cy="169.14" r="3.08"/>
    <circle cx="334.65" cy="161.38" r="3.08"/>
    <circle cx="273.60" cy="169.11" r="3.08"/>
    <circle cx="342.39" cy="161.35" r="3.08"/>
    <circle cx="350.11" cy="161.09" r="3.08"/>
    <circle cx="281.34" cy="169.09" r="3.08"/>
    <circle cx="289.07" cy="169.08" r="3.08"/>
    <circle cx="296.80" cy="169.06" r="3.08"/>
    <circle cx="304.52" cy="169.05" r="3.08"/>
    <circle cx="312.24" cy="169.04" r="3.08"/>
    <circle cx="319.97" cy="169.17" r="3.08"/>
  </g>
  <g style="fill:red; stroke:red" id="CPI">
    <circle cx="327.68" cy="169.15" r="3.08"/>
    <circle cx="335.39" cy="169.14" r="3.08"/>
    <circle cx="343.10" cy="169.13" r="3.08"/>
    <circle cx="350.80" cy="169.00" r="3.08"/>
    <circle cx="258.79" cy="176.92" r="3.08"/>
    <circle cx="266.48" cy="176.92" r="3.08"/>
    <circle cx="274.18" cy="176.92" r="3.08"/>
    <circle cx="281.88" cy="176.92" r="3.08"/>
    <circle cx="289.57" cy="176.92" r="3.08"/>
  </g>
  <g style="fill:orange; stroke:orange" id="BJP">
    <circle cx="297.27" cy="176.92" r="3.08"/>
    <circle cx="304.96" cy="176.92" r="3.08"/>
    <circle cx="312.66" cy="176.92" r="3.08"/>
    <circle cx="320.35" cy="176.92" r="3.08"/>
    <circle cx="328.04" cy="176.92" r="3.08"/>
    <circle cx="335.74" cy="176.92" r="3.08"/>
    <circle cx="343.43" cy="176.92" r="3.08"/>
  </g>
  <g style="fill:pink; stroke:pink" id="CPM">
    <circle cx="351.13" cy="176.92" r="3.08"/>
  </g>
</g>
</svg>
