<?xml version="1.0" encoding="UTF-8" standalone="no"?>
<svg xmlns:svg="http://www.w3.org/2000/svg"
xmlns="http://www.w3.org/2000/svg" version="1.1"
width="360" height="185">
<!-- Created with the Wikimedia parliament diagram creator (http://tools.wmflabs.org/parliamentdiagram/parliamentinputform.html) -->
<g>
<text x="175" y="175" style="font-size:36px;font-weight:bold;text-align:center;text-anchor:middle;font-family:sans-serif">735</text>
  <g style="fill:green; stroke:green" id="INC">
    <circle cx="8.60" cy="177.14" r="2.86"/>
    <circle cx="15.74" cy="177.14" r="2.86"/>
    <circle cx="22.88" cy="177.14" r="2.86"/>
    <circle cx="30.03" cy="177.14" r="2.86"/>
    <circle cx="37.17" cy="177.14" r="2.86"/>
    <circle cx="44.32" cy="177.14" r="2.86"/>
    <circle cx="51.46" cy="177.14" r="2.86"/>
    <circle cx="58.61" cy="177.14" r="2.86"/>
    <circle cx="65.75" cy="177.14" r="2.86"/>
    <circle cx="72.90" cy="177.14" r="2.86"/>
    <circle cx="80.04" cy="177.14" r="2.86"/>
    <circle cx="87.19" cy="177.14" r="2.86"/>
    <circle cx="94.33" cy="177.14" r="2.86"/>
    <circle cx="101.48" cy="177.14" r="2.86"/>
    <circle cx="8.88" cy="169.64" r="2.86"/>
    <circle cx="16.04" cy="169.64" r="2.86"/>
    <circle cx="23.20" cy="169.64" r="2.86"/>
    <circle cx="30.36" cy="169.64" r="2.86"/>
    <circle cx="37.52" cy="169.64" r="2.86"/>
    <circle cx="44.68" cy="169.64" r="2.86"/>
    <circle cx="51.85" cy="169.64" r="2.86"/>
    <circle cx="59.01" cy="169.64" r="2.86"/>
    <circle cx="66.18" cy="169.64" r="2.86"/>
    <circle cx="73.36" cy="169.64" r="2.86"/>
    <circle cx="80.54" cy="169.64" r="2.86"/>
    <circle cx="9.50" cy="162.17" r="2.86"/>
    <circle cx="16.69" cy="162.17" r="2.86"/>
    <circle cx="87.72" cy="169.64" r="2.86"/>
    <circle cx="23.87" cy="162.17" r="2.86"/>
    <circle cx="31.06" cy="162.17" r="2.86"/>
    <circle cx="94.91" cy="169.64" r="2.86"/>
    <circle cx="38.26" cy="162.17" r="2.86"/>
    <circle cx="45.46" cy="162.17" r="2.86"/>
    <circle cx="102.11" cy="169.64" r="2.86"/>
    <circle cx="52.67" cy="162.17" r="2.86"/>
    <circle cx="59.89" cy="162.18" r="2.86"/>
    <circle cx="10.45" cy="154.72" r="2.86"/>
    <circle cx="17.67" cy="154.73" r="2.86"/>
    <circle cx="67.11" cy="162.18" r="2.86"/>
    <circle cx="24.90" cy="154.73" r="2.86"/>
    <circle cx="74.35" cy="162.19" r="2.86"/>
    <circle cx="32.14" cy="154.74" r="2.86"/>
    <circle cx="39.39" cy="154.75" r="2.86"/>
    <circle cx="81.60" cy="162.19" r="2.86"/>
    <circle cx="46.65" cy="154.76" r="2.86"/>
    <circle cx="11.71" cy="147.32" r="2.86"/>
    <circle cx="88.86" cy="162.20" r="2.86"/>
    <circle cx="53.93" cy="154.77" r="2.86"/>
    <circle cx="18.99" cy="147.34" r="2.86"/>
    <circle cx="96.15" cy="162.21" r="2.86"/>
    <circle cx="61.22" cy="154.78" r="2.86"/>
    <circle cx="26.29" cy="147.35" r="2.86"/>
    <circle cx="33.59" cy="147.37" r="2.86"/>
    <circle cx="68.53" cy="154.80" r="2.86"/>
    <circle cx="103.46" cy="162.23" r="2.86"/>
    <circle cx="40.91" cy="147.39" r="2.86"/>
    <circle cx="13.31" cy="139.99" r="2.86"/>
    <circle cx="75.86" cy="154.82" r="2.86"/>
    <circle cx="48.25" cy="147.42" r="2.86"/>
    <circle cx="20.65" cy="140.02" r="2.86"/>
    <circle cx="83.22" cy="154.85" r="2.86"/>
    <circle cx="55.62" cy="147.45" r="2.86"/>
    <circle cx="28.02" cy="140.05" r="2.86"/>
    <circle cx="35.41" cy="140.09" r="2.86"/>
    <circle cx="63.01" cy="147.48" r="2.86"/>
    <circle cx="90.60" cy="154.88" r="2.86"/>
    <circle cx="15.22" cy="132.73" r="2.86"/>
    <circle cx="42.82" cy="140.13" r="2.86"/>
    <circle cx="70.42" cy="147.53" r="2.86"/>
    <circle cx="22.65" cy="132.78" r="2.86"/>
    <circle cx="98.04" cy="154.92" r="2.86"/>
    <circle cx="50.26" cy="140.18" r="2.86"/>
    <circle cx="30.10" cy="132.84" r="2.86"/>
    <circle cx="77.88" cy="147.58" r="2.86"/>
    <circle cx="57.73" cy="140.24" r="2.86"/>
    <circle cx="37.59" cy="132.90" r="2.86"/>
    <circle cx="17.44" cy="125.57" r="2.86"/>
    <circle cx="105.52" cy="154.98" r="2.86"/>
    <circle cx="85.38" cy="147.64" r="2.86"/>
    <circle cx="65.24" cy="140.31" r="2.86"/>
    <circle cx="45.10" cy="132.98" r="2.86"/>
    <circle cx="24.97" cy="125.65" r="2.86"/>
    <circle cx="32.52" cy="125.73" r="2.86"/>
    <circle cx="52.66" cy="133.06" r="2.86"/>
    <circle cx="72.80" cy="140.39" r="2.86"/>
    <circle cx="92.93" cy="147.73" r="2.86"/>
    <circle cx="19.98" cy="118.51" r="2.86"/>
    <circle cx="40.12" cy="125.84" r="2.86"/>
    <circle cx="60.26" cy="133.17" r="2.86"/>
    <circle cx="80.41" cy="140.50" r="2.86"/>
    <circle cx="27.61" cy="118.62" r="2.86"/>
    <circle cx="100.55" cy="147.83" r="2.86"/>
    <circle cx="47.76" cy="125.95" r="2.86"/>
    <circle cx="67.92" cy="133.29" r="2.86"/>
    <circle cx="35.28" cy="118.75" r="2.86"/>
    <circle cx="88.08" cy="140.62" r="2.86"/>
    <circle cx="55.45" cy="126.09" r="2.86"/>
    <circle cx="22.83" cy="111.56" r="2.86"/>
    <circle cx="43.01" cy="118.90" r="2.86"/>
    <circle cx="75.63" cy="133.43" r="2.86"/>
    <circle cx="108.26" cy="147.96" r="2.86"/>
    <circle cx="30.57" cy="111.73" r="2.86"/>
    <circle cx="63.20" cy="126.25" r="2.86"/>
    <circle cx="95.83" cy="140.78" r="2.86"/>
    <circle cx="50.78" cy="119.08" r="2.86"/>
    <circle cx="83.42" cy="133.61" r="2.86"/>
    <circle cx="38.37" cy="111.91" r="2.86"/>
    <circle cx="25.97" cy="104.75" r="2.86"/>
    <circle cx="71.02" cy="126.44" r="2.86"/>
    <circle cx="58.62" cy="119.28" r="2.86"/>
    <circle cx="46.23" cy="112.13" r="2.86"/>
    <circle cx="103.68" cy="140.98" r="2.86"/>
    <circle cx="33.85" cy="104.97" r="2.86"/>
    <circle cx="91.30" cy="133.83" r="2.86"/>
    <circle cx="78.92" cy="126.67" r="2.86"/>
    <circle cx="66.54" cy="119.52" r="2.86"/>
    <circle cx="54.16" cy="112.37" r="2.86"/>
    <circle cx="41.79" cy="105.23" r="2.86"/>
    <circle cx="29.41" cy="98.08" r="2.86"/>
    <circle cx="111.65" cy="141.24" r="2.86"/>
    <circle cx="99.28" cy="134.10" r="2.86"/>
    <circle cx="86.91" cy="126.95" r="2.86"/>
    <circle cx="74.54" cy="119.81" r="2.86"/>
    <circle cx="62.17" cy="112.66" r="2.86"/>
    <circle cx="49.80" cy="105.52" r="2.86"/>
    <circle cx="37.43" cy="98.37" r="2.86"/>
    <circle cx="33.14" cy="91.57" r="2.86"/>
    <circle cx="45.52" cy="98.71" r="2.86"/>
    <circle cx="57.89" cy="105.86" r="2.86"/>
    <circle cx="70.27" cy="113.00" r="2.86"/>
    <circle cx="82.64" cy="120.14" r="2.86"/>
    <circle cx="95.02" cy="127.29" r="2.86"/>
    <circle cx="107.40" cy="134.44" r="2.86"/>
    <circle cx="41.30" cy="91.95" r="2.86"/>
    <circle cx="53.69" cy="99.10" r="2.86"/>
    <circle cx="66.08" cy="106.25" r="2.86"/>
    <circle cx="78.47" cy="113.40" r="2.86"/>
    <circle cx="37.15" cy="85.23" r="2.86"/>
    <circle cx="90.86" cy="120.55" r="2.86"/>
    <circle cx="49.55" cy="92.38" r="2.86"/>
    <circle cx="103.26" cy="127.71" r="2.86"/>
    <circle cx="61.95" cy="99.54" r="2.86"/>
    <circle cx="74.37" cy="106.71" r="2.86"/>
    <circle cx="45.47" cy="85.71" r="2.86"/>
    <circle cx="115.68" cy="134.88" r="2.86"/>
    <circle cx="86.79" cy="113.87" r="2.86"/>
    <circle cx="57.89" cy="92.88" r="2.86"/>
    <circle cx="41.44" cy="79.06" r="2.86"/>
    <circle cx="70.33" cy="100.06" r="2.86"/>
    <circle cx="99.22" cy="121.05" r="2.86"/>
    <circle cx="53.88" cy="86.25" r="2.86"/>
    <circle cx="82.78" cy="107.25" r="2.86"/>
    <circle cx="111.68" cy="128.24" r="2.86"/>
    <circle cx="66.35" cy="93.45" r="2.86"/>
    <circle cx="49.92" cy="79.66" r="2.86"/>
    <circle cx="95.25" cy="114.45" r="2.86"/>
    <circle cx="78.83" cy="100.66" r="2.86"/>
    <circle cx="62.41" cy="86.88" r="2.86"/>
    <circle cx="45.99" cy="73.10" r="2.86"/>
    <circle cx="107.75" cy="121.67" r="2.86"/>
    <circle cx="91.33" cy="107.89" r="2.86"/>
    <circle cx="74.92" cy="94.11" r="2.86"/>
    <circle cx="58.50" cy="80.34" r="2.86"/>
    <circle cx="54.64" cy="73.82" r="2.86"/>
    <circle cx="71.05" cy="87.60" r="2.86"/>
    <circle cx="87.47" cy="101.37" r="2.86"/>
    <circle cx="103.88" cy="115.15" r="2.86"/>
    <circle cx="120.30" cy="128.92" r="2.86"/>
    <circle cx="50.79" cy="67.33" r="2.86"/>
    <circle cx="67.21" cy="81.11" r="2.86"/>
    <circle cx="83.63" cy="94.89" r="2.86"/>
    <circle cx="100.06" cy="108.67" r="2.86"/>
    <circle cx="63.40" cy="74.65" r="2.86"/>
    <circle cx="116.48" cy="122.45" r="2.86"/>
    <circle cx="79.83" cy="88.43" r="2.86"/>
    <circle cx="59.62" cy="68.21" r="2.86"/>
    <circle cx="96.27" cy="102.22" r="2.86"/>
    <circle cx="76.06" cy="82.00" r="2.86"/>
    <circle cx="112.71" cy="116.01" r="2.86"/>
    <circle cx="55.85" cy="61.79" r="2.86"/>
    <circle cx="92.51" cy="95.80" r="2.86"/>
    <circle cx="72.30" cy="75.59" r="2.86"/>
    <circle cx="108.97" cy="109.61" r="2.86"/>
    <circle cx="88.77" cy="89.40" r="2.86"/>
    <circle cx="68.57" cy="69.20" r="2.86"/>
    <circle cx="64.85" cy="62.83" r="2.86"/>
    <circle cx="85.05" cy="83.03" r="2.86"/>
    <circle cx="105.26" cy="103.24" r="2.86"/>
    <circle cx="125.46" cy="123.44" r="2.86"/>
    <circle cx="61.14" cy="56.47" r="2.86"/>
    <circle cx="81.35" cy="76.67" r="2.86"/>
    <circle cx="101.56" cy="96.88" r="2.86"/>
    <circle cx="77.66" cy="70.33" r="2.86"/>
    <circle cx="121.78" cy="117.10" r="2.86"/>
    <circle cx="97.88" cy="90.55" r="2.86"/>
    <circle cx="73.98" cy="64.01" r="2.86"/>
    <circle cx="70.32" cy="57.69" r="2.86"/>
    <circle cx="94.22" cy="84.23" r="2.86"/>
    <circle cx="118.11" cy="110.77" r="2.86"/>
    <circle cx="66.66" cy="51.38" r="2.86"/>
    <circle cx="90.56" cy="77.93" r="2.86"/>
    <circle cx="114.46" cy="104.47" r="2.86"/>
    <circle cx="86.91" cy="71.63" r="2.86"/>
    <circle cx="110.82" cy="98.18" r="2.86"/>
    <circle cx="83.28" cy="65.35" r="2.86"/>
    <circle cx="79.65" cy="59.08" r="2.86"/>
    <circle cx="107.19" cy="91.91" r="2.86"/>
    <circle cx="76.02" cy="52.81" r="2.86"/>
    <circle cx="103.57" cy="85.64" r="2.86"/>
    <circle cx="72.40" cy="46.55" r="2.86"/>
    <circle cx="99.96" cy="79.38" r="2.86"/>
    <circle cx="131.13" cy="118.48" r="2.86"/>
    <circle cx="96.34" cy="73.14" r="2.86"/>
    <circle cx="127.52" cy="112.23" r="2.86"/>
    <circle cx="92.74" cy="66.89" r="2.86"/>
    <circle cx="89.13" cy="60.65" r="2.86"/>
    <circle cx="123.92" cy="105.99" r="2.86"/>
    <circle cx="85.53" cy="54.42" r="2.86"/>
    <circle cx="81.94" cy="48.19" r="2.86"/>
    <circle cx="120.32" cy="99.76" r="2.86"/>
    <circle cx="78.34" cy="41.97" r="2.86"/>
    <circle cx="116.73" cy="93.53" r="2.86"/>
    <circle cx="113.14" cy="87.31" r="2.86"/>
    <circle cx="109.55" cy="81.09" r="2.86"/>
    <circle cx="105.97" cy="74.88" r="2.86"/>
    <circle cx="102.38" cy="68.67" r="2.86"/>
    <circle cx="98.80" cy="62.46" r="2.86"/>
    <circle cx="95.22" cy="56.26" r="2.86"/>
    <circle cx="91.64" cy="50.05" r="2.86"/>
    <circle cx="88.06" cy="43.85" r="2.86"/>
    <circle cx="84.48" cy="37.65" r="2.86"/>
    <circle cx="137.24" cy="114.08" r="2.86"/>
    <circle cx="133.67" cy="107.89" r="2.86"/>
    <circle cx="130.10" cy="101.69" r="2.86"/>
    <circle cx="126.52" cy="95.50" r="2.86"/>
    <circle cx="122.95" cy="89.31" r="2.86"/>
    <circle cx="119.38" cy="83.12" r="2.86"/>
    <circle cx="115.81" cy="76.93" r="2.86"/>
    <circle cx="112.23" cy="70.74" r="2.86"/>
    <circle cx="108.66" cy="64.55" r="2.86"/>
    <circle cx="105.09" cy="58.36" r="2.86"/>
    <circle cx="101.52" cy="52.17" r="2.86"/>
    <circle cx="97.95" cy="45.98" r="2.86"/>
    <circle cx="94.37" cy="39.79" r="2.86"/>
    <circle cx="90.80" cy="33.61" r="2.86"/>
    <circle cx="97.29" cy="29.84" r="2.86"/>
    <circle cx="100.87" cy="36.03" r="2.86"/>
    <circle cx="104.44" cy="42.22" r="2.86"/>
    <circle cx="108.01" cy="48.40" r="2.86"/>
    <circle cx="111.58" cy="54.59" r="2.86"/>
    <circle cx="115.16" cy="60.78" r="2.86"/>
    <circle cx="118.73" cy="66.97" r="2.86"/>
    <circle cx="122.30" cy="73.15" r="2.86"/>
    <circle cx="125.88" cy="79.34" r="2.86"/>
    <circle cx="129.45" cy="85.53" r="2.86"/>
    <circle cx="133.03" cy="91.72" r="2.86"/>
    <circle cx="136.60" cy="97.91" r="2.86"/>
    <circle cx="140.18" cy="104.10" r="2.86"/>
    <circle cx="143.75" cy="110.29" r="2.86"/>
    <circle cx="103.94" cy="26.37" r="2.86"/>
    <circle cx="107.52" cy="32.56" r="2.86"/>
    <circle cx="111.11" cy="38.76" r="2.86"/>
    <circle cx="114.69" cy="44.97" r="2.86"/>
    <circle cx="118.27" cy="51.17" r="2.86"/>
    <circle cx="121.85" cy="57.37" r="2.86"/>
    <circle cx="125.44" cy="63.58" r="2.86"/>
    <circle cx="129.02" cy="69.79" r="2.86"/>
    <circle cx="132.61" cy="76.00" r="2.86"/>
    <circle cx="136.20" cy="82.22" r="2.86"/>
    <circle cx="110.74" cy="23.18" r="2.86"/>
    <circle cx="139.79" cy="88.44" r="2.86"/>
    <circle cx="114.33" cy="29.41" r="2.86"/>
    <circle cx="117.93" cy="35.64" r="2.86"/>
    <circle cx="143.39" cy="94.66" r="2.86"/>
    <circle cx="121.52" cy="41.87" r="2.86"/>
    <circle cx="146.99" cy="100.90" r="2.86"/>
    <circle cx="125.12" cy="48.10" r="2.86"/>
    <circle cx="128.72" cy="54.34" r="2.86"/>
    <circle cx="150.59" cy="107.14" r="2.86"/>
    <circle cx="132.33" cy="60.59" r="2.86"/>
    <circle cx="117.67" cy="20.30" r="2.86"/>
    <circle cx="135.94" cy="66.85" r="2.86"/>
    <circle cx="121.28" cy="26.57" r="2.86"/>
    <circle cx="139.55" cy="73.11" r="2.86"/>
    <circle cx="124.89" cy="32.84" r="2.86"/>
    <circle cx="143.17" cy="79.39" r="2.86"/>
    <circle cx="128.51" cy="39.11" r="2.86"/>
    <circle cx="132.13" cy="45.40" r="2.86"/>
    <circle cx="146.79" cy="85.68" r="2.86"/>
    <circle cx="135.75" cy="51.70" r="2.86"/>
    <circle cx="124.72" cy="17.73" r="2.86"/>
    <circle cx="150.42" cy="91.98" r="2.86"/>
    <circle cx="139.38" cy="58.01" r="2.86"/>
    <circle cx="128.35" cy="24.04" r="2.86"/>
    <circle cx="131.98" cy="30.37" r="2.86"/>
    <circle cx="143.02" cy="64.34" r="2.86"/>
    <circle cx="154.06" cy="98.31" r="2.86"/>
    <circle cx="135.62" cy="36.71" r="2.86"/>
    <circle cx="146.66" cy="70.68" r="2.86"/>
    <circle cx="139.27" cy="43.07" r="2.86"/>
    <circle cx="157.70" cy="104.66" r="2.86"/>
    <circle cx="131.87" cy="15.47" r="2.86"/>
    <circle cx="150.31" cy="77.05" r="2.86"/>
    <circle cx="142.92" cy="49.45" r="2.86"/>
    <circle cx="135.53" cy="21.85" r="2.86"/>
    <circle cx="153.97" cy="83.45" r="2.86"/>
    <circle cx="146.58" cy="55.85" r="2.86"/>
    <circle cx="139.18" cy="28.25" r="2.86"/>
    <circle cx="142.85" cy="34.67" r="2.86"/>
    <circle cx="150.24" cy="62.27" r="2.86"/>
    <circle cx="157.64" cy="89.87" r="2.86"/>
    <circle cx="139.12" cy="13.52" r="2.86"/>
    <circle cx="146.52" cy="41.12" r="2.86"/>
    <circle cx="153.92" cy="68.73" r="2.86"/>
    <circle cx="142.80" cy="19.98" r="2.86"/>
    <circle cx="150.20" cy="47.60" r="2.86"/>
    <circle cx="161.32" cy="96.34" r="2.86"/>
    <circle cx="146.48" cy="26.47" r="2.86"/>
    <circle cx="157.61" cy="75.22" r="2.86"/>
    <circle cx="153.89" cy="54.11" r="2.86"/>
    <circle cx="150.17" cy="33.00" r="2.86"/>
    <circle cx="146.45" cy="11.89" r="2.86"/>
    <circle cx="165.02" cy="102.87" r="2.86"/>
    <circle cx="161.30" cy="81.76" r="2.86"/>
    <circle cx="157.58" cy="60.66" r="2.86"/>
    <circle cx="153.86" cy="39.55" r="2.86"/>
    <circle cx="150.14" cy="18.45" r="2.86"/>
    <circle cx="153.85" cy="25.05" r="2.86"/>
    <circle cx="157.57" cy="46.15" r="2.86"/>
    <circle cx="161.29" cy="67.26" r="2.86"/>
    <circle cx="165.01" cy="88.36" r="2.86"/>
    <circle cx="153.84" cy="10.58" r="2.86"/>
    <circle cx="157.56" cy="31.69" r="2.86"/>
    <circle cx="161.28" cy="52.80" r="2.86"/>
    <circle cx="165.01" cy="73.91" r="2.86"/>
    <circle cx="157.55" cy="17.26" r="2.86"/>
    <circle cx="168.74" cy="95.03" r="2.86"/>
    <circle cx="161.28" cy="38.37" r="2.86"/>
    <circle cx="165.01" cy="59.50" r="2.86"/>
    <circle cx="161.28" cy="23.98" r="2.86"/>
    <circle cx="168.74" cy="80.64" r="2.86"/>
    <circle cx="165.01" cy="45.12" r="2.86"/>
    <circle cx="161.28" cy="9.60" r="2.86"/>
    <circle cx="165.01" cy="30.75" r="2.86"/>
    <circle cx="168.74" cy="66.27" r="2.86"/>
    <circle cx="172.48" cy="101.79" r="2.86"/>
    <circle cx="165.01" cy="16.40" r="2.86"/>
    <circle cx="168.74" cy="51.92" r="2.86"/>
    <circle cx="172.48" cy="87.45" r="2.86"/>
    <circle cx="168.75" cy="37.59" r="2.86"/>
    <circle cx="168.75" cy="23.26" r="2.86"/>
    <circle cx="172.49" cy="73.12" r="2.86"/>
    <circle cx="168.75" cy="8.94" r="2.86"/>
    <circle cx="172.49" cy="58.80" r="2.86"/>
    <circle cx="172.49" cy="44.49" r="2.86"/>
    <circle cx="172.49" cy="30.19" r="2.86"/>
    <circle cx="172.50" cy="15.89" r="2.86"/>
    <circle cx="176.24" cy="94.37" r="2.86"/>
    <circle cx="176.24" cy="80.07" r="2.86"/>
    <circle cx="176.24" cy="65.78" r="2.86"/>
    <circle cx="176.24" cy="51.48" r="2.86"/>
    <circle cx="176.25" cy="37.19" r="2.86"/>
    <circle cx="176.25" cy="22.90" r="2.86"/>
    <circle cx="176.25" cy="8.61" r="2.86"/>
    <circle cx="180.00" cy="15.71" r="2.86"/>
    <circle cx="180.00" cy="30.00" r="2.86"/>
    <circle cx="180.00" cy="44.29" r="2.86"/>
    <circle cx="180.00" cy="58.57" r="2.86"/>
    <circle cx="180.00" cy="72.86" r="2.86"/>
    <circle cx="180.00" cy="87.14" r="2.86"/>
    <circle cx="180.00" cy="101.43" r="2.86"/>
    <circle cx="183.75" cy="8.61" r="2.86"/>
    <circle cx="183.75" cy="22.90" r="2.86"/>
    <circle cx="183.75" cy="37.19" r="2.86"/>
    <circle cx="183.76" cy="51.48" r="2.86"/>
    <circle cx="183.76" cy="65.78" r="2.86"/>
  </g>
  <g style="fill:yellow; stroke:yellow" id="TDP">
    <circle cx="183.76" cy="80.07" r="2.86"/>
    <circle cx="183.76" cy="94.37" r="2.86"/>
    <circle cx="187.50" cy="15.89" r="2.86"/>
    <circle cx="187.51" cy="30.19" r="2.86"/>
    <circle cx="187.51" cy="44.49" r="2.86"/>
    <circle cx="187.51" cy="58.80" r="2.86"/>
    <circle cx="191.25" cy="8.94" r="2.86"/>
    <circle cx="187.51" cy="73.12" r="2.86"/>
    <circle cx="191.25" cy="23.26" r="2.86"/>
    <circle cx="191.25" cy="37.59" r="2.86"/>
    <circle cx="187.52" cy="87.45" r="2.86"/>
    <circle cx="191.26" cy="51.92" r="2.86"/>
    <circle cx="194.99" cy="16.40" r="2.86"/>
    <circle cx="187.52" cy="101.79" r="2.86"/>
    <circle cx="191.26" cy="66.27" r="2.86"/>
    <circle cx="194.99" cy="30.75" r="2.86"/>
    <circle cx="198.72" cy="9.60" r="2.86"/>
    <circle cx="194.99" cy="45.12" r="2.86"/>
    <circle cx="191.26" cy="80.64" r="2.86"/>
    <circle cx="198.72" cy="23.98" r="2.86"/>
    <circle cx="194.99" cy="59.50" r="2.86"/>
    <circle cx="198.72" cy="38.37" r="2.86"/>
    <circle cx="191.26" cy="95.03" r="2.86"/>
    <circle cx="202.45" cy="17.26" r="2.86"/>
    <circle cx="194.99" cy="73.91" r="2.86"/>
    <circle cx="198.72" cy="52.80" r="2.86"/>
    <circle cx="202.44" cy="31.69" r="2.86"/>
    <circle cx="206.16" cy="10.58" r="2.86"/>
    <circle cx="194.99" cy="88.36" r="2.86"/>
    <circle cx="198.71" cy="67.26" r="2.86"/>
    <circle cx="202.43" cy="46.15" r="2.86"/>
    <circle cx="206.15" cy="25.05" r="2.86"/>
    <circle cx="209.86" cy="18.45" r="2.86"/>
    <circle cx="206.14" cy="39.55" r="2.86"/>
    <circle cx="202.42" cy="60.66" r="2.86"/>
    <circle cx="198.70" cy="81.76" r="2.86"/>
    <circle cx="194.98" cy="102.87" r="2.86"/>
    <circle cx="213.55" cy="11.89" r="2.86"/>
    <circle cx="209.83" cy="33.00" r="2.86"/>
    <circle cx="206.11" cy="54.11" r="2.86"/>
    <circle cx="202.39" cy="75.22" r="2.86"/>
    <circle cx="213.52" cy="26.47" r="2.86"/>
    <circle cx="198.68" cy="96.34" r="2.86"/>
    <circle cx="209.80" cy="47.60" r="2.86"/>
    <circle cx="217.20" cy="19.98" r="2.86"/>
    <circle cx="206.08" cy="68.73" r="2.86"/>
    <circle cx="213.48" cy="41.12" r="2.86"/>
    <circle cx="220.88" cy="13.52" r="2.86"/>
    <circle cx="202.36" cy="89.87" r="2.86"/>
    <circle cx="209.76" cy="62.27" r="2.86"/>
    <circle cx="217.15" cy="34.67" r="2.86"/>
    <circle cx="220.82" cy="28.25" r="2.86"/>
    <circle cx="213.42" cy="55.85" r="2.86"/>
    <circle cx="206.03" cy="83.45" r="2.86"/>
    <circle cx="224.47" cy="21.85" r="2.86"/>
    <circle cx="217.08" cy="49.45" r="2.86"/>
    <circle cx="209.69" cy="77.05" r="2.86"/>
    <circle cx="228.13" cy="15.47" r="2.86"/>
    <circle cx="202.30" cy="104.66" r="2.86"/>
    <circle cx="220.73" cy="43.07" r="2.86"/>
    <circle cx="213.34" cy="70.68" r="2.86"/>
    <circle cx="224.38" cy="36.71" r="2.86"/>
    <circle cx="205.94" cy="98.31" r="2.86"/>
    <circle cx="216.98" cy="64.34" r="2.86"/>
    <circle cx="228.02" cy="30.37" r="2.86"/>
    <circle cx="231.65" cy="24.04" r="2.86"/>
    <circle cx="220.62" cy="58.01" r="2.86"/>
    <circle cx="209.58" cy="91.98" r="2.86"/>
    <circle cx="235.28" cy="17.73" r="2.86"/>
    <circle cx="224.25" cy="51.70" r="2.86"/>
    <circle cx="213.21" cy="85.68" r="2.86"/>
    <circle cx="227.87" cy="45.40" r="2.86"/>
    <circle cx="231.49" cy="39.11" r="2.86"/>
    <circle cx="216.83" cy="79.39" r="2.86"/>
    <circle cx="235.11" cy="32.84" r="2.86"/>
    <circle cx="220.45" cy="73.11" r="2.86"/>
    <circle cx="238.72" cy="26.57" r="2.86"/>
    <circle cx="224.06" cy="66.85" r="2.86"/>
    <circle cx="242.33" cy="20.30" r="2.86"/>
    <circle cx="227.67" cy="60.59" r="2.86"/>
    <circle cx="209.41" cy="107.14" r="2.86"/>
    <circle cx="231.28" cy="54.34" r="2.86"/>
    <circle cx="234.88" cy="48.10" r="2.86"/>
    <circle cx="213.01" cy="100.90" r="2.86"/>
    <circle cx="238.48" cy="41.87" r="2.86"/>
    <circle cx="216.61" cy="94.66" r="2.86"/>
    <circle cx="242.07" cy="35.64" r="2.86"/>
    <circle cx="245.67" cy="29.41" r="2.86"/>
    <circle cx="220.21" cy="88.44" r="2.86"/>
    <circle cx="249.26" cy="23.18" r="2.86"/>
    <circle cx="223.80" cy="82.22" r="2.86"/>
    <circle cx="227.39" cy="76.00" r="2.86"/>
    <circle cx="230.98" cy="69.79" r="2.86"/>
    <circle cx="234.56" cy="63.58" r="2.86"/>
    <circle cx="238.15" cy="57.37" r="2.86"/>
    <circle cx="241.73" cy="51.17" r="2.86"/>
    <circle cx="245.31" cy="44.97" r="2.86"/>
    <circle cx="248.89" cy="38.76" r="2.86"/>
    <circle cx="252.48" cy="32.56" r="2.86"/>
    <circle cx="256.06" cy="26.37" r="2.86"/>
    <circle cx="216.25" cy="110.29" r="2.86"/>
    <circle cx="219.82" cy="104.10" r="2.86"/>
    <circle cx="223.40" cy="97.91" r="2.86"/>
    <circle cx="226.97" cy="91.72" r="2.86"/>
    <circle cx="230.55" cy="85.53" r="2.86"/>
    <circle cx="234.12" cy="79.34" r="2.86"/>
    <circle cx="237.70" cy="73.15" r="2.86"/>
    <circle cx="241.27" cy="66.97" r="2.86"/>
    <circle cx="244.84" cy="60.78" r="2.86"/>
    <circle cx="248.42" cy="54.59" r="2.86"/>
    <circle cx="251.99" cy="48.40" r="2.86"/>
    <circle cx="255.56" cy="42.22" r="2.86"/>
    <circle cx="259.13" cy="36.03" r="2.86"/>
    <circle cx="262.71" cy="29.84" r="2.86"/>
    <circle cx="269.20" cy="33.61" r="2.86"/>
    <circle cx="265.63" cy="39.79" r="2.86"/>
    <circle cx="262.05" cy="45.98" r="2.86"/>
    <circle cx="258.48" cy="52.17" r="2.86"/>
    <circle cx="254.91" cy="58.36" r="2.86"/>
    <circle cx="251.34" cy="64.55" r="2.86"/>
    <circle cx="247.77" cy="70.74" r="2.86"/>
    <circle cx="244.19" cy="76.93" r="2.86"/>
    <circle cx="240.62" cy="83.12" r="2.86"/>
    <circle cx="237.05" cy="89.31" r="2.86"/>
    <circle cx="233.48" cy="95.50" r="2.86"/>
    <circle cx="229.90" cy="101.69" r="2.86"/>
    <circle cx="226.33" cy="107.89" r="2.86"/>
    <circle cx="222.76" cy="114.08" r="2.86"/>
    <circle cx="275.52" cy="37.65" r="2.86"/>
    <circle cx="271.94" cy="43.85" r="2.86"/>
    <circle cx="268.36" cy="50.05" r="2.86"/>
    <circle cx="264.78" cy="56.26" r="2.86"/>
    <circle cx="261.20" cy="62.46" r="2.86"/>
    <circle cx="257.62" cy="68.67" r="2.86"/>
    <circle cx="254.03" cy="74.88" r="2.86"/>
    <circle cx="250.45" cy="81.09" r="2.86"/>
    <circle cx="246.86" cy="87.31" r="2.86"/>
    <circle cx="243.27" cy="93.53" r="2.86"/>
    <circle cx="281.66" cy="41.97" r="2.86"/>
    <circle cx="239.68" cy="99.76" r="2.86"/>
    <circle cx="278.06" cy="48.19" r="2.86"/>
    <circle cx="274.47" cy="54.42" r="2.86"/>
    <circle cx="236.08" cy="105.99" r="2.86"/>
    <circle cx="270.87" cy="60.65" r="2.86"/>
    <circle cx="267.26" cy="66.89" r="2.86"/>
    <circle cx="232.48" cy="112.23" r="2.86"/>
    <circle cx="263.66" cy="73.14" r="2.86"/>
    <circle cx="228.87" cy="118.48" r="2.86"/>
    <circle cx="260.04" cy="79.38" r="2.86"/>
    <circle cx="287.60" cy="46.55" r="2.86"/>
    <circle cx="256.43" cy="85.64" r="2.86"/>
    <circle cx="283.98" cy="52.81" r="2.86"/>
    <circle cx="252.81" cy="91.91" r="2.86"/>
    <circle cx="280.35" cy="59.08" r="2.86"/>
    <circle cx="276.72" cy="65.35" r="2.86"/>
    <circle cx="249.18" cy="98.18" r="2.86"/>
    <circle cx="273.09" cy="71.63" r="2.86"/>
    <circle cx="245.54" cy="104.47" r="2.86"/>
    <circle cx="269.44" cy="77.93" r="2.86"/>
    <circle cx="293.34" cy="51.38" r="2.86"/>
    <circle cx="241.89" cy="110.77" r="2.86"/>
    <circle cx="265.78" cy="84.23" r="2.86"/>
    <circle cx="289.68" cy="57.69" r="2.86"/>
    <circle cx="286.02" cy="64.01" r="2.86"/>
    <circle cx="262.12" cy="90.55" r="2.86"/>
    <circle cx="238.22" cy="117.10" r="2.86"/>
    <circle cx="282.34" cy="70.33" r="2.86"/>
    <circle cx="258.44" cy="96.88" r="2.86"/>
    <circle cx="278.65" cy="76.67" r="2.86"/>
    <circle cx="298.86" cy="56.47" r="2.86"/>
    <circle cx="234.54" cy="123.44" r="2.86"/>
    <circle cx="254.74" cy="103.24" r="2.86"/>
    <circle cx="274.95" cy="83.03" r="2.86"/>
    <circle cx="295.15" cy="62.83" r="2.86"/>
    <circle cx="291.43" cy="69.20" r="2.86"/>
    <circle cx="271.23" cy="89.40" r="2.86"/>
    <circle cx="251.03" cy="109.61" r="2.86"/>
    <circle cx="287.70" cy="75.59" r="2.86"/>
    <circle cx="267.49" cy="95.80" r="2.86"/>
    <circle cx="304.15" cy="61.79" r="2.86"/>
    <circle cx="247.29" cy="116.01" r="2.86"/>
    <circle cx="283.94" cy="82.00" r="2.86"/>
    <circle cx="263.73" cy="102.22" r="2.86"/>
    <circle cx="300.38" cy="68.21" r="2.86"/>
    <circle cx="280.17" cy="88.43" r="2.86"/>
    <circle cx="243.52" cy="122.45" r="2.86"/>
    <circle cx="296.60" cy="74.65" r="2.86"/>
    <circle cx="259.94" cy="108.67" r="2.86"/>
    <circle cx="276.37" cy="94.89" r="2.86"/>
    <circle cx="292.79" cy="81.11" r="2.86"/>
    <circle cx="309.21" cy="67.33" r="2.86"/>
    <circle cx="239.70" cy="128.92" r="2.86"/>
    <circle cx="256.12" cy="115.15" r="2.86"/>
    <circle cx="272.53" cy="101.37" r="2.86"/>
    <circle cx="288.95" cy="87.60" r="2.86"/>
    <circle cx="305.36" cy="73.82" r="2.86"/>
    <circle cx="301.50" cy="80.34" r="2.86"/>
    <circle cx="285.08" cy="94.11" r="2.86"/>
    <circle cx="268.67" cy="107.89" r="2.86"/>
    <circle cx="252.25" cy="121.67" r="2.86"/>
    <circle cx="314.01" cy="73.10" r="2.86"/>
    <circle cx="297.59" cy="86.88" r="2.86"/>
    <circle cx="281.17" cy="100.66" r="2.86"/>
    <circle cx="264.75" cy="114.45" r="2.86"/>
    <circle cx="310.08" cy="79.66" r="2.86"/>
    <circle cx="293.65" cy="93.45" r="2.86"/>
    <circle cx="248.32" cy="128.24" r="2.86"/>
    <circle cx="277.22" cy="107.25" r="2.86"/>
    <circle cx="306.12" cy="86.25" r="2.86"/>
    <circle cx="260.78" cy="121.05" r="2.86"/>
    <circle cx="289.67" cy="100.06" r="2.86"/>
    <circle cx="318.56" cy="79.06" r="2.86"/>
    <circle cx="302.11" cy="92.88" r="2.86"/>
    <circle cx="273.21" cy="113.87" r="2.86"/>
    <circle cx="244.32" cy="134.88" r="2.86"/>
    <circle cx="314.53" cy="85.71" r="2.86"/>
    <circle cx="285.63" cy="106.71" r="2.86"/>
    <circle cx="298.05" cy="99.54" r="2.86"/>
    <circle cx="256.74" cy="127.71" r="2.86"/>
    <circle cx="310.45" cy="92.38" r="2.86"/>
    <circle cx="269.14" cy="120.55" r="2.86"/>
    <circle cx="322.85" cy="85.23" r="2.86"/>
    <circle cx="281.53" cy="113.40" r="2.86"/>
    <circle cx="293.92" cy="106.25" r="2.86"/>
    <circle cx="306.31" cy="99.10" r="2.86"/>
    <circle cx="318.70" cy="91.95" r="2.86"/>
    <circle cx="252.60" cy="134.44" r="2.86"/>
    <circle cx="264.98" cy="127.29" r="2.86"/>
    <circle cx="277.36" cy="120.14" r="2.86"/>
    <circle cx="289.73" cy="113.00" r="2.86"/>
    <circle cx="302.11" cy="105.86" r="2.86"/>
    <circle cx="314.48" cy="98.71" r="2.86"/>
    <circle cx="326.86" cy="91.57" r="2.86"/>
    <circle cx="322.57" cy="98.37" r="2.86"/>
    <circle cx="310.20" cy="105.52" r="2.86"/>
    <circle cx="297.83" cy="112.66" r="2.86"/>
    <circle cx="285.46" cy="119.81" r="2.86"/>
    <circle cx="273.09" cy="126.95" r="2.86"/>
    <circle cx="260.72" cy="134.10" r="2.86"/>
    <circle cx="248.35" cy="141.24" r="2.86"/>
    <circle cx="330.59" cy="98.08" r="2.86"/>
    <circle cx="318.21" cy="105.23" r="2.86"/>
    <circle cx="305.84" cy="112.37" r="2.86"/>
    <circle cx="293.46" cy="119.52" r="2.86"/>
    <circle cx="281.08" cy="126.67" r="2.86"/>
    <circle cx="268.70" cy="133.83" r="2.86"/>
    <circle cx="326.15" cy="104.97" r="2.86"/>
    <circle cx="256.32" cy="140.98" r="2.86"/>
    <circle cx="313.77" cy="112.13" r="2.86"/>
    <circle cx="301.38" cy="119.28" r="2.86"/>
    <circle cx="288.98" cy="126.44" r="2.86"/>
    <circle cx="334.03" cy="104.75" r="2.86"/>
    <circle cx="321.63" cy="111.91" r="2.86"/>
    <circle cx="276.58" cy="133.61" r="2.86"/>
    <circle cx="309.22" cy="119.08" r="2.86"/>
    <circle cx="264.17" cy="140.78" r="2.86"/>
    <circle cx="296.80" cy="126.25" r="2.86"/>
    <circle cx="329.43" cy="111.73" r="2.86"/>
    <circle cx="251.74" cy="147.96" r="2.86"/>
    <circle cx="284.37" cy="133.43" r="2.86"/>
    <circle cx="316.99" cy="118.90" r="2.86"/>
    <circle cx="337.17" cy="111.56" r="2.86"/>
    <circle cx="304.55" cy="126.09" r="2.86"/>
    <circle cx="271.92" cy="140.62" r="2.86"/>
    <circle cx="324.72" cy="118.75" r="2.86"/>
    <circle cx="292.08" cy="133.29" r="2.86"/>
    <circle cx="312.24" cy="125.95" r="2.86"/>
    <circle cx="259.45" cy="147.83" r="2.86"/>
    <circle cx="332.39" cy="118.62" r="2.86"/>
    <circle cx="279.59" cy="140.50" r="2.86"/>
    <circle cx="299.74" cy="133.17" r="2.86"/>
    <circle cx="319.88" cy="125.84" r="2.86"/>
    <circle cx="340.02" cy="118.51" r="2.86"/>
    <circle cx="267.07" cy="147.73" r="2.86"/>
    <circle cx="287.20" cy="140.39" r="2.86"/>
    <circle cx="307.34" cy="133.06" r="2.86"/>
    <circle cx="327.48" cy="125.73" r="2.86"/>
    <circle cx="335.03" cy="125.65" r="2.86"/>
    <circle cx="314.90" cy="132.98" r="2.86"/>
    <circle cx="294.76" cy="140.31" r="2.86"/>
    <circle cx="274.62" cy="147.64" r="2.86"/>
    <circle cx="254.48" cy="154.98" r="2.86"/>
    <circle cx="342.56" cy="125.57" r="2.86"/>
    <circle cx="322.41" cy="132.90" r="2.86"/>
    <circle cx="302.27" cy="140.24" r="2.86"/>
    <circle cx="282.12" cy="147.58" r="2.86"/>
    <circle cx="329.90" cy="132.84" r="2.86"/>
    <circle cx="309.74" cy="140.18" r="2.86"/>
    <circle cx="261.96" cy="154.92" r="2.86"/>
    <circle cx="337.35" cy="132.78" r="2.86"/>
    <circle cx="289.58" cy="147.53" r="2.86"/>
    <circle cx="317.18" cy="140.13" r="2.86"/>
    <circle cx="344.78" cy="132.73" r="2.86"/>
    <circle cx="269.40" cy="154.88" r="2.86"/>
    <circle cx="296.99" cy="147.48" r="2.86"/>
    <circle cx="324.59" cy="140.09" r="2.86"/>
    <circle cx="331.98" cy="140.05" r="2.86"/>
    <circle cx="304.38" cy="147.45" r="2.86"/>
    <circle cx="276.78" cy="154.85" r="2.86"/>
    <circle cx="339.35" cy="140.02" r="2.86"/>
    <circle cx="311.75" cy="147.42" r="2.86"/>
    <circle cx="284.14" cy="154.82" r="2.86"/>
    <circle cx="346.69" cy="139.99" r="2.86"/>
    <circle cx="319.09" cy="147.39" r="2.86"/>
    <circle cx="256.54" cy="162.23" r="2.86"/>
    <circle cx="291.47" cy="154.80" r="2.86"/>
    <circle cx="326.41" cy="147.37" r="2.86"/>
    <circle cx="333.71" cy="147.35" r="2.86"/>
    <circle cx="298.78" cy="154.78" r="2.86"/>
    <circle cx="263.85" cy="162.21" r="2.86"/>
    <circle cx="341.01" cy="147.34" r="2.86"/>
    <circle cx="306.07" cy="154.77" r="2.86"/>
    <circle cx="271.14" cy="162.20" r="2.86"/>
    <circle cx="348.29" cy="147.32" r="2.86"/>
    <circle cx="313.35" cy="154.76" r="2.86"/>
    <circle cx="278.40" cy="162.19" r="2.86"/>
    <circle cx="320.61" cy="154.75" r="2.86"/>
    <circle cx="327.86" cy="154.74" r="2.86"/>
    <circle cx="285.65" cy="162.19" r="2.86"/>
    <circle cx="335.10" cy="154.73" r="2.86"/>
    <circle cx="292.89" cy="162.18" r="2.86"/>
    <circle cx="342.33" cy="154.73" r="2.86"/>
    <circle cx="349.55" cy="154.72" r="2.86"/>
    <circle cx="300.11" cy="162.18" r="2.86"/>
    <circle cx="307.33" cy="162.17" r="2.86"/>
    <circle cx="257.89" cy="169.64" r="2.86"/>
    <circle cx="314.54" cy="162.17" r="2.86"/>
    <circle cx="321.74" cy="162.17" r="2.86"/>
    <circle cx="265.09" cy="169.64" r="2.86"/>
    <circle cx="328.94" cy="162.17" r="2.86"/>
    <circle cx="336.13" cy="162.17" r="2.86"/>
    <circle cx="272.28" cy="169.64" r="2.86"/>
    <circle cx="343.31" cy="162.17" r="2.86"/>
    <circle cx="350.50" cy="162.17" r="2.86"/>
    <circle cx="279.46" cy="169.64" r="2.86"/>
    <circle cx="286.64" cy="169.64" r="2.86"/>
    <circle cx="293.82" cy="169.64" r="2.86"/>
    <circle cx="300.99" cy="169.64" r="2.86"/>
    <circle cx="308.15" cy="169.64" r="2.86"/>
    <circle cx="315.32" cy="169.64" r="2.86"/>
  </g>
  <g style="fill:red; stroke:red" id="CPI">
    <circle cx="322.48" cy="169.64" r="2.86"/>
    <circle cx="329.64" cy="169.64" r="2.86"/>
    <circle cx="336.80" cy="169.64" r="2.86"/>
    <circle cx="343.96" cy="169.64" r="2.86"/>
    <circle cx="351.12" cy="169.64" r="2.86"/>
    <circle cx="258.52" cy="177.14" r="2.86"/>
    <circle cx="265.67" cy="177.14" r="2.86"/>
    <circle cx="272.81" cy="177.14" r="2.86"/>
  </g>
  <g style="fill:red; stroke:red" id="CPI(M)">
    <circle cx="279.96" cy="177.14" r="2.86"/>
    <circle cx="287.10" cy="177.14" r="2.86"/>
    <circle cx="294.25" cy="177.14" r="2.86"/>
    <circle cx="301.39" cy="177.14" r="2.86"/>
    <circle cx="308.54" cy="177.14" r="2.86"/>
  </g>
  <g style="fill:purple; stroke:purple" id="Indepen">
    <circle cx="315.68" cy="177.14" r="2.86"/>
    <circle cx="322.83" cy="177.14" r="2.86"/>
  </g>
  <g style="fill:yellow; stroke:yellow" id="dentTDP">
    <circle cx="329.97" cy="177.14" r="2.86"/>
    <circle cx="337.12" cy="177.14" r="2.86"/>
  </g>
  <g style="fill:purple; stroke:purple" id="Independent">
    <circle cx="344.26" cy="177.14" r="2.86"/>
  </g>
  <g style="fill:purple; stroke:purple" id="IND">
    <circle cx="351.40" cy="177.14" r="2.86"/>
  </g>
</g>
</svg>
