<?xml version="1.0" encoding="UTF-8" standalone="no"?>
<svg xmlns:svg="http://www.w3.org/2000/svg"
xmlns="http://www.w3.org/2000/svg" version="1.1"
width="360" height="185">
<!-- Created with the Wikimedia parliament diagram creator (http://tools.wmflabs.org/parliamentdiagram/parliamentinputform.html) -->
<g>
<text x="175" y="175" style="font-size:36px;font-weight:bold;text-align:center;text-anchor:middle;font-family:sans-serif">60</text>
  <g style="fill:yellow; stroke:yellow" id="TDP">
    <circle cx="17.81" cy="170.01" r="10.00"/>
    <circle cx="42.86" cy="170.02" r="10.00"/>
    <circle cx="67.94" cy="170.03" r="10.00"/>
    <circle cx="93.07" cy="170.04" r="10.00"/>
    <circle cx="21.15" cy="145.74" r="10.00"/>
    <circle cx="47.57" cy="143.00" r="10.00"/>
    <circle cx="73.78" cy="142.93" r="10.00"/>
    <circle cx="28.11" cy="122.24" r="10.00"/>
    <circle cx="100.75" cy="142.91" r="10.00"/>
    <circle cx="57.54" cy="117.46" r="10.00"/>
    <circle cx="38.52" cy="100.06" r="10.00"/>
    <circle cx="86.07" cy="118.09" r="10.00"/>
    <circle cx="52.15" cy="79.70" r="10.00"/>
    <circle cx="72.39" cy="94.41" r="10.00"/>
    <circle cx="116.67" cy="119.63" r="10.00"/>
    <circle cx="68.68" cy="61.62" r="10.00"/>
    <circle cx="104.06" cy="97.00" r="10.00"/>
    <circle cx="91.51" cy="74.76" r="10.00"/>
    <circle cx="87.75" cy="46.23" r="10.00"/>
    <circle cx="114.15" cy="59.29" r="10.00"/>
    <circle cx="126.66" cy="80.95" r="10.00"/>
    <circle cx="139.16" cy="102.61" r="10.00"/>
    <circle cx="108.91" cy="33.88" r="10.00"/>
    <circle cx="131.69" cy="24.85" r="10.00"/>
    <circle cx="139.42" cy="48.63" r="10.00"/>
    <circle cx="152.49" cy="70.91" r="10.00"/>
    <circle cx="165.90" cy="93.64" r="10.00"/>
    <circle cx="155.57" cy="19.35" r="10.00"/>
    <circle cx="166.29" cy="43.19" r="10.00"/>
    <circle cx="180.00" cy="67.50" r="10.00"/>
    <circle cx="180.00" cy="17.50" r="10.00"/>
    <circle cx="193.71" cy="43.19" r="10.00"/>
    <circle cx="204.43" cy="19.35" r="10.00"/>
    <circle cx="194.10" cy="93.64" r="10.00"/>
    <circle cx="207.51" cy="70.91" r="10.00"/>
    <circle cx="220.58" cy="48.63" r="10.00"/>
    <circle cx="228.31" cy="24.85" r="10.00"/>
    <circle cx="251.09" cy="33.88" r="10.00"/>
    <circle cx="220.84" cy="102.61" r="10.00"/>
  </g>
  <g style="fill:blue; stroke:blue" id="YSRCP">
    <circle cx="233.34" cy="80.95" r="10.00"/>
    <circle cx="245.85" cy="59.29" r="10.00"/>
    <circle cx="272.25" cy="46.23" r="10.00"/>
    <circle cx="268.49" cy="74.76" r="10.00"/>
    <circle cx="255.94" cy="97.00" r="10.00"/>
    <circle cx="291.32" cy="61.62" r="10.00"/>
    <circle cx="243.33" cy="119.63" r="10.00"/>
    <circle cx="287.61" cy="94.41" r="10.00"/>
    <circle cx="307.85" cy="79.70" r="10.00"/>
    <circle cx="273.93" cy="118.09" r="10.00"/>
    <circle cx="321.48" cy="100.06" r="10.00"/>
    <circle cx="302.46" cy="117.46" r="10.00"/>
    <circle cx="259.25" cy="142.91" r="10.00"/>
    <circle cx="331.89" cy="122.24" r="10.00"/>
    <circle cx="286.22" cy="142.93" r="10.00"/>
    <circle cx="312.43" cy="143.00" r="10.00"/>
    <circle cx="338.85" cy="145.74" r="10.00"/>
    <circle cx="266.93" cy="170.04" r="10.00"/>
    <circle cx="292.06" cy="170.03" r="10.00"/>
    <circle cx="317.14" cy="170.02" r="10.00"/>
  </g>
  <g style="fill:purple; stroke:purple" id="IND">
    <circle cx="342.19" cy="170.01" r="10.00"/>
  </g>
</g>
</svg>
