<?xml version="1.0" encoding="UTF-8" standalone="no"?>
<svg xmlns:svg="http://www.w3.org/2000/svg"
xmlns="http://www.w3.org/2000/svg" version="1.1"
width="360" height="185">
<!-- Created with the Wikimedia parliament diagram creator (http://tools.wmflabs.org/parliamentdiagram/parliamentinputform.html) -->
<g>
<text x="175" y="175" style="font-size:36px;font-weight:bold;text-align:center;text-anchor:middle;font-family:sans-serif">719</text>
  <g style="fill:yellow; stroke:yellow" id="TDP">
    <circle cx="8.60" cy="177.14" r="2.86"/>
    <circle cx="15.74" cy="177.14" r="2.86"/>
    <circle cx="22.88" cy="177.14" r="2.86"/>
    <circle cx="30.03" cy="177.14" r="2.86"/>
    <circle cx="37.17" cy="177.14" r="2.86"/>
    <circle cx="44.32" cy="177.14" r="2.86"/>
    <circle cx="51.46" cy="177.14" r="2.86"/>
    <circle cx="58.61" cy="177.14" r="2.86"/>
    <circle cx="65.75" cy="177.14" r="2.86"/>
    <circle cx="72.90" cy="177.14" r="2.86"/>
    <circle cx="80.04" cy="177.14" r="2.86"/>
    <circle cx="87.19" cy="177.14" r="2.86"/>
    <circle cx="94.33" cy="177.14" r="2.86"/>
    <circle cx="101.48" cy="177.14" r="2.86"/>
    <circle cx="8.90" cy="169.31" r="2.86"/>
    <circle cx="16.05" cy="169.53" r="2.86"/>
    <circle cx="23.21" cy="169.53" r="2.86"/>
    <circle cx="30.37" cy="169.52" r="2.86"/>
    <circle cx="37.53" cy="169.51" r="2.86"/>
    <circle cx="44.69" cy="169.51" r="2.86"/>
    <circle cx="51.86" cy="169.50" r="2.86"/>
    <circle cx="59.03" cy="169.49" r="2.86"/>
    <circle cx="66.20" cy="169.48" r="2.86"/>
    <circle cx="73.38" cy="169.47" r="2.86"/>
    <circle cx="80.56" cy="169.45" r="2.86"/>
    <circle cx="9.57" cy="161.51" r="2.86"/>
    <circle cx="16.71" cy="161.94" r="2.86"/>
    <circle cx="87.75" cy="169.44" r="2.86"/>
    <circle cx="23.90" cy="161.93" r="2.86"/>
    <circle cx="31.09" cy="161.92" r="2.86"/>
    <circle cx="94.94" cy="169.42" r="2.86"/>
    <circle cx="38.29" cy="161.91" r="2.86"/>
    <circle cx="45.50" cy="161.90" r="2.86"/>
    <circle cx="102.15" cy="169.40" r="2.86"/>
    <circle cx="52.71" cy="161.89" r="2.86"/>
    <circle cx="59.93" cy="161.87" r="2.86"/>
    <circle cx="10.59" cy="153.74" r="2.86"/>
    <circle cx="17.72" cy="154.39" r="2.86"/>
    <circle cx="67.16" cy="161.86" r="2.86"/>
    <circle cx="24.96" cy="154.38" r="2.86"/>
    <circle cx="74.41" cy="161.84" r="2.86"/>
    <circle cx="32.21" cy="154.37" r="2.86"/>
    <circle cx="39.46" cy="154.36" r="2.86"/>
    <circle cx="81.67" cy="161.82" r="2.86"/>
    <circle cx="46.73" cy="154.35" r="2.86"/>
    <circle cx="88.94" cy="161.80" r="2.86"/>
    <circle cx="11.97" cy="146.03" r="2.86"/>
    <circle cx="54.01" cy="154.34" r="2.86"/>
    <circle cx="19.08" cy="146.90" r="2.86"/>
    <circle cx="26.38" cy="146.90" r="2.86"/>
    <circle cx="61.32" cy="154.33" r="2.86"/>
    <circle cx="96.24" cy="161.78" r="2.86"/>
    <circle cx="33.70" cy="146.89" r="2.86"/>
    <circle cx="68.64" cy="154.32" r="2.86"/>
    <circle cx="41.03" cy="146.89" r="2.86"/>
    <circle cx="103.58" cy="161.76" r="2.86"/>
    <circle cx="75.98" cy="154.31" r="2.86"/>
    <circle cx="13.70" cy="138.38" r="2.86"/>
    <circle cx="48.39" cy="146.89" r="2.86"/>
    <circle cx="20.79" cy="139.48" r="2.86"/>
    <circle cx="83.36" cy="154.30" r="2.86"/>
    <circle cx="55.77" cy="146.89" r="2.86"/>
    <circle cx="28.17" cy="139.48" r="2.86"/>
    <circle cx="35.57" cy="139.49" r="2.86"/>
    <circle cx="63.17" cy="146.89" r="2.86"/>
    <circle cx="90.77" cy="154.29" r="2.86"/>
    <circle cx="43.00" cy="139.51" r="2.86"/>
    <circle cx="15.77" cy="130.83" r="2.86"/>
    <circle cx="70.61" cy="146.90" r="2.86"/>
    <circle cx="22.84" cy="132.14" r="2.86"/>
    <circle cx="50.46" cy="139.53" r="2.86"/>
    <circle cx="98.23" cy="154.29" r="2.86"/>
    <circle cx="30.31" cy="132.17" r="2.86"/>
    <circle cx="78.09" cy="146.91" r="2.86"/>
    <circle cx="57.96" cy="139.55" r="2.86"/>
    <circle cx="37.82" cy="132.20" r="2.86"/>
    <circle cx="105.75" cy="154.29" r="2.86"/>
    <circle cx="18.19" cy="123.38" r="2.86"/>
    <circle cx="85.63" cy="146.93" r="2.86"/>
    <circle cx="65.49" cy="139.59" r="2.86"/>
    <circle cx="45.36" cy="132.24" r="2.86"/>
    <circle cx="25.23" cy="124.91" r="2.86"/>
    <circle cx="32.81" cy="124.96" r="2.86"/>
    <circle cx="52.95" cy="132.30" r="2.86"/>
    <circle cx="73.08" cy="139.63" r="2.86"/>
    <circle cx="93.22" cy="146.96" r="2.86"/>
    <circle cx="40.43" cy="125.03" r="2.86"/>
    <circle cx="60.58" cy="132.36" r="2.86"/>
    <circle cx="20.95" cy="116.04" r="2.86"/>
    <circle cx="80.73" cy="139.69" r="2.86"/>
    <circle cx="27.95" cy="117.79" r="2.86"/>
    <circle cx="48.11" cy="125.12" r="2.86"/>
    <circle cx="100.89" cy="147.01" r="2.86"/>
    <circle cx="68.27" cy="132.44" r="2.86"/>
    <circle cx="35.65" cy="117.89" r="2.86"/>
    <circle cx="88.45" cy="139.76" r="2.86"/>
    <circle cx="55.83" cy="125.22" r="2.86"/>
    <circle cx="43.41" cy="118.01" r="2.86"/>
    <circle cx="24.04" cy="108.84" r="2.86"/>
    <circle cx="76.03" cy="132.54" r="2.86"/>
    <circle cx="108.66" cy="147.08" r="2.86"/>
    <circle cx="31.00" cy="110.81" r="2.86"/>
    <circle cx="63.63" cy="125.34" r="2.86"/>
    <circle cx="96.27" cy="139.86" r="2.86"/>
    <circle cx="51.23" cy="118.14" r="2.86"/>
    <circle cx="38.83" cy="110.96" r="2.86"/>
    <circle cx="83.88" cy="132.67" r="2.86"/>
    <circle cx="71.50" cy="125.48" r="2.86"/>
    <circle cx="59.12" cy="118.31" r="2.86"/>
    <circle cx="27.45" cy="101.79" r="2.86"/>
    <circle cx="46.74" cy="111.14" r="2.86"/>
    <circle cx="34.36" cy="103.98" r="2.86"/>
    <circle cx="104.19" cy="140.00" r="2.86"/>
    <circle cx="91.82" cy="132.83" r="2.86"/>
    <circle cx="79.46" cy="125.66" r="2.86"/>
    <circle cx="67.09" cy="118.51" r="2.86"/>
    <circle cx="54.72" cy="111.35" r="2.86"/>
    <circle cx="42.35" cy="104.20" r="2.86"/>
    <circle cx="31.19" cy="94.90" r="2.86"/>
    <circle cx="38.04" cy="97.31" r="2.86"/>
    <circle cx="50.41" cy="104.45" r="2.86"/>
    <circle cx="62.78" cy="111.60" r="2.86"/>
    <circle cx="75.15" cy="118.74" r="2.86"/>
    <circle cx="87.52" cy="125.89" r="2.86"/>
    <circle cx="99.89" cy="133.04" r="2.86"/>
    <circle cx="112.26" cy="140.19" r="2.86"/>
    <circle cx="46.19" cy="97.61" r="2.86"/>
    <circle cx="58.57" cy="104.75" r="2.86"/>
    <circle cx="70.95" cy="111.89" r="2.86"/>
    <circle cx="83.33" cy="119.04" r="2.86"/>
    <circle cx="35.23" cy="88.19" r="2.86"/>
    <circle cx="95.72" cy="126.18" r="2.86"/>
    <circle cx="42.03" cy="90.82" r="2.86"/>
    <circle cx="108.11" cy="133.32" r="2.86"/>
    <circle cx="54.42" cy="97.96" r="2.86"/>
    <circle cx="66.82" cy="105.10" r="2.86"/>
    <circle cx="79.23" cy="112.25" r="2.86"/>
    <circle cx="50.34" cy="91.22" r="2.86"/>
    <circle cx="91.65" cy="119.39" r="2.86"/>
    <circle cx="62.76" cy="98.37" r="2.86"/>
    <circle cx="39.58" cy="81.67" r="2.86"/>
    <circle cx="104.08" cy="126.54" r="2.86"/>
    <circle cx="75.20" cy="105.52" r="2.86"/>
    <circle cx="46.31" cy="84.52" r="2.86"/>
    <circle cx="58.76" cy="91.68" r="2.86"/>
    <circle cx="87.65" cy="112.68" r="2.86"/>
    <circle cx="116.53" cy="133.69" r="2.86"/>
    <circle cx="71.22" cy="98.85" r="2.86"/>
    <circle cx="100.12" cy="119.84" r="2.86"/>
    <circle cx="54.80" cy="85.03" r="2.86"/>
    <circle cx="83.71" cy="106.02" r="2.86"/>
    <circle cx="44.22" cy="75.36" r="2.86"/>
    <circle cx="67.29" cy="92.22" r="2.86"/>
    <circle cx="112.62" cy="127.01" r="2.86"/>
    <circle cx="50.88" cy="78.42" r="2.86"/>
    <circle cx="96.22" cy="113.21" r="2.86"/>
    <circle cx="79.82" cy="99.42" r="2.86"/>
    <circle cx="63.41" cy="85.63" r="2.86"/>
    <circle cx="108.78" cy="120.41" r="2.86"/>
    <circle cx="92.38" cy="106.63" r="2.86"/>
    <circle cx="75.96" cy="92.85" r="2.86"/>
    <circle cx="59.55" cy="79.07" r="2.86"/>
    <circle cx="49.14" cy="69.26" r="2.86"/>
    <circle cx="55.73" cy="72.55" r="2.86"/>
    <circle cx="72.15" cy="86.32" r="2.86"/>
    <circle cx="88.57" cy="100.09" r="2.86"/>
    <circle cx="104.99" cy="113.87" r="2.86"/>
    <circle cx="121.42" cy="127.64" r="2.86"/>
    <circle cx="68.36" cy="79.82" r="2.86"/>
    <circle cx="84.79" cy="93.60" r="2.86"/>
    <circle cx="101.23" cy="107.37" r="2.86"/>
    <circle cx="64.59" cy="73.35" r="2.86"/>
    <circle cx="54.34" cy="63.40" r="2.86"/>
    <circle cx="81.04" cy="87.13" r="2.86"/>
    <circle cx="117.69" cy="121.15" r="2.86"/>
    <circle cx="60.84" cy="66.90" r="2.86"/>
    <circle cx="97.50" cy="100.91" r="2.86"/>
    <circle cx="77.31" cy="80.69" r="2.86"/>
    <circle cx="113.98" cy="114.70" r="2.86"/>
    <circle cx="93.79" cy="94.48" r="2.86"/>
    <circle cx="73.60" cy="74.27" r="2.86"/>
    <circle cx="59.80" cy="57.78" r="2.86"/>
    <circle cx="69.90" cy="67.88" r="2.86"/>
    <circle cx="90.10" cy="88.08" r="2.86"/>
    <circle cx="110.31" cy="108.29" r="2.86"/>
    <circle cx="66.21" cy="61.50" r="2.86"/>
    <circle cx="86.43" cy="81.70" r="2.86"/>
    <circle cx="106.65" cy="101.91" r="2.86"/>
    <circle cx="82.76" cy="75.34" r="2.86"/>
    <circle cx="126.88" cy="122.11" r="2.86"/>
    <circle cx="103.00" cy="95.55" r="2.86"/>
    <circle cx="79.11" cy="69.00" r="2.86"/>
    <circle cx="65.51" cy="52.41" r="2.86"/>
    <circle cx="75.47" cy="62.67" r="2.86"/>
    <circle cx="99.36" cy="89.21" r="2.86"/>
    <circle cx="123.26" cy="115.76" r="2.86"/>
    <circle cx="71.83" cy="56.35" r="2.86"/>
    <circle cx="95.73" cy="82.89" r="2.86"/>
    <circle cx="119.64" cy="109.43" r="2.86"/>
    <circle cx="92.11" cy="76.59" r="2.86"/>
    <circle cx="88.50" cy="70.29" r="2.86"/>
    <circle cx="116.04" cy="103.13" r="2.86"/>
    <circle cx="84.89" cy="64.01" r="2.86"/>
    <circle cx="71.46" cy="47.31" r="2.86"/>
    <circle cx="112.44" cy="96.84" r="2.86"/>
    <circle cx="81.28" cy="57.74" r="2.86"/>
    <circle cx="77.68" cy="51.47" r="2.86"/>
    <circle cx="108.84" cy="90.57" r="2.86"/>
    <circle cx="105.25" cy="84.30" r="2.86"/>
    <circle cx="101.66" cy="78.05" r="2.86"/>
    <circle cx="98.08" cy="71.80" r="2.86"/>
    <circle cx="132.86" cy="117.14" r="2.86"/>
    <circle cx="94.49" cy="65.56" r="2.86"/>
    <circle cx="77.63" cy="42.49" r="2.86"/>
    <circle cx="90.91" cy="59.32" r="2.86"/>
    <circle cx="129.29" cy="110.90" r="2.86"/>
    <circle cx="87.32" cy="53.09" r="2.86"/>
    <circle cx="83.74" cy="46.87" r="2.86"/>
    <circle cx="125.72" cy="104.66" r="2.86"/>
    <circle cx="122.15" cy="98.43" r="2.86"/>
    <circle cx="118.58" cy="92.21" r="2.86"/>
    <circle cx="115.01" cy="85.99" r="2.86"/>
    <circle cx="111.44" cy="79.78" r="2.86"/>
    <circle cx="107.87" cy="73.57" r="2.86"/>
    <circle cx="84.02" cy="37.96" r="2.86"/>
    <circle cx="104.30" cy="67.36" r="2.86"/>
    <circle cx="100.73" cy="61.15" r="2.86"/>
    <circle cx="97.16" cy="54.95" r="2.86"/>
    <circle cx="93.59" cy="48.75" r="2.86"/>
    <circle cx="90.02" cy="42.55" r="2.86"/>
    <circle cx="90.61" cy="33.72" r="2.86"/>
    <circle cx="139.30" cy="112.79" r="2.86"/>
    <circle cx="135.74" cy="106.60" r="2.86"/>
    <circle cx="132.17" cy="100.41" r="2.86"/>
    <circle cx="128.61" cy="94.22" r="2.86"/>
    <circle cx="125.04" cy="88.03" r="2.86"/>
    <circle cx="121.47" cy="81.84" r="2.86"/>
    <circle cx="117.90" cy="75.65" r="2.86"/>
    <circle cx="114.33" cy="69.46" r="2.86"/>
    <circle cx="110.76" cy="63.27" r="2.86"/>
    <circle cx="107.20" cy="57.09" r="2.86"/>
    <circle cx="103.63" cy="50.90" r="2.86"/>
    <circle cx="100.06" cy="44.71" r="2.86"/>
    <circle cx="96.49" cy="38.52" r="2.86"/>
    <circle cx="97.39" cy="29.79" r="2.86"/>
    <circle cx="103.13" cy="34.81" r="2.86"/>
    <circle cx="106.71" cy="40.99" r="2.86"/>
    <circle cx="110.29" cy="47.18" r="2.86"/>
    <circle cx="113.87" cy="53.37" r="2.86"/>
    <circle cx="117.45" cy="59.56" r="2.86"/>
    <circle cx="121.03" cy="65.75" r="2.86"/>
    <circle cx="124.61" cy="71.94" r="2.86"/>
    <circle cx="128.19" cy="78.13" r="2.86"/>
    <circle cx="131.78" cy="84.32" r="2.86"/>
    <circle cx="135.37" cy="90.51" r="2.86"/>
    <circle cx="138.96" cy="96.71" r="2.86"/>
    <circle cx="104.34" cy="26.17" r="2.86"/>
    <circle cx="142.55" cy="102.90" r="2.86"/>
    <circle cx="146.14" cy="109.10" r="2.86"/>
    <circle cx="109.95" cy="31.40" r="2.86"/>
    <circle cx="113.54" cy="37.60" r="2.86"/>
    <circle cx="117.13" cy="43.81" r="2.86"/>
    <circle cx="120.73" cy="50.02" r="2.86"/>
    <circle cx="124.33" cy="56.23" r="2.86"/>
    <circle cx="127.93" cy="62.44" r="2.86"/>
    <circle cx="111.45" cy="22.87" r="2.86"/>
    <circle cx="131.54" cy="68.66" r="2.86"/>
    <circle cx="135.15" cy="74.88" r="2.86"/>
    <circle cx="138.77" cy="81.11" r="2.86"/>
    <circle cx="116.91" cy="28.31" r="2.86"/>
    <circle cx="120.52" cy="34.55" r="2.86"/>
    <circle cx="142.39" cy="87.34" r="2.86"/>
    <circle cx="124.14" cy="40.79" r="2.86"/>
    <circle cx="146.02" cy="93.58" r="2.86"/>
    <circle cx="127.76" cy="47.04" r="2.86"/>
    <circle cx="131.39" cy="53.29" r="2.86"/>
    <circle cx="118.70" cy="19.91" r="2.86"/>
    <circle cx="149.66" cy="99.83" r="2.86"/>
    <circle cx="135.02" cy="59.55" r="2.86"/>
    <circle cx="124.01" cy="25.55" r="2.86"/>
    <circle cx="138.67" cy="65.82" r="2.86"/>
    <circle cx="153.32" cy="106.10" r="2.86"/>
    <circle cx="127.65" cy="31.83" r="2.86"/>
    <circle cx="142.31" cy="72.11" r="2.86"/>
    <circle cx="131.29" cy="38.13" r="2.86"/>
    <circle cx="145.97" cy="78.40" r="2.86"/>
    <circle cx="134.95" cy="44.43" r="2.86"/>
    <circle cx="126.08" cy="17.27" r="2.86"/>
    <circle cx="138.61" cy="50.75" r="2.86"/>
    <circle cx="149.64" cy="84.72" r="2.86"/>
    <circle cx="131.23" cy="23.12" r="2.86"/>
    <circle cx="142.27" cy="57.09" r="2.86"/>
    <circle cx="153.33" cy="91.06" r="2.86"/>
    <circle cx="134.90" cy="29.47" r="2.86"/>
    <circle cx="145.95" cy="63.44" r="2.86"/>
    <circle cx="138.57" cy="35.83" r="2.86"/>
    <circle cx="133.57" cy="14.98" r="2.86"/>
    <circle cx="157.03" cy="97.42" r="2.86"/>
    <circle cx="149.64" cy="69.82" r="2.86"/>
    <circle cx="142.26" cy="42.22" r="2.86"/>
    <circle cx="138.55" cy="21.03" r="2.86"/>
    <circle cx="145.95" cy="48.63" r="2.86"/>
    <circle cx="153.35" cy="76.22" r="2.86"/>
    <circle cx="160.75" cy="103.82" r="2.86"/>
    <circle cx="142.25" cy="27.46" r="2.86"/>
    <circle cx="149.66" cy="55.06" r="2.86"/>
    <circle cx="157.07" cy="82.66" r="2.86"/>
    <circle cx="145.96" cy="33.91" r="2.86"/>
    <circle cx="141.16" cy="13.03" r="2.86"/>
    <circle cx="153.38" cy="61.53" r="2.86"/>
    <circle cx="149.67" cy="40.40" r="2.86"/>
    <circle cx="145.97" cy="19.28" r="2.86"/>
    <circle cx="160.81" cy="89.15" r="2.86"/>
    <circle cx="157.11" cy="68.03" r="2.86"/>
    <circle cx="153.40" cy="46.92" r="2.86"/>
    <circle cx="149.69" cy="25.81" r="2.86"/>
    <circle cx="148.83" cy="11.43" r="2.86"/>
    <circle cx="164.58" cy="95.68" r="2.86"/>
    <circle cx="160.87" cy="74.58" r="2.86"/>
    <circle cx="157.15" cy="53.48" r="2.86"/>
    <circle cx="153.43" cy="32.37" r="2.86"/>
    <circle cx="153.45" cy="17.87" r="2.86"/>
    <circle cx="157.18" cy="38.98" r="2.86"/>
    <circle cx="160.91" cy="60.08" r="2.86"/>
    <circle cx="164.64" cy="81.19" r="2.86"/>
    <circle cx="168.38" cy="102.29" r="2.86"/>
    <circle cx="157.21" cy="24.52" r="2.86"/>
    <circle cx="160.94" cy="45.63" r="2.86"/>
    <circle cx="156.57" cy="10.18" r="2.86"/>
    <circle cx="164.68" cy="66.75" r="2.86"/>
    <circle cx="160.97" cy="31.21" r="2.86"/>
    <circle cx="168.44" cy="87.87" r="2.86"/>
    <circle cx="164.72" cy="52.34" r="2.86"/>
    <circle cx="161.00" cy="16.82" r="2.86"/>
    <circle cx="168.48" cy="73.48" r="2.86"/>
    <circle cx="164.75" cy="37.96" r="2.86"/>
    <circle cx="164.78" cy="23.60" r="2.86"/>
    <circle cx="168.51" cy="59.12" r="2.86"/>
    <circle cx="164.35" cy="9.29" r="2.86"/>
    <circle cx="172.26" cy="94.64" r="2.86"/>
    <circle cx="168.54" cy="44.77" r="2.86"/>
    <circle cx="172.30" cy="80.30" r="2.86"/>
    <circle cx="168.56" cy="30.44" r="2.86"/>
    <circle cx="168.58" cy="16.11" r="2.86"/>
    <circle cx="172.32" cy="65.97" r="2.86"/>
    <circle cx="172.35" cy="51.66" r="2.86"/>
    <circle cx="172.36" cy="37.35" r="2.86"/>
    <circle cx="176.11" cy="101.52" r="2.86"/>
    <circle cx="172.38" cy="23.04" r="2.86"/>
    <circle cx="172.17" cy="8.75" r="2.86"/>
    <circle cx="176.14" cy="87.22" r="2.86"/>
    <circle cx="176.15" cy="72.93" r="2.86"/>
    <circle cx="176.17" cy="58.63" r="2.86"/>
    <circle cx="176.18" cy="44.34" r="2.86"/>
    <circle cx="176.18" cy="30.05" r="2.86"/>
    <circle cx="176.19" cy="15.76" r="2.86"/>
    <circle cx="180.00" cy="8.57" r="2.86"/>
    <circle cx="180.00" cy="22.86" r="2.86"/>
    <circle cx="180.00" cy="37.14" r="2.86"/>
    <circle cx="180.00" cy="51.43" r="2.86"/>
    <circle cx="180.00" cy="65.71" r="2.86"/>
    <circle cx="180.00" cy="80.00" r="2.86"/>
    <circle cx="180.00" cy="94.29" r="2.86"/>
    <circle cx="183.81" cy="15.76" r="2.86"/>
    <circle cx="183.82" cy="30.05" r="2.86"/>
    <circle cx="183.82" cy="44.34" r="2.86"/>
    <circle cx="183.83" cy="58.63" r="2.86"/>
    <circle cx="183.85" cy="72.93" r="2.86"/>
    <circle cx="183.86" cy="87.22" r="2.86"/>
    <circle cx="187.83" cy="8.75" r="2.86"/>
    <circle cx="187.62" cy="23.04" r="2.86"/>
    <circle cx="183.89" cy="101.52" r="2.86"/>
    <circle cx="187.64" cy="37.35" r="2.86"/>
    <circle cx="187.65" cy="51.66" r="2.86"/>
    <circle cx="187.68" cy="65.97" r="2.86"/>
    <circle cx="191.42" cy="16.11" r="2.86"/>
    <circle cx="191.44" cy="30.44" r="2.86"/>
    <circle cx="187.70" cy="80.30" r="2.86"/>
    <circle cx="191.46" cy="44.77" r="2.86"/>
    <circle cx="187.74" cy="94.64" r="2.86"/>
    <circle cx="195.65" cy="9.29" r="2.86"/>
    <circle cx="191.49" cy="59.12" r="2.86"/>
    <circle cx="195.22" cy="23.60" r="2.86"/>
    <circle cx="195.25" cy="37.96" r="2.86"/>
    <circle cx="191.52" cy="73.48" r="2.86"/>
    <circle cx="199.00" cy="16.82" r="2.86"/>
    <circle cx="195.28" cy="52.34" r="2.86"/>
    <circle cx="191.56" cy="87.87" r="2.86"/>
    <circle cx="199.03" cy="31.21" r="2.86"/>
    <circle cx="195.32" cy="66.75" r="2.86"/>
    <circle cx="203.43" cy="10.18" r="2.86"/>
    <circle cx="199.06" cy="45.63" r="2.86"/>
    <circle cx="202.79" cy="24.52" r="2.86"/>
    <circle cx="191.62" cy="102.29" r="2.86"/>
    <circle cx="195.36" cy="81.19" r="2.86"/>
    <circle cx="199.09" cy="60.08" r="2.86"/>
    <circle cx="202.82" cy="38.98" r="2.86"/>
    <circle cx="206.55" cy="17.87" r="2.86"/>
    <circle cx="206.57" cy="32.37" r="2.86"/>
    <circle cx="202.85" cy="53.48" r="2.86"/>
    <circle cx="199.13" cy="74.58" r="2.86"/>
    <circle cx="195.42" cy="95.68" r="2.86"/>
    <circle cx="211.17" cy="11.43" r="2.86"/>
    <circle cx="210.31" cy="25.81" r="2.86"/>
    <circle cx="206.60" cy="46.92" r="2.86"/>
    <circle cx="202.89" cy="68.03" r="2.86"/>
    <circle cx="199.19" cy="89.15" r="2.86"/>
    <circle cx="214.03" cy="19.28" r="2.86"/>
    <circle cx="210.33" cy="40.40" r="2.86"/>
    <circle cx="206.62" cy="61.53" r="2.86"/>
    <circle cx="218.84" cy="13.03" r="2.86"/>
    <circle cx="214.04" cy="33.91" r="2.86"/>
    <circle cx="202.93" cy="82.66" r="2.86"/>
    <circle cx="210.34" cy="55.06" r="2.86"/>
    <circle cx="217.75" cy="27.46" r="2.86"/>
    <circle cx="199.25" cy="103.82" r="2.86"/>
    <circle cx="206.65" cy="76.22" r="2.86"/>
    <circle cx="214.05" cy="48.63" r="2.86"/>
    <circle cx="221.45" cy="21.03" r="2.86"/>
    <circle cx="217.74" cy="42.22" r="2.86"/>
    <circle cx="210.36" cy="69.82" r="2.86"/>
    <circle cx="202.97" cy="97.42" r="2.86"/>
  </g>
  <g style="fill:blue; stroke:blue" id="YSRCP">
    <circle cx="226.43" cy="14.98" r="2.86"/>
    <circle cx="221.43" cy="35.83" r="2.86"/>
    <circle cx="214.05" cy="63.44" r="2.86"/>
    <circle cx="225.10" cy="29.47" r="2.86"/>
    <circle cx="206.67" cy="91.06" r="2.86"/>
    <circle cx="217.73" cy="57.09" r="2.86"/>
    <circle cx="228.77" cy="23.12" r="2.86"/>
    <circle cx="210.36" cy="84.72" r="2.86"/>
    <circle cx="221.39" cy="50.75" r="2.86"/>
    <circle cx="233.92" cy="17.27" r="2.86"/>
    <circle cx="225.05" cy="44.43" r="2.86"/>
    <circle cx="214.03" cy="78.40" r="2.86"/>
    <circle cx="228.71" cy="38.13" r="2.86"/>
    <circle cx="217.69" cy="72.11" r="2.86"/>
    <circle cx="232.35" cy="31.83" r="2.86"/>
    <circle cx="206.68" cy="106.10" r="2.86"/>
    <circle cx="221.33" cy="65.82" r="2.86"/>
    <circle cx="235.99" cy="25.55" r="2.86"/>
    <circle cx="224.98" cy="59.55" r="2.86"/>
    <circle cx="210.34" cy="99.83" r="2.86"/>
    <circle cx="241.30" cy="19.91" r="2.86"/>
    <circle cx="228.61" cy="53.29" r="2.86"/>
    <circle cx="232.24" cy="47.04" r="2.86"/>
    <circle cx="213.98" cy="93.58" r="2.86"/>
    <circle cx="235.86" cy="40.79" r="2.86"/>
    <circle cx="217.61" cy="87.34" r="2.86"/>
    <circle cx="239.48" cy="34.55" r="2.86"/>
    <circle cx="243.09" cy="28.31" r="2.86"/>
    <circle cx="221.23" cy="81.11" r="2.86"/>
    <circle cx="224.85" cy="74.88" r="2.86"/>
    <circle cx="228.46" cy="68.66" r="2.86"/>
    <circle cx="248.55" cy="22.87" r="2.86"/>
    <circle cx="232.07" cy="62.44" r="2.86"/>
    <circle cx="235.67" cy="56.23" r="2.86"/>
    <circle cx="239.27" cy="50.02" r="2.86"/>
    <circle cx="242.87" cy="43.81" r="2.86"/>
    <circle cx="246.46" cy="37.60" r="2.86"/>
    <circle cx="250.05" cy="31.40" r="2.86"/>
    <circle cx="213.86" cy="109.10" r="2.86"/>
    <circle cx="217.45" cy="102.90" r="2.86"/>
    <circle cx="255.66" cy="26.17" r="2.86"/>
    <circle cx="221.04" cy="96.71" r="2.86"/>
    <circle cx="224.63" cy="90.51" r="2.86"/>
    <circle cx="228.22" cy="84.32" r="2.86"/>
    <circle cx="231.81" cy="78.13" r="2.86"/>
    <circle cx="235.39" cy="71.94" r="2.86"/>
    <circle cx="238.97" cy="65.75" r="2.86"/>
    <circle cx="242.55" cy="59.56" r="2.86"/>
    <circle cx="246.13" cy="53.37" r="2.86"/>
    <circle cx="249.71" cy="47.18" r="2.86"/>
    <circle cx="253.29" cy="40.99" r="2.86"/>
    <circle cx="256.87" cy="34.81" r="2.86"/>
    <circle cx="262.61" cy="29.79" r="2.86"/>
    <circle cx="263.51" cy="38.52" r="2.86"/>
    <circle cx="259.94" cy="44.71" r="2.86"/>
    <circle cx="256.37" cy="50.90" r="2.86"/>
    <circle cx="252.80" cy="57.09" r="2.86"/>
    <circle cx="249.24" cy="63.27" r="2.86"/>
    <circle cx="245.67" cy="69.46" r="2.86"/>
    <circle cx="242.10" cy="75.65" r="2.86"/>
    <circle cx="238.53" cy="81.84" r="2.86"/>
    <circle cx="234.96" cy="88.03" r="2.86"/>
    <circle cx="231.39" cy="94.22" r="2.86"/>
    <circle cx="227.83" cy="100.41" r="2.86"/>
    <circle cx="224.26" cy="106.60" r="2.86"/>
    <circle cx="220.70" cy="112.79" r="2.86"/>
    <circle cx="269.39" cy="33.72" r="2.86"/>
    <circle cx="269.98" cy="42.55" r="2.86"/>
    <circle cx="266.41" cy="48.75" r="2.86"/>
    <circle cx="262.84" cy="54.95" r="2.86"/>
    <circle cx="259.27" cy="61.15" r="2.86"/>
    <circle cx="255.70" cy="67.36" r="2.86"/>
    <circle cx="275.98" cy="37.96" r="2.86"/>
    <circle cx="252.13" cy="73.57" r="2.86"/>
    <circle cx="248.56" cy="79.78" r="2.86"/>
    <circle cx="244.99" cy="85.99" r="2.86"/>
    <circle cx="241.42" cy="92.21" r="2.86"/>
    <circle cx="237.85" cy="98.43" r="2.86"/>
    <circle cx="234.28" cy="104.66" r="2.86"/>
    <circle cx="276.26" cy="46.87" r="2.86"/>
    <circle cx="272.68" cy="53.09" r="2.86"/>
    <circle cx="230.71" cy="110.90" r="2.86"/>
    <circle cx="269.09" cy="59.32" r="2.86"/>
    <circle cx="282.37" cy="42.49" r="2.86"/>
    <circle cx="265.51" cy="65.56" r="2.86"/>
    <circle cx="227.14" cy="117.14" r="2.86"/>
    <circle cx="261.92" cy="71.80" r="2.86"/>
    <circle cx="258.34" cy="78.05" r="2.86"/>
    <circle cx="254.75" cy="84.30" r="2.86"/>
    <circle cx="251.16" cy="90.57" r="2.86"/>
    <circle cx="282.32" cy="51.47" r="2.86"/>
    <circle cx="278.72" cy="57.74" r="2.86"/>
    <circle cx="247.56" cy="96.84" r="2.86"/>
    <circle cx="288.54" cy="47.31" r="2.86"/>
    <circle cx="275.11" cy="64.01" r="2.86"/>
    <circle cx="243.96" cy="103.13" r="2.86"/>
    <circle cx="271.50" cy="70.29" r="2.86"/>
    <circle cx="267.89" cy="76.59" r="2.86"/>
    <circle cx="240.36" cy="109.43" r="2.86"/>
    <circle cx="264.27" cy="82.89" r="2.86"/>
    <circle cx="288.17" cy="56.35" r="2.86"/>
    <circle cx="236.74" cy="115.76" r="2.86"/>
    <circle cx="260.64" cy="89.21" r="2.86"/>
    <circle cx="284.53" cy="62.67" r="2.86"/>
    <circle cx="294.49" cy="52.41" r="2.86"/>
    <circle cx="280.89" cy="69.00" r="2.86"/>
    <circle cx="257.00" cy="95.55" r="2.86"/>
    <circle cx="233.12" cy="122.11" r="2.86"/>
    <circle cx="277.24" cy="75.34" r="2.86"/>
    <circle cx="253.35" cy="101.91" r="2.86"/>
    <circle cx="273.57" cy="81.70" r="2.86"/>
    <circle cx="293.79" cy="61.50" r="2.86"/>
    <circle cx="249.69" cy="108.29" r="2.86"/>
    <circle cx="269.90" cy="88.08" r="2.86"/>
    <circle cx="290.10" cy="67.88" r="2.86"/>
    <circle cx="300.20" cy="57.78" r="2.86"/>
    <circle cx="286.40" cy="74.27" r="2.86"/>
    <circle cx="266.21" cy="94.48" r="2.86"/>
    <circle cx="246.02" cy="114.70" r="2.86"/>
    <circle cx="282.69" cy="80.69" r="2.86"/>
    <circle cx="262.50" cy="100.91" r="2.86"/>
    <circle cx="299.16" cy="66.90" r="2.86"/>
    <circle cx="242.31" cy="121.15" r="2.86"/>
    <circle cx="278.96" cy="87.13" r="2.86"/>
    <circle cx="305.66" cy="63.40" r="2.86"/>
    <circle cx="295.41" cy="73.35" r="2.86"/>
    <circle cx="258.77" cy="107.37" r="2.86"/>
    <circle cx="275.21" cy="93.60" r="2.86"/>
    <circle cx="291.64" cy="79.82" r="2.86"/>
    <circle cx="238.58" cy="127.64" r="2.86"/>
    <circle cx="255.01" cy="113.87" r="2.86"/>
    <circle cx="271.43" cy="100.09" r="2.86"/>
    <circle cx="287.85" cy="86.32" r="2.86"/>
    <circle cx="304.27" cy="72.55" r="2.86"/>
    <circle cx="310.86" cy="69.26" r="2.86"/>
    <circle cx="300.45" cy="79.07" r="2.86"/>
    <circle cx="284.04" cy="92.85" r="2.86"/>
    <circle cx="267.62" cy="106.63" r="2.86"/>
    <circle cx="251.22" cy="120.41" r="2.86"/>
    <circle cx="296.59" cy="85.63" r="2.86"/>
    <circle cx="280.18" cy="99.42" r="2.86"/>
    <circle cx="263.78" cy="113.21" r="2.86"/>
    <circle cx="309.12" cy="78.42" r="2.86"/>
    <circle cx="247.38" cy="127.01" r="2.86"/>
    <circle cx="292.71" cy="92.22" r="2.86"/>
    <circle cx="315.78" cy="75.36" r="2.86"/>
    <circle cx="276.29" cy="106.02" r="2.86"/>
    <circle cx="305.20" cy="85.03" r="2.86"/>
    <circle cx="259.88" cy="119.84" r="2.86"/>
    <circle cx="288.78" cy="98.85" r="2.86"/>
    <circle cx="243.47" cy="133.69" r="2.86"/>
    <circle cx="272.35" cy="112.68" r="2.86"/>
    <circle cx="301.24" cy="91.68" r="2.86"/>
    <circle cx="313.69" cy="84.52" r="2.86"/>
    <circle cx="284.80" cy="105.52" r="2.86"/>
    <circle cx="255.92" cy="126.54" r="2.86"/>
    <circle cx="320.42" cy="81.67" r="2.86"/>
    <circle cx="297.24" cy="98.37" r="2.86"/>
    <circle cx="268.35" cy="119.39" r="2.86"/>
    <circle cx="309.66" cy="91.22" r="2.86"/>
    <circle cx="280.77" cy="112.25" r="2.86"/>
    <circle cx="293.18" cy="105.10" r="2.86"/>
    <circle cx="305.58" cy="97.96" r="2.86"/>
    <circle cx="251.89" cy="133.32" r="2.86"/>
    <circle cx="317.97" cy="90.82" r="2.86"/>
    <circle cx="264.28" cy="126.18" r="2.86"/>
    <circle cx="324.77" cy="88.19" r="2.86"/>
    <circle cx="276.67" cy="119.04" r="2.86"/>
    <circle cx="289.05" cy="111.89" r="2.86"/>
    <circle cx="301.43" cy="104.75" r="2.86"/>
    <circle cx="313.81" cy="97.61" r="2.86"/>
    <circle cx="247.74" cy="140.19" r="2.86"/>
    <circle cx="260.11" cy="133.04" r="2.86"/>
    <circle cx="272.48" cy="125.89" r="2.86"/>
    <circle cx="284.85" cy="118.74" r="2.86"/>
    <circle cx="297.22" cy="111.60" r="2.86"/>
    <circle cx="309.59" cy="104.45" r="2.86"/>
    <circle cx="321.96" cy="97.31" r="2.86"/>
    <circle cx="328.81" cy="94.90" r="2.86"/>
    <circle cx="317.65" cy="104.20" r="2.86"/>
    <circle cx="305.28" cy="111.35" r="2.86"/>
    <circle cx="292.91" cy="118.51" r="2.86"/>
    <circle cx="280.54" cy="125.66" r="2.86"/>
    <circle cx="268.18" cy="132.83" r="2.86"/>
    <circle cx="255.81" cy="140.00" r="2.86"/>
    <circle cx="325.64" cy="103.98" r="2.86"/>
    <circle cx="313.26" cy="111.14" r="2.86"/>
    <circle cx="332.55" cy="101.79" r="2.86"/>
    <circle cx="300.88" cy="118.31" r="2.86"/>
    <circle cx="288.50" cy="125.48" r="2.86"/>
    <circle cx="276.12" cy="132.67" r="2.86"/>
    <circle cx="321.17" cy="110.96" r="2.86"/>
    <circle cx="308.77" cy="118.14" r="2.86"/>
    <circle cx="263.73" cy="139.86" r="2.86"/>
    <circle cx="296.37" cy="125.34" r="2.86"/>
    <circle cx="329.00" cy="110.81" r="2.86"/>
    <circle cx="251.34" cy="147.08" r="2.86"/>
    <circle cx="283.97" cy="132.54" r="2.86"/>
    <circle cx="335.96" cy="108.84" r="2.86"/>
    <circle cx="316.59" cy="118.01" r="2.86"/>
    <circle cx="304.17" cy="125.22" r="2.86"/>
    <circle cx="271.55" cy="139.76" r="2.86"/>
    <circle cx="324.35" cy="117.89" r="2.86"/>
    <circle cx="291.73" cy="132.44" r="2.86"/>
    <circle cx="259.11" cy="147.01" r="2.86"/>
    <circle cx="311.89" cy="125.12" r="2.86"/>
    <circle cx="332.05" cy="117.79" r="2.86"/>
    <circle cx="279.27" cy="139.69" r="2.86"/>
    <circle cx="339.05" cy="116.04" r="2.86"/>
    <circle cx="299.42" cy="132.36" r="2.86"/>
    <circle cx="319.57" cy="125.03" r="2.86"/>
    <circle cx="266.78" cy="146.96" r="2.86"/>
    <circle cx="286.92" cy="139.63" r="2.86"/>
    <circle cx="307.05" cy="132.30" r="2.86"/>
    <circle cx="327.19" cy="124.96" r="2.86"/>
    <circle cx="334.77" cy="124.91" r="2.86"/>
    <circle cx="314.64" cy="132.24" r="2.86"/>
    <circle cx="294.51" cy="139.59" r="2.86"/>
    <circle cx="274.37" cy="146.93" r="2.86"/>
    <circle cx="341.81" cy="123.38" r="2.86"/>
    <circle cx="254.25" cy="154.29" r="2.86"/>
    <circle cx="322.18" cy="132.20" r="2.86"/>
    <circle cx="302.04" cy="139.55" r="2.86"/>
    <circle cx="281.91" cy="146.91" r="2.86"/>
    <circle cx="329.69" cy="132.17" r="2.86"/>
    <circle cx="261.77" cy="154.29" r="2.86"/>
    <circle cx="309.54" cy="139.53" r="2.86"/>
    <circle cx="337.16" cy="132.14" r="2.86"/>
    <circle cx="289.39" cy="146.90" r="2.86"/>
    <circle cx="344.23" cy="130.83" r="2.86"/>
    <circle cx="317.00" cy="139.51" r="2.86"/>
    <circle cx="269.23" cy="154.29" r="2.86"/>
    <circle cx="296.83" cy="146.89" r="2.86"/>
    <circle cx="324.43" cy="139.49" r="2.86"/>
    <circle cx="331.83" cy="139.48" r="2.86"/>
    <circle cx="304.23" cy="146.89" r="2.86"/>
    <circle cx="276.64" cy="154.30" r="2.86"/>
    <circle cx="339.21" cy="139.48" r="2.86"/>
    <circle cx="311.61" cy="146.89" r="2.86"/>
    <circle cx="346.30" cy="138.38" r="2.86"/>
    <circle cx="284.02" cy="154.31" r="2.86"/>
    <circle cx="256.42" cy="161.76" r="2.86"/>
    <circle cx="318.97" cy="146.89" r="2.86"/>
    <circle cx="291.36" cy="154.32" r="2.86"/>
    <circle cx="326.30" cy="146.89" r="2.86"/>
    <circle cx="263.76" cy="161.78" r="2.86"/>
    <circle cx="298.68" cy="154.33" r="2.86"/>
    <circle cx="333.62" cy="146.90" r="2.86"/>
    <circle cx="340.92" cy="146.90" r="2.86"/>
    <circle cx="305.99" cy="154.34" r="2.86"/>
    <circle cx="348.03" cy="146.03" r="2.86"/>
    <circle cx="271.06" cy="161.80" r="2.86"/>
    <circle cx="313.27" cy="154.35" r="2.86"/>
    <circle cx="278.33" cy="161.82" r="2.86"/>
    <circle cx="320.54" cy="154.36" r="2.86"/>
    <circle cx="327.79" cy="154.37" r="2.86"/>
    <circle cx="285.59" cy="161.84" r="2.86"/>
    <circle cx="335.04" cy="154.38" r="2.86"/>
    <circle cx="292.84" cy="161.86" r="2.86"/>
    <circle cx="342.28" cy="154.39" r="2.86"/>
    <circle cx="349.41" cy="153.74" r="2.86"/>
    <circle cx="300.07" cy="161.87" r="2.86"/>
    <circle cx="307.29" cy="161.89" r="2.86"/>
    <circle cx="257.85" cy="169.40" r="2.86"/>
    <circle cx="314.50" cy="161.90" r="2.86"/>
    <circle cx="321.71" cy="161.91" r="2.86"/>
    <circle cx="265.06" cy="169.42" r="2.86"/>
    <circle cx="328.91" cy="161.92" r="2.86"/>
    <circle cx="336.10" cy="161.93" r="2.86"/>
    <circle cx="272.25" cy="169.44" r="2.86"/>
    <circle cx="343.29" cy="161.94" r="2.86"/>
    <circle cx="350.43" cy="161.51" r="2.86"/>
    <circle cx="279.44" cy="169.45" r="2.86"/>
    <circle cx="286.62" cy="169.47" r="2.86"/>
    <circle cx="293.80" cy="169.48" r="2.86"/>
    <circle cx="300.97" cy="169.49" r="2.86"/>
    <circle cx="308.14" cy="169.50" r="2.86"/>
    <circle cx="315.31" cy="169.51" r="2.86"/>
    <circle cx="322.47" cy="169.51" r="2.86"/>
    <circle cx="329.63" cy="169.52" r="2.86"/>
    <circle cx="336.79" cy="169.53" r="2.86"/>
  </g>
  <g style="fill:purple; stroke:purple" id="IND">
    <circle cx="343.95" cy="169.53" r="2.86"/>
    <circle cx="351.10" cy="169.31" r="2.86"/>
    <circle cx="258.52" cy="177.14" r="2.86"/>
    <circle cx="265.67" cy="177.14" r="2.86"/>
    <circle cx="272.81" cy="177.14" r="2.86"/>
    <circle cx="279.96" cy="177.14" r="2.86"/>
    <circle cx="287.10" cy="177.14" r="2.86"/>
    <circle cx="294.25" cy="177.14" r="2.86"/>
    <circle cx="301.39" cy="177.14" r="2.86"/>
    <circle cx="308.54" cy="177.14" r="2.86"/>
    <circle cx="315.68" cy="177.14" r="2.86"/>
  </g>
  <g style="fill:green; stroke:green" id="INC">
    <circle cx="322.83" cy="177.14" r="2.86"/>
    <circle cx="329.97" cy="177.14" r="2.86"/>
    <circle cx="337.12" cy="177.14" r="2.86"/>
    <circle cx="344.26" cy="177.14" r="2.86"/>
  </g>
  <g style="fill:red; stroke:red" id="CPI">
    <circle cx="351.40" cy="177.14" r="2.86"/>
  </g>
</g>
</svg>
